Lora Devanarari-Bold.ufo
<glyph name="exclam" format="1">
  <advance width="258"/>
  <unicode hex="0021"/>
  <outline>
    <contour>
      <point x="78" y="716"/>
      <point x="53" y="668"/>
      <point x="57" y="625" type="curve" smooth="yes"/>
      <point x="95" y="213" type="line"/>
      <point x="163" y="213" type="line"/>
      <point x="200" y="625" type="line" smooth="yes"/>
      <point x="204" y="668"/>
      <point x="183" y="716"/>
      <point x="129" y="716" type="curve" smooth="yes"/>
    </contour>
    <contour>
      <point x="90" y="140"/>
      <point x="56" y="105"/>
      <point x="56" y="62" type="curve" smooth="yes"/>
      <point x="56" y="19"/>
      <point x="89" y="-16"/>
      <point x="128" y="-16" type="curve" smooth="yes"/>
      <point x="166" y="-16"/>
      <point x="201" y="19"/>
      <point x="201" y="62" type="curve" smooth="yes"/>
      <point x="201" y="105"/>
      <point x="170" y="140"/>
      <point x="129" y="140" type="curve" smooth="yes"/>
    </contour>
  </outline>
</glyph>
<glyph name="five" format="1">
  <advance width="540"/>
  <unicode hex="0035"/>
  <outline>
    <contour>
      <point x="402" y="765" type="line"/>
      <point x="402" y="709"/>
      <point x="372" y="700"/>
      <point x="326" y="700" type="curve" smooth="yes"/>
      <point x="67" y="700" type="line"/>
      <point x="71" y="366" type="line"/>
      <point x="114" y="333" type="line"/>
      <point x="160" y="361"/>
      <point x="206" y="370"/>
      <point x="234" y="370" type="curve" smooth="yes"/>
      <point x="346" y="370"/>
      <point x="354" y="257"/>
      <point x="354" y="197" type="curve" smooth="yes"/>
      <point x="354" y="128"/>
      <point x="323" y="55"/>
      <point x="243" y="55" type="curve" smooth="yes"/>
      <point x="215" y="55"/>
      <point x="174" y="69"/>
      <point x="165" y="92" type="curve"/>
      <point x="173" y="105"/>
      <point x="176" y="122"/>
      <point x="176" y="133" type="curve" smooth="yes"/>
      <point x="176" y="160"/>
      <point x="161" y="199"/>
      <point x="111" y="197" type="curve" smooth="yes"/>
      <point x="70" y="196"/>
      <point x="44" y="160"/>
      <point x="44" y="121" type="curve" smooth="yes"/>
      <point x="44" y="57"/>
      <point x="120" y="-16"/>
      <point x="250" y="-16" type="curve" smooth="yes"/>
      <point x="380" y="-16"/>
      <point x="508" y="63"/>
      <point x="508" y="218" type="curve" smooth="yes"/>
      <point x="508" y="337"/>
      <point x="431" y="443"/>
      <point x="265" y="443" type="curve" smooth="yes"/>
      <point x="225" y="443"/>
      <point x="174" y="432"/>
      <point x="144" y="419" type="curve"/>
      <point x="144" y="597" type="line"/>
      <point x="458" y="603" type="line"/>
      <point x="465" y="765" type="line"/>
    </contour>
  </outline>
</glyph>
<glyph name="eight" format="1">
  <advance width="572"/>
  <unicode hex="0038"/>
  <outline>
    <contour>
      <point x="191" y="716"/>
      <point x="67" y="656"/>
      <point x="67" y="525" type="curve" smooth="yes"/>
      <point x="67" y="471"/>
      <point x="100" y="399"/>
      <point x="188" y="344" type="curve"/>
      <point x="188" y="343" type="line"/>
      <point x="122" y="305"/>
      <point x="56" y="234"/>
      <point x="56" y="158" type="curve" smooth="yes"/>
      <point x="56" y="26"/>
      <point x="188" y="-16"/>
      <point x="283" y="-16" type="curve" smooth="yes"/>
      <point x="413" y="-16"/>
      <point x="530" y="42"/>
      <point x="530" y="172" type="curve" smooth="yes"/>
      <point x="530" y="248"/>
      <point x="483" y="320"/>
      <point x="381" y="382" type="curve"/>
      <point x="381" y="383" type="line"/>
      <point x="437" y="417"/>
      <point x="500" y="477"/>
      <point x="500" y="546" type="curve" smooth="yes"/>
      <point x="500" y="656"/>
      <point x="397" y="716"/>
      <point x="294" y="716" type="curve" smooth="yes"/>
    </contour>
    <contour>
      <point x="356" y="258"/>
      <point x="387" y="201"/>
      <point x="387" y="151" type="curve" smooth="yes"/>
      <point x="387" y="96"/>
      <point x="348" y="53"/>
      <point x="284" y="54" type="curve" smooth="yes"/>
      <point x="220" y="55"/>
      <point x="175" y="105"/>
      <point x="178" y="168" type="curve" smooth="yes"/>
      <point x="180" y="206"/>
      <point x="204" y="265"/>
      <point x="257" y="307" type="curve"/>
    </contour>
    <contour>
      <point x="353" y="646"/>
      <point x="395" y="609"/>
      <point x="392" y="542" type="curve" smooth="yes"/>
      <point x="391" y="505"/>
      <point x="358" y="455"/>
      <point x="316" y="423" type="curve"/>
      <point x="257" y="447"/>
      <point x="207" y="501"/>
      <point x="207" y="553" type="curve" smooth="yes"/>
      <point x="207" y="604"/>
      <point x="244" y="646"/>
      <point x="302" y="646" type="curve" smooth="yes"/>
    </contour>
  </outline>
</glyph>
<glyph name="M" format="1">
  <advance width="972"/>
  <unicode hex="004D"/>
  <outline>
    <contour>
      <point x="684" y="700" type="line"/>
      <point x="529" y="287" type="line" smooth="yes"/>
      <point x="513" y="245"/>
      <point x="499" y="201"/>
      <point x="482" y="155" type="curve"/>
      <point x="481" y="155" type="line"/>
      <point x="471" y="189"/>
      <point x="443" y="267"/>
      <point x="425" y="313" type="curve" smooth="yes"/>
      <point x="274" y="700" type="line"/>
      <point x="53" y="700" type="line"/>
      <point x="53" y="623" type="line"/>
      <point x="67" y="624"/>
      <point x="107" y="625"/>
      <point x="128" y="626" type="curve"/>
      <point x="126" y="609"/>
      <point x="125" y="572"/>
      <point x="124" y="536" type="curve" smooth="yes"/>
      <point x="118" y="153" type="line" smooth="yes"/>
      <point x="117" y="72"/>
      <point x="92" y="68"/>
      <point x="47" y="66" type="curve"/>
      <point x="47" y="0" type="line"/>
      <point x="275" y="0" type="line"/>
      <point x="275" y="77" type="line"/>
      <point x="261" y="77"/>
      <point x="221" y="76"/>
      <point x="199" y="74" type="curve"/>
      <point x="202" y="91"/>
      <point x="204" y="128"/>
      <point x="204" y="164" type="curve" smooth="yes"/>
      <point x="205" y="345" type="line" smooth="yes"/>
      <point x="206" y="405"/>
      <point x="204" y="470"/>
      <point x="202" y="545" type="curve"/>
      <point x="203" y="545" type="line"/>
      <point x="224" y="449"/>
      <point x="257" y="356"/>
      <point x="273" y="319" type="curve" smooth="yes"/>
      <point x="408" y="-10" type="line"/>
      <point x="501" y="-10" type="line"/>
      <point x="706" y="538" type="line"/>
      <point x="707" y="538" type="line"/>
      <point x="709" y="477"/>
      <point x="714" y="389"/>
      <point x="715" y="365" type="curve" smooth="yes"/>
      <point x="723" y="153" type="line" smooth="yes"/>
      <point x="726" y="72"/>
      <point x="697" y="68"/>
      <point x="652" y="66" type="curve"/>
      <point x="652" y="0" type="line"/>
      <point x="930" y="0" type="line"/>
      <point x="930" y="77" type="line"/>
      <point x="916" y="77"/>
      <point x="876" y="76"/>
      <point x="854" y="74" type="curve"/>
      <point x="857" y="91"/>
      <point x="860" y="128"/>
      <point x="858" y="164" type="curve" smooth="yes"/>
      <point x="843" y="547" type="line" smooth="yes"/>
      <point x="840" y="628"/>
      <point x="870" y="632"/>
      <point x="915" y="634" type="curve"/>
      <point x="915" y="700" type="line"/>
    </contour>
  </outline>
</glyph>
<glyph name="R" format="1">
  <advance width="686"/>
  <unicode hex="0052"/>
  <outline>
    <contour>
      <point x="50" y="700" type="line"/>
      <point x="50" y="623" type="line"/>
      <point x="64" y="624"/>
      <point x="104" y="625"/>
      <point x="125" y="626" type="curve"/>
      <point x="123" y="609"/>
      <point x="121" y="572"/>
      <point x="121" y="536" type="curve" smooth="yes"/>
      <point x="121" y="153" type="line" smooth="yes"/>
      <point x="121" y="72"/>
      <point x="95" y="68"/>
      <point x="50" y="66" type="curve"/>
      <point x="50" y="0" type="line"/>
      <point x="347" y="0" type="line"/>
      <point x="347" y="77" type="line"/>
      <point x="333" y="77"/>
      <point x="283" y="76"/>
      <point x="262" y="74" type="curve"/>
      <point x="264" y="91"/>
      <point x="266" y="128"/>
      <point x="266" y="165" type="curve" smooth="yes"/>
      <point x="266" y="272" type="line"/>
      <point x="285" y="272"/>
      <point x="297" y="272"/>
      <point x="318" y="272" type="curve"/>
      <point x="331" y="258"/>
      <point x="343" y="241"/>
      <point x="360" y="214" type="curve" smooth="yes"/>
      <point x="434" y="94" type="line" smooth="yes"/>
      <point x="460" y="51"/>
      <point x="483" y="17"/>
      <point x="507" y="0" type="curve"/>
      <point x="672" y="0" type="line"/>
      <point x="672" y="66" type="line"/>
      <point x="627" y="68"/>
      <point x="604" y="92"/>
      <point x="560" y="160" type="curve" smooth="yes"/>
      <point x="513" y="230" type="line" smooth="yes"/>
      <point x="496" y="257"/>
      <point x="469" y="283"/>
      <point x="444" y="293" type="curve"/>
      <point x="444" y="294" type="line"/>
      <point x="561" y="327"/>
      <point x="617" y="402"/>
      <point x="620" y="487" type="curve" smooth="yes"/>
      <point x="624" y="646"/>
      <point x="510" y="703"/>
      <point x="334" y="702" type="curve" smooth="yes"/>
    </contour>
    <contour>
      <point x="374" y="632"/>
      <point x="469" y="623"/>
      <point x="469" y="495" type="curve" smooth="yes"/>
      <point x="469" y="393"/>
      <point x="425" y="344"/>
      <point x="314" y="344" type="curve" smooth="yes"/>
      <point x="297" y="344"/>
      <point x="281" y="346"/>
      <point x="266" y="348" type="curve"/>
      <point x="266" y="553" type="line" smooth="yes"/>
      <point x="266" y="623"/>
      <point x="291" y="632"/>
      <point x="333" y="632" type="curve" smooth="yes"/>
    </contour>
    <contour>
      <point x="343" y="700" type="move" name="top"/>
    </contour>
    <contour>
      <point x="384" y="0" type="move" name="bottom"/>
    </contour>
  </outline>
</glyph>
<glyph name="V" format="1">
  <advance width="708"/>
  <unicode hex="0056"/>
  <outline>
    <contour>
      <point x="483" y="700" type="line"/>
      <point x="483" y="623" type="line"/>
      <point x="497" y="624"/>
      <point x="538" y="625"/>
      <point x="560" y="627" type="curve"/>
      <point x="560" y="626" type="line"/>
      <point x="542" y="605"/>
      <point x="526" y="557"/>
      <point x="519" y="535" type="curve" smooth="yes"/>
      <point x="443" y="326" type="line" smooth="yes"/>
      <point x="427" y="280"/>
      <point x="409" y="228"/>
      <point x="395" y="188" type="curve"/>
      <point x="394" y="188" type="line"/>
      <point x="373" y="239"/>
      <point x="360" y="275"/>
      <point x="337" y="331" type="curve" smooth="yes"/>
      <point x="245" y="557" type="line" smooth="yes"/>
      <point x="221" y="616"/>
      <point x="253" y="635"/>
      <point x="303" y="634" type="curve"/>
      <point x="303" y="700" type="line"/>
      <point x="8" y="700" type="line"/>
      <point x="8" y="623" type="line"/>
      <point x="22" y="624"/>
      <point x="40" y="625"/>
      <point x="62" y="626" type="curve"/>
      <point x="62" y="604"/>
      <point x="76" y="564"/>
      <point x="90" y="531" type="curve" smooth="yes"/>
      <point x="320" y="-6" type="line"/>
      <point x="402" y="-6" type="line"/>
      <point x="602" y="527" type="line" smooth="yes"/>
      <point x="631" y="604"/>
      <point x="663" y="632"/>
      <point x="708" y="634" type="curve"/>
      <point x="708" y="700" type="line"/>
    </contour>
  </outline>
</glyph>
<glyph name="Z" format="1">
  <advance width="604"/>
  <unicode hex="005A"/>
  <outline>
    <contour>
      <point x="51" y="700" type="line"/>
      <point x="45" y="487" type="line"/>
      <point x="111" y="487" type="line"/>
      <point x="111" y="595"/>
      <point x="164" y="637"/>
      <point x="238" y="635" type="curve" smooth="yes"/>
      <point x="409" y="630" type="line"/>
      <point x="409" y="629" type="line"/>
      <point x="384" y="599"/>
      <point x="364" y="569"/>
      <point x="339" y="531" type="curve" smooth="yes"/>
      <point x="40" y="75" type="line"/>
      <point x="40" y="0" type="line"/>
      <point x="555" y="0" type="line"/>
      <point x="561" y="214" type="line"/>
      <point x="495" y="214" type="line"/>
      <point x="495" y="105"/>
      <point x="443" y="65"/>
      <point x="369" y="66" type="curve" smooth="yes"/>
      <point x="186" y="70" type="line"/>
      <point x="186" y="71" type="line"/>
      <point x="216" y="106"/>
      <point x="244" y="147"/>
      <point x="272" y="189" type="curve" smooth="yes"/>
      <point x="560" y="625" type="line"/>
      <point x="560" y="700" type="line"/>
    </contour>
    <contour>
      <point x="314" y="700" type="move" name="top"/>
    </contour>
  </outline>
</glyph>
<glyph name="underscore" format="1">
  <advance width="832"/>
  <unicode hex="005F"/>
  <outline>
    <contour>
      <point x="108" y="-155" type="line"/>
      <point x="723" y="-155" type="line"/>
      <point x="723" y="-54" type="line"/>
      <point x="108" y="-50" type="line"/>
    </contour>
  </outline>
</glyph>
<glyph name="a" format="1">
  <advance width="524"/>
  <unicode hex="0061"/>
  <outline>
    <contour>
      <point x="146" y="516"/>
      <point x="52" y="463"/>
      <point x="52" y="384" type="curve" smooth="yes"/>
      <point x="52" y="348"/>
      <point x="74" y="317"/>
      <point x="114" y="316" type="curve" smooth="yes"/>
      <point x="161" y="315"/>
      <point x="181" y="351"/>
      <point x="181" y="378" type="curve" smooth="yes"/>
      <point x="181" y="388"/>
      <point x="179" y="404"/>
      <point x="169" y="416" type="curve"/>
      <point x="186" y="433"/>
      <point x="211" y="443"/>
      <point x="237" y="444" type="curve" smooth="yes"/>
      <point x="292" y="446"/>
      <point x="309" y="405"/>
      <point x="309" y="353" type="curve" smooth="yes"/>
      <point x="309" y="301" type="line"/>
      <point x="175" y="295"/>
      <point x="30" y="244"/>
      <point x="30" y="117" type="curve" smooth="yes"/>
      <point x="30" y="41"/>
      <point x="80" y="-16"/>
      <point x="166" y="-16" type="curve" smooth="yes"/>
      <point x="218" y="-16"/>
      <point x="269" y="0"/>
      <point x="314" y="46" type="curve"/>
      <point x="315" y="46" type="line"/>
      <point x="316" y="29"/>
      <point x="316" y="19"/>
      <point x="319" y="0" type="curve"/>
      <point x="508" y="0" type="line"/>
      <point x="508" y="76" type="line"/>
      <point x="494" y="76"/>
      <point x="465" y="75"/>
      <point x="443" y="73" type="curve"/>
      <point x="446" y="103"/>
      <point x="447" y="142"/>
      <point x="447" y="161" type="curve" smooth="yes"/>
      <point x="447" y="229"/>
      <point x="448" y="257"/>
      <point x="448" y="325" type="curve" smooth="yes"/>
      <point x="448" y="458"/>
      <point x="380" y="516"/>
      <point x="263" y="516" type="curve" smooth="yes"/>
    </contour>
    <contour>
      <point x="308" y="118" type="line"/>
      <point x="287" y="96"/>
      <point x="259" y="82"/>
      <point x="229" y="82" type="curve" smooth="yes"/>
      <point x="200" y="82"/>
      <point x="173" y="97"/>
      <point x="172" y="134" type="curve" smooth="yes"/>
      <point x="171" y="191"/>
      <point x="233" y="223"/>
      <point x="308" y="230" type="curve"/>
    </contour>
    <contour>
      <point x="472" y="5" type="move" name="ogonek"/>
    </contour>
    <contour>
      <point x="252" y="500" type="move" name="top"/>
    </contour>
  </outline>
</glyph>
<glyph name="b" format="1">
  <advance width="573"/>
  <unicode hex="0062"/>
  <outline>
    <contour>
      <point x="150" y="755" type="line"/>
      <point x="136" y="742"/>
      <point x="89" y="725"/>
      <point x="-4" y="725" type="curve"/>
      <point x="-4" y="649" type="line"/>
      <point x="10" y="650"/>
      <point x="45" y="651"/>
      <point x="66" y="652" type="curve"/>
      <point x="63" y="623"/>
      <point x="63" y="589"/>
      <point x="63" y="565" type="curve" smooth="yes"/>
      <point x="63" y="0" type="line"/>
      <point x="123" y="0" type="line"/>
      <point x="152" y="44" type="line"/>
      <point x="153" y="44" type="line"/>
      <point x="200" y="-6"/>
      <point x="262" y="-16"/>
      <point x="298" y="-16" type="curve" smooth="yes"/>
      <point x="449" y="-16"/>
      <point x="541" y="102"/>
      <point x="541" y="263" type="curve" smooth="yes"/>
      <point x="541" y="417"/>
      <point x="459" y="516"/>
      <point x="339" y="516" type="curve" smooth="yes"/>
      <point x="297" y="516"/>
      <point x="249" y="502"/>
      <point x="204" y="462" type="curve"/>
      <point x="204" y="755" type="line"/>
    </contour>
    <contour>
      <point x="362" y="428"/>
      <point x="394" y="339"/>
      <point x="394" y="248" type="curve" smooth="yes"/>
      <point x="394" y="149"/>
      <point x="367" y="54"/>
      <point x="277" y="57" type="curve" smooth="yes"/>
      <point x="242" y="58"/>
      <point x="204" y="82"/>
      <point x="204" y="150" type="curve" smooth="yes"/>
      <point x="204" y="383" type="line"/>
      <point x="222" y="408"/>
      <point x="252" y="425"/>
      <point x="285" y="426" type="curve" smooth="yes"/>
    </contour>
  </outline>
</glyph>
<glyph name="d" format="1">
  <advance width="596"/>
  <unicode hex="0064"/>
  <outline>
    <contour>
      <point x="456" y="755" type="line"/>
      <point x="442" y="742"/>
      <point x="395" y="725"/>
      <point x="302" y="725" type="curve"/>
      <point x="302" y="649" type="line"/>
      <point x="316" y="649"/>
      <point x="351" y="650"/>
      <point x="373" y="652" type="curve"/>
      <point x="370" y="622"/>
      <point x="369" y="583"/>
      <point x="369" y="564" type="curve" smooth="yes"/>
      <point x="369" y="498" type="line"/>
      <point x="344" y="507"/>
      <point x="316" y="516"/>
      <point x="280" y="516" type="curve" smooth="yes"/>
      <point x="131" y="516"/>
      <point x="32" y="398"/>
      <point x="32" y="237" type="curve" smooth="yes"/>
      <point x="32" y="83"/>
      <point x="114" y="-16"/>
      <point x="234" y="-16" type="curve" smooth="yes"/>
      <point x="284" y="-16"/>
      <point x="331" y="0"/>
      <point x="375" y="46" type="curve"/>
      <point x="376" y="46" type="line"/>
      <point x="381" y="0" type="line"/>
      <point x="571" y="0" type="line"/>
      <point x="571" y="76" type="line"/>
      <point x="557" y="76"/>
      <point x="528" y="75"/>
      <point x="506" y="73" type="curve"/>
      <point x="509" y="103"/>
      <point x="510" y="142"/>
      <point x="510" y="161" type="curve" smooth="yes"/>
      <point x="510" y="755" type="line"/>
    </contour>
    <contour>
      <point x="326" y="442"/>
      <point x="355" y="433"/>
      <point x="369" y="423" type="curve"/>
      <point x="369" y="123" type="line"/>
      <point x="351" y="95"/>
      <point x="320" y="75"/>
      <point x="286" y="75" type="curve" smooth="yes"/>
      <point x="209" y="75"/>
      <point x="179" y="167"/>
      <point x="179" y="252" type="curve" smooth="yes"/>
      <point x="179" y="346"/>
      <point x="206" y="440"/>
      <point x="298" y="442" type="curve" smooth="yes"/>
    </contour>
    <contour>
      <point x="298" y="250" type="move" name="center"/>
    </contour>
    <contour>
      <point x="586" y="500" type="move" name="topright"/>
    </contour>
  </outline>
</glyph>
<glyph name="g" format="1">
  <advance width="557"/>
  <unicode hex="0067"/>
  <outline>
    <contour>
      <point x="454" y="606"/>
      <point x="412" y="546"/>
      <point x="390" y="485" type="curve"/>
      <point x="357" y="508"/>
      <point x="305" y="516"/>
      <point x="271" y="516" type="curve" smooth="yes"/>
      <point x="156" y="516"/>
      <point x="43" y="431"/>
      <point x="48" y="311" type="curve" smooth="yes"/>
      <point x="50" y="243"/>
      <point x="90" y="193"/>
      <point x="146" y="171" type="curve"/>
      <point x="146" y="170" type="line"/>
      <point x="73" y="148"/>
      <point x="49" y="97"/>
      <point x="49" y="63" type="curve" smooth="yes"/>
      <point x="49" y="25"/>
      <point x="68" y="-10"/>
      <point x="123" y="-25" type="curve"/>
      <point x="51" y="-52"/>
      <point x="28" y="-99"/>
      <point x="28" y="-140" type="curve" smooth="yes"/>
      <point x="28" y="-208"/>
      <point x="83" y="-271"/>
      <point x="256" y="-271" type="curve" smooth="yes"/>
      <point x="389" y="-271"/>
      <point x="539" y="-209"/>
      <point x="539" y="-95" type="curve" smooth="yes"/>
      <point x="539" y="21"/>
      <point x="436" y="55"/>
      <point x="283" y="64" type="curve" smooth="yes"/>
      <point x="189" y="69"/>
      <point x="155" y="76"/>
      <point x="155" y="101" type="curve" smooth="yes"/>
      <point x="155" y="120"/>
      <point x="178" y="131"/>
      <point x="207" y="131" type="curve" smooth="yes"/>
      <point x="227" y="131"/>
      <point x="249" y="128"/>
      <point x="267" y="128" type="curve" smooth="yes"/>
      <point x="384" y="128"/>
      <point x="494" y="210"/>
      <point x="494" y="326" type="curve" smooth="yes"/>
      <point x="494" y="376"/>
      <point x="473" y="422"/>
      <point x="435" y="455" type="curve"/>
      <point x="438" y="477"/>
      <point x="458" y="515"/>
      <point x="476" y="520" type="curve"/>
      <point x="480" y="498"/>
      <point x="504" y="481"/>
      <point x="524" y="481" type="curve" smooth="yes"/>
      <point x="572" y="480"/>
      <point x="586" y="518"/>
      <point x="586" y="542" type="curve" smooth="yes"/>
      <point x="586" y="581"/>
      <point x="562" y="606"/>
      <point x="517" y="606" type="curve" smooth="yes"/>
    </contour>
    <contour>
      <point x="212" y="-53"/>
      <point x="255" y="-54"/>
      <point x="285" y="-56" type="curve" smooth="yes"/>
      <point x="382" y="-60"/>
      <point x="429" y="-81"/>
      <point x="429" y="-122" type="curve" smooth="yes"/>
      <point x="429" y="-159"/>
      <point x="379" y="-202"/>
      <point x="285" y="-202" type="curve" smooth="yes"/>
      <point x="201" y="-202"/>
      <point x="148" y="-167"/>
      <point x="151" y="-113" type="curve" smooth="yes"/>
      <point x="152" y="-90"/>
      <point x="163" y="-64"/>
      <point x="183" y="-48" type="curve"/>
    </contour>
    <contour>
      <point x="327" y="449"/>
      <point x="354" y="378"/>
      <point x="354" y="308" type="curve" smooth="yes"/>
      <point x="354" y="253"/>
      <point x="325" y="195"/>
      <point x="271" y="195" type="curve" smooth="yes"/>
      <point x="216" y="195"/>
      <point x="186" y="260"/>
      <point x="186" y="331" type="curve" smooth="yes"/>
      <point x="186" y="392"/>
      <point x="217" y="449"/>
      <point x="270" y="449" type="curve" smooth="yes"/>
    </contour>
    <contour>
      <point x="263" y="500" type="move" name="top"/>
    </contour>
  </outline>
</glyph>
<glyph name="h" format="1">
  <advance width="621"/>
  <unicode hex="0068"/>
  <outline>
    <contour>
      <point x="172" y="755" type="line"/>
      <point x="158" y="742"/>
      <point x="111" y="725"/>
      <point x="18" y="725" type="curve"/>
      <point x="18" y="649" type="line"/>
      <point x="32" y="650"/>
      <point x="67" y="651"/>
      <point x="88" y="652" type="curve"/>
      <point x="85" y="623"/>
      <point x="84" y="589"/>
      <point x="84" y="565" type="curve" smooth="yes"/>
      <point x="84" y="154" type="line" smooth="yes"/>
      <point x="84" y="101"/>
      <point x="81" y="65"/>
      <point x="25" y="65" type="curve"/>
      <point x="25" y="0" type="line"/>
      <point x="287" y="0" type="line"/>
      <point x="287" y="76" type="line"/>
      <point x="273" y="76"/>
      <point x="244" y="75"/>
      <point x="222" y="73" type="curve"/>
      <point x="225" y="103"/>
      <point x="226" y="142"/>
      <point x="226" y="161" type="curve" smooth="yes"/>
      <point x="226" y="387" type="line"/>
      <point x="248" y="407"/>
      <point x="284" y="424"/>
      <point x="317" y="424" type="curve" smooth="yes"/>
      <point x="373" y="424"/>
      <point x="398" y="383"/>
      <point x="398" y="296" type="curve" smooth="yes"/>
      <point x="399" y="154" type="line" smooth="yes"/>
      <point x="399" y="101"/>
      <point x="395" y="65"/>
      <point x="339" y="65" type="curve"/>
      <point x="339" y="0" type="line"/>
      <point x="602" y="0" type="line"/>
      <point x="602" y="76" type="line"/>
      <point x="587" y="76"/>
      <point x="558" y="75"/>
      <point x="537" y="73" type="curve"/>
      <point x="540" y="103"/>
      <point x="541" y="142"/>
      <point x="541" y="161" type="curve" smooth="yes"/>
      <point x="541" y="295" type="line" smooth="yes"/>
      <point x="540" y="449"/>
      <point x="494" y="516"/>
      <point x="372" y="516" type="curve" smooth="yes"/>
      <point x="331" y="516"/>
      <point x="265" y="491"/>
      <point x="226" y="460" type="curve"/>
      <point x="226" y="755" type="line"/>
    </contour>
    <contour>
      <point x="311" y="250" type="move" name="center"/>
    </contour>
    <contour>
      <point x="170" y="704" type="move" name="top"/>
    </contour>
  </outline>
</glyph>
<glyph name="j" format="1">
  <advance width="294"/>
  <unicode hex="006A"/>
  <outline>
    <contour>
      <point x="178" y="510" type="line"/>
      <point x="164" y="497"/>
      <point x="117" y="480"/>
      <point x="24" y="480" type="curve"/>
      <point x="24" y="404" type="line"/>
      <point x="38" y="405"/>
      <point x="73" y="406"/>
      <point x="94" y="407" type="curve"/>
      <point x="91" y="377"/>
      <point x="90" y="344"/>
      <point x="90" y="320" type="curve" smooth="yes"/>
      <point x="93" y="-126" type="line" smooth="yes"/>
      <point x="93" y="-155"/>
      <point x="88" y="-201"/>
      <point x="51" y="-201" type="curve" smooth="yes"/>
      <point x="46" y="-201"/>
      <point x="37" y="-199"/>
      <point x="34" y="-197" type="curve"/>
      <point x="43" y="-153"/>
      <point x="17" y="-120"/>
      <point x="-25" y="-121" type="curve" smooth="yes"/>
      <point x="-65" y="-122"/>
      <point x="-88" y="-154"/>
      <point x="-88" y="-189" type="curve" smooth="yes"/>
      <point x="-88" y="-230"/>
      <point x="-54" y="-271"/>
      <point x="21" y="-271" type="curve" smooth="yes"/>
      <point x="141" y="-271"/>
      <point x="232" y="-183"/>
      <point x="232" y="2" type="curve" smooth="yes"/>
      <point x="232" y="510" type="line"/>
    </contour>
    <contour>
      <point x="125" y="763"/>
      <point x="89" y="726"/>
      <point x="89" y="680" type="curve" smooth="yes"/>
      <point x="89" y="635"/>
      <point x="121" y="599"/>
      <point x="167" y="599" type="curve" smooth="yes"/>
      <point x="212" y="599"/>
      <point x="241" y="635"/>
      <point x="241" y="680" type="curve" smooth="yes"/>
      <point x="241" y="726"/>
      <point x="209" y="763"/>
      <point x="166" y="763" type="curve" smooth="yes"/>
    </contour>
  </outline>
</glyph>
<glyph name="l" format="1">
  <advance width="312"/>
  <unicode hex="006C"/>
  <outline>
    <contour>
      <point x="172" y="755" type="line"/>
      <point x="158" y="742"/>
      <point x="111" y="725"/>
      <point x="18" y="725" type="curve"/>
      <point x="18" y="649" type="line"/>
      <point x="32" y="650"/>
      <point x="67" y="651"/>
      <point x="88" y="652" type="curve"/>
      <point x="85" y="623"/>
      <point x="84" y="589"/>
      <point x="84" y="565" type="curve" smooth="yes"/>
      <point x="84" y="154" type="line" smooth="yes"/>
      <point x="84" y="101"/>
      <point x="81" y="65"/>
      <point x="25" y="65" type="curve"/>
      <point x="25" y="0" type="line"/>
      <point x="287" y="0" type="line"/>
      <point x="287" y="76" type="line"/>
      <point x="273" y="76"/>
      <point x="244" y="75"/>
      <point x="222" y="73" type="curve"/>
      <point x="225" y="103"/>
      <point x="226" y="142"/>
      <point x="226" y="161" type="curve" smooth="yes"/>
      <point x="226" y="755" type="line"/>
    </contour>
    <contour>
      <point x="156" y="700" type="move" name="top"/>
    </contour>
    <contour>
      <point x="194" y="0" type="move" name="bottom"/>
    </contour>
    <contour>
      <point x="302" y="500" type="move" name="topright"/>
    </contour>
  </outline>
</glyph>
<glyph name="o" format="1">
  <advance width="566"/>
  <unicode hex="006F"/>
  <outline>
    <contour>
      <point x="146" y="516"/>
      <point x="31" y="405"/>
      <point x="31" y="239" type="curve" smooth="yes"/>
      <point x="31" y="82"/>
      <point x="141" y="-16"/>
      <point x="286" y="-16" type="curve" smooth="yes"/>
      <point x="432" y="-16"/>
      <point x="535" y="91"/>
      <point x="535" y="259" type="curve" smooth="yes"/>
      <point x="535" y="419"/>
      <point x="426" y="516"/>
      <point x="283" y="516" type="curve" smooth="yes"/>
    </contour>
    <contour>
      <point x="362" y="448"/>
      <point x="387" y="333"/>
      <point x="387" y="234" type="curve" smooth="yes"/>
      <point x="387" y="149"/>
      <point x="369" y="56"/>
      <point x="290" y="55" type="curve" smooth="yes"/>
      <point x="208" y="53"/>
      <point x="178" y="164"/>
      <point x="178" y="266" type="curve" smooth="yes"/>
      <point x="178" y="353"/>
      <point x="203" y="444"/>
      <point x="281" y="446" type="curve" smooth="yes"/>
    </contour>
    <contour>
      <point x="283" y="500" type="move" name="top"/>
    </contour>
  </outline>
</glyph>
<glyph name="s" format="1">
  <advance width="485"/>
  <unicode hex="0073"/>
  <outline>
    <contour>
      <point x="96" y="516"/>
      <point x="39" y="432"/>
      <point x="39" y="355" type="curve" smooth="yes"/>
      <point x="39" y="247"/>
      <point x="135" y="217"/>
      <point x="218" y="185" type="curve" smooth="yes"/>
      <point x="293" y="156"/>
      <point x="333" y="144"/>
      <point x="334" y="106" type="curve" smooth="yes"/>
      <point x="334" y="71"/>
      <point x="298" y="56"/>
      <point x="265" y="56" type="curve" smooth="yes"/>
      <point x="180" y="56"/>
      <point x="116" y="104"/>
      <point x="110" y="165" type="curve"/>
      <point x="45" y="165" type="line"/>
      <point x="49" y="-7" type="line"/>
      <point x="125" y="-7" type="line"/>
      <point x="122" y="23" type="line"/>
      <point x="123" y="23" type="line"/>
      <point x="154" y="0"/>
      <point x="213" y="-16"/>
      <point x="271" y="-16" type="curve" smooth="yes"/>
      <point x="364" y="-16"/>
      <point x="453" y="34"/>
      <point x="453" y="138" type="curve" smooth="yes"/>
      <point x="453" y="232"/>
      <point x="378" y="278"/>
      <point x="277" y="313" type="curve" smooth="yes"/>
      <point x="208" y="336"/>
      <point x="155" y="346"/>
      <point x="155" y="393" type="curve" smooth="yes"/>
      <point x="155" y="431"/>
      <point x="187" y="446"/>
      <point x="221" y="446" type="curve" smooth="yes"/>
      <point x="293" y="446"/>
      <point x="346" y="403"/>
      <point x="358" y="334" type="curve"/>
      <point x="423" y="334" type="line"/>
      <point x="423" y="511" type="line"/>
      <point x="347" y="511" type="line"/>
      <point x="348" y="482" type="line"/>
      <point x="347" y="482" type="line"/>
      <point x="315" y="505"/>
      <point x="263" y="516"/>
      <point x="227" y="516" type="curve" smooth="yes"/>
    </contour>
    <contour>
      <point x="235" y="500" type="move" name="top"/>
    </contour>
    <contour>
      <point x="250" y="0" type="move" name="bottom"/>
    </contour>
  </outline>
</glyph>
<glyph name="v" format="1">
  <advance width="538"/>
  <unicode hex="0076"/>
  <outline>
    <contour>
      <point x="345" y="500" type="line"/>
      <point x="345" y="424" type="line"/>
      <point x="407" y="428" type="line"/>
      <point x="407" y="427" type="line"/>
      <point x="395" y="407"/>
      <point x="386" y="390"/>
      <point x="374" y="357" type="curve" smooth="yes"/>
      <point x="301" y="151" type="line"/>
      <point x="300" y="151" type="line"/>
      <point x="216" y="358" type="line" smooth="yes"/>
      <point x="202" y="398"/>
      <point x="198" y="434"/>
      <point x="240" y="436" type="curve"/>
      <point x="240" y="500" type="line"/>
      <point x="6" y="500" type="line"/>
      <point x="6" y="424" type="line"/>
      <point x="43" y="426" type="line"/>
      <point x="48" y="402"/>
      <point x="47" y="393"/>
      <point x="69" y="344" type="curve" smooth="yes"/>
      <point x="227" y="-3" type="line"/>
      <point x="314" y="-3" type="line"/>
      <point x="442" y="316" type="line" smooth="yes"/>
      <point x="458" y="356"/>
      <point x="488" y="428"/>
      <point x="535" y="436" type="curve"/>
      <point x="535" y="500" type="line"/>
    </contour>
  </outline>
</glyph>
<glyph name="x" format="1">
  <advance width="548"/>
  <unicode hex="0078"/>
  <outline>
    <contour>
      <point x="324" y="500" type="line"/>
      <point x="324" y="424" type="line"/>
      <point x="373" y="428" type="line"/>
      <point x="373" y="427" type="line"/>
      <point x="355" y="411"/>
      <point x="340" y="392"/>
      <point x="324" y="373" type="curve" smooth="yes"/>
      <point x="286" y="327" type="line"/>
      <point x="285" y="327" type="line"/>
      <point x="239" y="381" type="line" smooth="yes"/>
      <point x="215" y="409"/>
      <point x="205" y="434"/>
      <point x="242" y="436" type="curve"/>
      <point x="242" y="500" type="line"/>
      <point x="21" y="500" type="line"/>
      <point x="21" y="424" type="line"/>
      <point x="48" y="426" type="line"/>
      <point x="57" y="402"/>
      <point x="89" y="364"/>
      <point x="105" y="344" type="curve" smooth="yes"/>
      <point x="203" y="229" type="line"/>
      <point x="116" y="129" type="line" smooth="yes"/>
      <point x="89" y="98"/>
      <point x="67" y="75"/>
      <point x="40" y="64" type="curve"/>
      <point x="40" y="0" type="line"/>
      <point x="206" y="0" type="line"/>
      <point x="206" y="76" type="line"/>
      <point x="160" y="72" type="line"/>
      <point x="160" y="73" type="line"/>
      <point x="172" y="81"/>
      <point x="198" y="111"/>
      <point x="205" y="120" type="curve" smooth="yes"/>
      <point x="251" y="176" type="line"/>
      <point x="252" y="176" type="line"/>
      <point x="312" y="113" type="line" smooth="yes"/>
      <point x="336" y="86"/>
      <point x="337" y="66"/>
      <point x="295" y="64" type="curve"/>
      <point x="295" y="0" type="line"/>
      <point x="531" y="0" type="line"/>
      <point x="531" y="76" type="line"/>
      <point x="497" y="74" type="line"/>
      <point x="484" y="98"/>
      <point x="467" y="118"/>
      <point x="449" y="139" type="curve" smooth="yes"/>
      <point x="333" y="274" type="line"/>
      <point x="400" y="356" type="line" smooth="yes"/>
      <point x="429" y="393"/>
      <point x="460" y="419"/>
      <point x="500" y="436" type="curve"/>
      <point x="500" y="500" type="line"/>
    </contour>
  </outline>
</glyph>
<glyph name="currency" format="1">
  <advance width="566"/>
  <unicode hex="00A4"/>
  <outline>
    <contour>
      <point x="63" y="430" type="line"/>
      <point x="123" y="361" type="line"/>
      <point x="104" y="328"/>
      <point x="93" y="291"/>
      <point x="93" y="254" type="curve" smooth="yes"/>
      <point x="93" y="217"/>
      <point x="103" y="181"/>
      <point x="120" y="151" type="curve"/>
      <point x="63" y="85" type="line"/>
      <point x="135" y="27" type="line"/>
      <point x="183" y="87" type="line"/>
      <point x="210" y="71"/>
      <point x="244" y="62"/>
      <point x="283" y="62" type="curve" smooth="yes"/>
      <point x="322" y="62"/>
      <point x="356" y="71"/>
      <point x="384" y="87" type="curve"/>
      <point x="432" y="27" type="line"/>
      <point x="504" y="85" type="line"/>
      <point x="446" y="151" type="line"/>
      <point x="464" y="181"/>
      <point x="473" y="217"/>
      <point x="473" y="254" type="curve" smooth="yes"/>
      <point x="473" y="291"/>
      <point x="463" y="328"/>
      <point x="443" y="361" type="curve"/>
      <point x="504" y="430" type="line"/>
      <point x="432" y="487" type="line"/>
      <point x="382" y="425" type="line"/>
      <point x="354" y="442"/>
      <point x="321" y="453"/>
      <point x="283" y="453" type="curve" smooth="yes"/>
      <point x="245" y="453"/>
      <point x="212" y="442"/>
      <point x="185" y="425" type="curve"/>
      <point x="135" y="488" type="line"/>
    </contour>
    <contour>
      <point x="335" y="379"/>
      <point x="352" y="307"/>
      <point x="352" y="269" type="curve" smooth="yes"/>
      <point x="352" y="219"/>
      <point x="337" y="138"/>
      <point x="283" y="138" type="curve" smooth="yes"/>
      <point x="229" y="138"/>
      <point x="215" y="219"/>
      <point x="215" y="269" type="curve" smooth="yes"/>
      <point x="215" y="307"/>
      <point x="231" y="379"/>
      <point x="283" y="379" type="curve" smooth="yes"/>
    </contour>
  </outline>
</glyph>
<glyph name="dieresis" format="1">
  <advance width="427"/>
  <unicode hex="00A8"/>
  <outline>
    <contour>
      <point x="265" y="751"/>
      <point x="234" y="716"/>
      <point x="234" y="675" type="curve" smooth="yes"/>
      <point x="234" y="633"/>
      <point x="264" y="600"/>
      <point x="300" y="600" type="curve" smooth="yes"/>
      <point x="336" y="600"/>
      <point x="367" y="633"/>
      <point x="367" y="675" type="curve" smooth="yes"/>
      <point x="367" y="716"/>
      <point x="339" y="751"/>
      <point x="301" y="751" type="curve" smooth="yes"/>
    </contour>
    <contour>
      <point x="91" y="751"/>
      <point x="60" y="716"/>
      <point x="60" y="675" type="curve" smooth="yes"/>
      <point x="60" y="633"/>
      <point x="90" y="600"/>
      <point x="126" y="600" type="curve" smooth="yes"/>
      <point x="162" y="600"/>
      <point x="193" y="633"/>
      <point x="193" y="675" type="curve" smooth="yes"/>
      <point x="193" y="716"/>
      <point x="165" y="751"/>
      <point x="127" y="751" type="curve" smooth="yes"/>
    </contour>
    <contour>
      <point x="213" y="500" type="move" name="_top"/>
    </contour>
  </outline>
</glyph>
<glyph name="logicalnot" format="1">
  <advance width="581"/>
  <unicode hex="00AC"/>
  <outline>
    <contour>
      <point x="63" y="264" type="line"/>
      <point x="422" y="266" type="line"/>
      <point x="425" y="149" type="line"/>
      <point x="513" y="149" type="line"/>
      <point x="513" y="359" type="line"/>
      <point x="63" y="362" type="line"/>
    </contour>
  </outline>
</glyph>
<glyph name="plusminus" format="1">
  <advance width="556"/>
  <unicode hex="00B1"/>
  <outline>
    <contour>
      <point x="228" y="515" type="line"/>
      <point x="228" y="370" type="line"/>
      <point x="53" y="371" type="line"/>
      <point x="53" y="275" type="line"/>
      <point x="104" y="275"/>
      <point x="173" y="276"/>
      <point x="228" y="276" type="curve"/>
      <point x="228" y="124" type="line"/>
      <point x="328" y="124" type="line"/>
      <point x="328" y="276" type="line"/>
      <point x="503" y="277" type="line"/>
      <point x="503" y="370" type="line"/>
      <point x="451" y="370"/>
      <point x="383" y="370"/>
      <point x="328" y="370" type="curve"/>
      <point x="328" y="515" type="line"/>
    </contour>
    <contour>
      <point x="53" y="88" type="line"/>
      <point x="53" y="0" type="line"/>
      <point x="503" y="0" type="line"/>
      <point x="503" y="92" type="line"/>
    </contour>
  </outline>
</glyph>
<glyph name="onesuperior" format="1">
  <advance width="278"/>
  <unicode hex="00B9"/>
  <outline>
    <contour>
      <point x="167" y="716" type="line"/>
      <point x="21" y="621" type="line"/>
      <point x="41" y="582" type="line"/>
      <point x="104" y="619" type="line"/>
      <point x="104" y="389" type="line" smooth="yes"/>
      <point x="104" y="343"/>
      <point x="90" y="340"/>
      <point x="64" y="339" type="curve"/>
      <point x="64" y="301" type="line"/>
      <point x="243" y="301" type="line"/>
      <point x="243" y="345" type="line"/>
      <point x="234" y="345"/>
      <point x="212" y="345"/>
      <point x="200" y="344" type="curve"/>
      <point x="201" y="354"/>
      <point x="202" y="375"/>
      <point x="202" y="395" type="curve" smooth="yes"/>
      <point x="202" y="716" type="line"/>
    </contour>
  </outline>
</glyph>
<glyph name="Ccedilla" format="1">
  <advance width="691"/>
  <unicode hex="00C7"/>
  <outline>
    <contour>
      <point x="152" y="716"/>
      <point x="36" y="522"/>
      <point x="36" y="340" type="curve" smooth="yes"/>
      <point x="36" y="169"/>
      <point x="136" y="29"/>
      <point x="294" y="-7" type="curve"/>
      <point x="268" y="-121" type="line"/>
      <point x="309" y="-136" type="line"/>
      <point x="329" y="-120"/>
      <point x="376" y="-109"/>
      <point x="376" y="-146" type="curve" smooth="yes"/>
      <point x="376" y="-187"/>
      <point x="289" y="-214"/>
      <point x="257" y="-220" type="curve"/>
      <point x="265" y="-275" type="line"/>
      <point x="342" y="-264"/>
      <point x="495" y="-219"/>
      <point x="495" y="-125" type="curve" smooth="yes"/>
      <point x="495" y="-78"/>
      <point x="460" y="-53"/>
      <point x="419" y="-52" type="curve" smooth="yes"/>
      <point x="401" y="-51"/>
      <point x="367" y="-59"/>
      <point x="351" y="-67" type="curve"/>
      <point x="350" y="-67" type="line"/>
      <point x="369" y="-16" type="line"/>
      <point x="372" y="-16"/>
      <point x="375" y="-16"/>
      <point x="378" y="-16" type="curve" smooth="yes"/>
      <point x="461" y="-16"/>
      <point x="582" y="9"/>
      <point x="679" y="144" type="curve"/>
      <point x="631" y="188" type="line"/>
      <point x="576" y="111"/>
      <point x="486" y="65"/>
      <point x="403" y="65" type="curve" smooth="yes"/>
      <point x="268" y="65"/>
      <point x="193" y="188"/>
      <point x="193" y="360" type="curve" smooth="yes"/>
      <point x="193" y="504"/>
      <point x="259" y="644"/>
      <point x="398" y="644" type="curve" smooth="yes"/>
      <point x="492" y="643"/>
      <point x="548" y="587"/>
      <point x="566" y="476" type="curve"/>
      <point x="632" y="476" type="line"/>
      <point x="632" y="709" type="line"/>
      <point x="555" y="709" type="line"/>
      <point x="558" y="667" type="line"/>
      <point x="557" y="667" type="line"/>
      <point x="504" y="699"/>
      <point x="438" y="716"/>
      <point x="385" y="716" type="curve" smooth="yes"/>
    </contour>
  </outline>
</glyph>
<glyph name="Thorn" format="1">
  <advance width="633"/>
  <unicode hex="00DE"/>
  <outline>
    <contour>
      <point x="50" y="700" type="line"/>
      <point x="50" y="623" type="line"/>
      <point x="64" y="624"/>
      <point x="104" y="625"/>
      <point x="125" y="626" type="curve"/>
      <point x="123" y="609"/>
      <point x="121" y="572"/>
      <point x="121" y="536" type="curve" smooth="yes"/>
      <point x="121" y="153" type="line" smooth="yes"/>
      <point x="121" y="72"/>
      <point x="95" y="68"/>
      <point x="50" y="66" type="curve"/>
      <point x="50" y="0" type="line"/>
      <point x="337" y="0" type="line"/>
      <point x="337" y="77" type="line"/>
      <point x="323" y="77"/>
      <point x="283" y="76"/>
      <point x="262" y="74" type="curve"/>
      <point x="264" y="89"/>
      <point x="265" y="119"/>
      <point x="266" y="151" type="curve"/>
      <point x="286" y="150"/>
      <point x="303" y="151"/>
      <point x="331" y="152" type="curve" smooth="yes"/>
      <point x="520" y="157"/>
      <point x="614" y="252"/>
      <point x="617" y="359" type="curve" smooth="yes"/>
      <point x="621" y="518"/>
      <point x="502" y="573"/>
      <point x="327" y="571" type="curve" smooth="yes"/>
      <point x="267" y="570" type="line"/>
      <point x="271" y="628"/>
      <point x="297" y="632"/>
      <point x="337" y="634" type="curve"/>
      <point x="337" y="700" type="line"/>
    </contour>
    <contour>
      <point x="367" y="500"/>
      <point x="462" y="497"/>
      <point x="462" y="368" type="curve" smooth="yes"/>
      <point x="462" y="271"/>
      <point x="413" y="223"/>
      <point x="303" y="223" type="curve" smooth="yes"/>
      <point x="290" y="223"/>
      <point x="277" y="224"/>
      <point x="266" y="225" type="curve"/>
      <point x="266" y="500" type="line"/>
      <point x="282" y="500"/>
      <point x="301" y="500"/>
      <point x="325" y="500" type="curve" smooth="yes"/>
    </contour>
  </outline>
</glyph>
<glyph name="ae" format="1">
  <advance width="770"/>
  <unicode hex="00E6"/>
  <outline>
    <contour>
      <point x="472" y="516"/>
      <point x="428" y="493"/>
      <point x="391" y="432" type="curve"/>
      <point x="390" y="432" type="line"/>
      <point x="373" y="494"/>
      <point x="323" y="516"/>
      <point x="255" y="516" type="curve" smooth="yes"/>
      <point x="138" y="516"/>
      <point x="51" y="458"/>
      <point x="51" y="384" type="curve" smooth="yes"/>
      <point x="51" y="348"/>
      <point x="74" y="317"/>
      <point x="113" y="316" type="curve" smooth="yes"/>
      <point x="160" y="315"/>
      <point x="181" y="351"/>
      <point x="181" y="378" type="curve" smooth="yes"/>
      <point x="181" y="388"/>
      <point x="179" y="407"/>
      <point x="168" y="418" type="curve"/>
      <point x="185" y="436"/>
      <point x="213" y="444"/>
      <point x="240" y="445" type="curve" smooth="yes"/>
      <point x="290" y="447"/>
      <point x="309" y="407"/>
      <point x="309" y="355" type="curve" smooth="yes"/>
      <point x="309" y="301" type="line"/>
      <point x="175" y="295"/>
      <point x="29" y="244"/>
      <point x="29" y="117" type="curve" smooth="yes"/>
      <point x="29" y="41"/>
      <point x="82" y="-16"/>
      <point x="167" y="-16" type="curve" smooth="yes"/>
      <point x="233" y="-16"/>
      <point x="309" y="-2"/>
      <point x="370" y="68" type="curve"/>
      <point x="404" y="23"/>
      <point x="456" y="-16"/>
      <point x="531" y="-16" type="curve" smooth="yes"/>
      <point x="599" y="-16"/>
      <point x="679" y="3"/>
      <point x="750" y="106" type="curve"/>
      <point x="706" y="148" type="line"/>
      <point x="660" y="92"/>
      <point x="609" y="73"/>
      <point x="568" y="73" type="curve" smooth="yes"/>
      <point x="471" y="73"/>
      <point x="447" y="154"/>
      <point x="447" y="263" type="curve"/>
      <point x="730" y="269" type="line"/>
      <point x="732" y="452"/>
      <point x="637" y="515"/>
      <point x="549" y="516" type="curve" smooth="yes"/>
    </contour>
    <contour>
      <point x="309" y="194"/>
      <point x="310" y="158"/>
      <point x="313" y="120" type="curve"/>
      <point x="292" y="97"/>
      <point x="262" y="82"/>
      <point x="231" y="82" type="curve" smooth="yes"/>
      <point x="203" y="82"/>
      <point x="172" y="97"/>
      <point x="171" y="134" type="curve" smooth="yes"/>
      <point x="169" y="191"/>
      <point x="234" y="223"/>
      <point x="309" y="230" type="curve"/>
    </contour>
    <contour>
      <point x="564" y="445"/>
      <point x="596" y="416"/>
      <point x="598" y="333" type="curve"/>
      <point x="453" y="333" type="line"/>
      <point x="458" y="393"/>
      <point x="478" y="445"/>
      <point x="532" y="445" type="curve" smooth="yes"/>
    </contour>
  </outline>
</glyph>
<glyph name="caron" format="1">
  <advance width="424"/>
  <unicode hex="02C7"/>
  <outline>
    <contour>
      <point x="202" y="672" type="line"/>
      <point x="201" y="672" type="line"/>
      <point x="72" y="777" type="line"/>
      <point x="29" y="726" type="line"/>
      <point x="191" y="557" type="line"/>
      <point x="202" y="557" type="line"/>
      <point x="365" y="729" type="line"/>
      <point x="323" y="777" type="line"/>
    </contour>
    <contour>
      <point x="198" y="500" type="move" name="_top"/>
    </contour>
  </outline>
</glyph>
<glyph name="aadeva" format="1">
  <advance width="1088"/>
  <unicode hex="0906"/>
  <outline>
    <component base="adeva"/>
    <component base="uni093E" xOffset="707"/>
    <contour>
      <point x="901" y="580" type="move" name="top"/>
    </contour>
    <contour>
      <point x="544" y="0" type="move" name="bottom"/>
    </contour>
  </outline>
</glyph>
<glyph name="iideva" format="1">
  <advance width="621"/>
  <unicode hex="0908"/>
  <note>
    dIi
  </note>
  <outline>
    <component base="ideva"/>
    <component base="uni0930094D" xOffset="235" yOffset="25"/>
    <contour>
      <point x="425" y="579" type="move" name="top"/>
    </contour>
  </outline>
</glyph>
<glyph name="udeva" format="1">
  <advance width="551"/>
  <unicode hex="0909"/>
  <outline>
    <contour>
      <point x="314" y="552" type="line"/>
      <point x="347" y="517"/>
      <point x="365" y="485"/>
      <point x="365" y="456" type="curve" smooth="yes"/>
      <point x="365" y="408"/>
      <point x="324" y="361"/>
      <point x="189" y="351" type="curve"/>
      <point x="213" y="256" type="line"/>
      <point x="353" y="264"/>
      <point x="441" y="343"/>
      <point x="441" y="422" type="curve" smooth="yes"/>
      <point x="441" y="474"/>
      <point x="421" y="522"/>
      <point x="373" y="570" type="curve"/>
    </contour>
    <contour>
      <point x="122" y="66"/>
      <point x="227" y="-8"/>
      <point x="333" y="-8" type="curve" smooth="yes"/>
      <point x="451" y="-8"/>
      <point x="513" y="65"/>
      <point x="513" y="149" type="curve" smooth="yes"/>
      <point x="513" y="227"/>
      <point x="460" y="315"/>
      <point x="344" y="365" type="curve"/>
      <point x="304" y="316" type="line"/>
      <point x="369" y="277"/>
      <point x="397" y="228"/>
      <point x="397" y="186" type="curve" smooth="yes"/>
      <point x="397" y="138"/>
      <point x="359" y="100"/>
      <point x="298" y="100" type="curve" smooth="yes"/>
      <point x="225" y="100"/>
      <point x="166" y="143"/>
      <point x="110" y="248" type="curve"/>
      <point x="50" y="219" type="line"/>
    </contour>
    <contour>
      <point x="536" y="502" type="line"/>
      <point x="514" y="580" type="line"/>
      <point x="15" y="580" type="line"/>
      <point x="38" y="502" type="line"/>
    </contour>
    <contour>
      <point x="341" y="580" type="move" name="top"/>
    </contour>
  </outline>
</glyph>
<glyph name="rvocalicdeva" format="1">
  <advance width="893"/>
  <unicode hex="090B"/>
  <outline>
    <contour>
      <point x="612" y="195"/>
      <point x="763" y="250"/>
      <point x="763" y="361" type="curve" smooth="yes"/>
      <point x="763" y="398"/>
      <point x="731" y="444"/>
      <point x="676" y="444" type="curve" smooth="yes"/>
      <point x="634" y="444"/>
      <point x="602" y="417"/>
      <point x="602" y="377" type="curve" smooth="yes"/>
      <point x="602" y="353"/>
      <point x="609" y="329"/>
      <point x="630" y="301" type="curve"/>
      <point x="585" y="276"/>
      <point x="529" y="263"/>
      <point x="463" y="265" type="curve"/>
      <point x="463" y="200" type="line"/>
    </contour>
    <contour>
      <point x="645" y="-22" type="line"/>
      <point x="810" y="8"/>
      <point x="839" y="126"/>
      <point x="688" y="324" type="curve"/>
      <point x="638" y="285" type="line"/>
      <point x="730" y="169"/>
      <point x="721" y="100"/>
      <point x="606" y="78" type="curve"/>
    </contour>
    <contour>
      <point x="385" y="0" type="line"/>
      <point x="515" y="0" type="line"/>
      <point x="515" y="502" type="line"/>
      <point x="859" y="502" type="line"/>
      <point x="837" y="580" type="line"/>
      <point x="15" y="580" type="line"/>
      <point x="38" y="502" type="line"/>
      <point x="385" y="502" type="line"/>
    </contour>
    <contour>
      <point x="101" y="53" type="line"/>
      <point x="162" y="-39" type="line"/>
      <point x="440.428" y="167.55" type="line"/>
      <point x="434.719" y="286.013" type="line"/>
    </contour>
    <contour>
      <point x="350" y="395"/>
      <point x="267" y="446"/>
      <point x="177" y="446" type="curve" smooth="yes"/>
      <point x="131" y="446"/>
      <point x="86" y="430"/>
      <point x="44" y="402" type="curve"/>
      <point x="100" y="304" type="line"/>
      <point x="128" y="321"/>
      <point x="161" y="332"/>
      <point x="202" y="332" type="curve" smooth="yes"/>
      <point x="264" y="332"/>
      <point x="339" y="305"/>
      <point x="428" y="236" type="curve"/>
      <point x="470" y="294" type="line"/>
    </contour>
  </outline>
</glyph>
<glyph name="lvocalicdeva" format="1">
  <advance width="785"/>
  <unicode hex="090C"/>
  <note>
    dVocalicL
  </note>
  <outline>
    <contour>
      <point x="436" y="360" type="line"/>
      <point x="566" y="360" type="line"/>
      <point x="566" y="502" type="line"/>
      <point x="768" y="502" type="line"/>
      <point x="746" y="580" type="line"/>
      <point x="16" y="580" type="line"/>
      <point x="39" y="502" type="line"/>
      <point x="436" y="502" type="line"/>
    </contour>
    <contour>
      <point x="341" y="381"/>
      <point x="288" y="433"/>
      <point x="201" y="433" type="curve" smooth="yes"/>
      <point x="90" y="433"/>
      <point x="51" y="346"/>
      <point x="51" y="272" type="curve" smooth="yes"/>
      <point x="51" y="157"/>
      <point x="147" y="53"/>
      <point x="281" y="23" type="curve"/>
      <point x="312" y="72" type="line"/>
      <point x="218" y="116"/>
      <point x="182" y="175"/>
      <point x="181" y="245" type="curve" smooth="yes"/>
      <point x="181" y="309"/>
      <point x="212" y="345"/>
      <point x="256" y="345" type="curve" smooth="yes"/>
      <point x="289" y="345"/>
      <point x="322" y="324"/>
      <point x="354" y="286" type="curve"/>
      <point x="390" y="320" type="line"/>
    </contour>
    <contour>
      <point x="550" y="350"/>
      <point x="568" y="274"/>
      <point x="508" y="184" type="curve" smooth="yes"/>
      <point x="449" y="96"/>
      <point x="457" y="1"/>
      <point x="518" y="-46" type="curve" smooth="yes"/>
      <point x="576" y="-91"/>
      <point x="689" y="-102"/>
      <point x="769" y="-2" type="curve"/>
      <point x="694" y="71" type="line"/>
      <point x="642" y="-6"/>
      <point x="605" y="-26"/>
      <point x="583" y="-7" type="curve" smooth="yes"/>
      <point x="564" y="10"/>
      <point x="575" y="41"/>
      <point x="626" y="117" type="curve" smooth="yes"/>
      <point x="706" y="236"/>
      <point x="674" y="424"/>
      <point x="490" y="424" type="curve" smooth="yes"/>
      <point x="369" y="424"/>
      <point x="300" y="337"/>
      <point x="285" y="239" type="curve"/>
      <point x="384" y="204" type="line"/>
      <point x="404" y="305"/>
      <point x="439" y="350"/>
      <point x="487" y="350" type="curve" smooth="yes"/>
    </contour>
    <contour>
      <point x="503" y="580" type="move" name="top"/>
    </contour>
  </outline>
</glyph>
<glyph name="edeva" format="1">
  <advance width="685"/>
  <unicode hex="090F"/>
  <note>
    dE
  </note>
  <outline>
    <contour>
      <point x="670" y="502" type="line"/>
      <point x="648" y="580" type="line"/>
      <point x="15" y="580" type="line"/>
      <point x="38" y="502" type="line"/>
    </contour>
    <contour>
      <point x="450" y="288" type="line" smooth="yes"/>
      <point x="450" y="239"/>
      <point x="445" y="218"/>
      <point x="417" y="194" type="curve"/>
      <point x="475" y="131" type="line"/>
      <point x="537" y="156"/>
      <point x="580" y="206"/>
      <point x="580" y="278" type="curve" smooth="yes"/>
      <point x="580" y="527" type="line"/>
      <point x="450" y="527" type="line"/>
    </contour>
    <contour>
      <point x="118" y="298" type="line" smooth="yes"/>
      <point x="118" y="232"/>
      <point x="138" y="195"/>
      <point x="208" y="148" type="curve" smooth="yes"/>
      <point x="380" y="33" type="line" smooth="yes"/>
      <point x="415" y="10"/>
      <point x="399" y="-29"/>
      <point x="354" y="-85" type="curve"/>
      <point x="461" y="-165" type="line"/>
      <point x="546" y="-71"/>
      <point x="567" y="5"/>
      <point x="495" y="52" type="curve" smooth="yes"/>
      <point x="292" y="186" type="line" smooth="yes"/>
      <point x="261" y="207"/>
      <point x="248" y="219"/>
      <point x="248" y="276" type="curve" smooth="yes"/>
      <point x="248" y="513" type="line"/>
      <point x="118" y="547" type="line"/>
    </contour>
    <contour>
      <point x="518" y="580" type="move" name="top"/>
    </contour>
    <contour>
      <point x="534" y="0" type="move" name="bottom"/>
    </contour>
  </outline>
</glyph>
<glyph name="kadeva" format="1">
  <advance width="841"/>
  <unicode hex="0915"/>
  <note>
    dKa
  </note>
  <outline>
    <contour>
      <point x="15" y="580" type="line"/>
      <point x="38" y="502" type="line"/>
      <point x="383" y="502" type="line"/>
      <point x="383" y="0" type="line"/>
      <point x="512" y="0" type="line"/>
      <point x="512" y="502" type="line"/>
      <point x="826" y="502" type="line"/>
      <point x="804" y="580" type="line"/>
    </contour>
    <contour>
      <point x="131" y="436"/>
      <point x="58" y="378"/>
      <point x="58" y="269" type="curve" smooth="yes"/>
      <point x="58" y="148"/>
      <point x="148" y="55"/>
      <point x="256" y="55" type="curve" smooth="yes"/>
      <point x="317" y="55"/>
      <point x="383" y="88"/>
      <point x="456" y="153" type="curve"/>
      <point x="456" y="249" type="line"/>
      <point x="394" y="191"/>
      <point x="326" y="151"/>
      <point x="255" y="149" type="curve" smooth="yes"/>
      <point x="199" y="147"/>
      <point x="158" y="169"/>
      <point x="158" y="223" type="curve" smooth="yes"/>
      <point x="158" y="292"/>
      <point x="211" y="336"/>
      <point x="282" y="336" type="curve" smooth="yes"/>
      <point x="338" y="336"/>
      <point x="371" y="315"/>
      <point x="433" y="272" type="curve"/>
      <point x="436" y="340" type="line"/>
      <point x="386" y="397"/>
      <point x="311" y="436"/>
      <point x="231" y="436" type="curve" smooth="yes"/>
    </contour>
    <contour>
      <point x="813" y="366"/>
      <point x="723" y="434"/>
      <point x="631" y="434" type="curve" smooth="yes"/>
      <point x="575" y="434"/>
      <point x="514" y="408"/>
      <point x="464" y="355" type="curve"/>
      <point x="478" y="249" type="line"/>
      <point x="524" y="312"/>
      <point x="590" y="340"/>
      <point x="648" y="340" type="curve" smooth="yes"/>
      <point x="703" y="340"/>
      <point x="730" y="310"/>
      <point x="730" y="272" type="curve" smooth="yes"/>
      <point x="730" y="224"/>
      <point x="686" y="164"/>
      <point x="606" y="143" type="curve"/>
      <point x="649" y="34" type="line"/>
      <point x="761" y="78"/>
      <point x="813" y="176"/>
      <point x="813" y="253" type="curve" smooth="yes"/>
    </contour>
    <contour>
      <point x="128" y="-20" type="move" name="nukta"/>
    </contour>
    <contour>
      <point x="444" y="0" type="move" name="bottom"/>
    </contour>
    <contour>
      <point x="444" y="580" type="move" name="top"/>
    </contour>
  </outline>
</glyph>
<glyph name="khadeva" format="1">
  <advance width="841"/>
  <unicode hex="0916"/>
  <note>
    dKha
  </note>
  <outline>
    <contour>
      <point x="148" y="523" type="line"/>
      <point x="184" y="443"/>
      <point x="194" y="371"/>
      <point x="163" y="319" type="curve"/>
      <point x="145" y="330"/>
      <point x="129" y="338"/>
      <point x="106" y="338" type="curve" smooth="yes"/>
      <point x="70" y="338"/>
      <point x="29" y="318"/>
      <point x="29" y="256" type="curve" smooth="yes"/>
      <point x="29" y="149"/>
      <point x="154" y="5"/>
      <point x="359" y="5" type="curve" smooth="yes"/>
      <point x="447" y="5"/>
      <point x="542" y="29"/>
      <point x="639" y="86" type="curve"/>
      <point x="619" y="172" type="line"/>
      <point x="459" y="75"/>
      <point x="242" y="39"/>
      <point x="132" y="195" type="curve"/>
      <point x="262" y="241"/>
      <point x="276" y="384"/>
      <point x="230" y="523" type="curve"/>
    </contour>
    <contour>
      <point x="509" y="469"/>
      <point x="440" y="469" type="curve" smooth="yes"/>
      <point x="343" y="469"/>
      <point x="285" y="404"/>
      <point x="285" y="321" type="curve" smooth="yes"/>
      <point x="285" y="189"/>
      <point x="435" y="115"/>
      <point x="602" y="187" type="curve"/>
      <point x="612" y="287" type="line"/>
      <point x="574" y="263"/>
      <point x="518" y="234"/>
      <point x="461" y="234" type="curve" smooth="yes"/>
      <point x="416" y="234"/>
      <point x="389" y="259"/>
      <point x="390" y="299" type="curve" smooth="yes"/>
      <point x="391" y="354"/>
      <point x="429" y="379"/>
      <point x="465" y="379" type="curve" smooth="yes"/>
      <point x="512" y="379"/>
      <point x="564" y="354"/>
      <point x="613" y="311" type="curve"/>
      <point x="613" y="379" type="line"/>
      <point x="575" y="431"/>
    </contour>
    <contour>
      <point x="575" y="0" type="line"/>
      <point x="705" y="0" type="line"/>
      <point x="705" y="502" type="line"/>
      <point x="826" y="502" type="line"/>
      <point x="804" y="580" type="line"/>
      <point x="15" y="580" type="line"/>
      <point x="38" y="502" type="line"/>
      <point x="575" y="502" type="line"/>
    </contour>
    <contour>
      <point x="87" y="-19" type="move" name="nukta"/>
    </contour>
    <contour>
      <point x="640" y="0" type="move" name="bottom"/>
    </contour>
    <contour>
      <point x="640" y="580" type="move" name="top"/>
    </contour>
  </outline>
</glyph>
<glyph name="gadeva" format="1">
  <advance width="651"/>
  <unicode hex="0917"/>
  <note>
    dGa
  </note>
  <outline>
    <contour>
      <point x="382" y="0" type="line"/>
      <point x="512" y="0" type="line"/>
      <point x="512" y="502" type="line"/>
      <point x="636" y="502" type="line"/>
      <point x="614" y="580" type="line"/>
      <point x="15" y="580" type="line"/>
      <point x="38" y="502" type="line"/>
      <point x="382" y="502" type="line"/>
    </contour>
    <contour>
      <point x="136" y="530" type="line"/>
      <point x="157" y="454"/>
      <point x="165" y="378"/>
      <point x="159" y="303" type="curve"/>
      <point x="97" y="309"/>
      <point x="60" y="289"/>
      <point x="60" y="247" type="curve" smooth="yes"/>
      <point x="60" y="190"/>
      <point x="133" y="146"/>
      <point x="184" y="146" type="curve" smooth="yes"/>
      <point x="290" y="146"/>
      <point x="294" y="272"/>
      <point x="249" y="530" type="curve"/>
    </contour>
    <contour>
      <point x="174" y="0" type="move" name="nukta"/>
    </contour>
    <contour>
      <point x="451" y="0" type="move" name="bottom"/>
    </contour>
    <contour>
      <point x="451" y="580" type="move" name="top"/>
    </contour>
  </outline>
</glyph>
<glyph name="ghadeva" format="1">
  <advance width="691"/>
  <unicode hex="0918"/>
  <note>
    dGha
  </note>
  <outline>
    <contour>
      <point x="317" y="391" type="line"/>
      <point x="194" y="384"/>
      <point x="130" y="317"/>
      <point x="130" y="236" type="curve" smooth="yes"/>
      <point x="130" y="142"/>
      <point x="209" y="53"/>
      <point x="342" y="53" type="curve" smooth="yes"/>
      <point x="428" y="53"/>
      <point x="506" y="93"/>
      <point x="550" y="167" type="curve"/>
      <point x="485" y="266" type="line"/>
      <point x="454" y="171"/>
      <point x="363" y="127"/>
      <point x="301" y="127" type="curve" smooth="yes"/>
      <point x="253" y="127"/>
      <point x="216" y="150"/>
      <point x="216" y="206" type="curve" smooth="yes"/>
      <point x="216" y="268"/>
      <point x="266" y="297"/>
      <point x="343" y="306" type="curve"/>
    </contour>
    <contour>
      <point x="154" y="573"/>
      <point x="93" y="507"/>
      <point x="93" y="437" type="curve" smooth="yes"/>
      <point x="93" y="380"/>
      <point x="133" y="320"/>
      <point x="202" y="279" type="curve"/>
      <point x="244" y="323" type="line"/>
      <point x="206" y="348"/>
      <point x="188" y="380"/>
      <point x="188" y="410" type="curve" smooth="yes"/>
      <point x="188" y="459"/>
      <point x="237" y="502"/>
      <point x="333" y="502" type="curve"/>
      <point x="262" y="571" type="line"/>
    </contour>
    <contour>
      <point x="442" y="0" type="line"/>
      <point x="572" y="0" type="line"/>
      <point x="572" y="502" type="line"/>
      <point x="676" y="502" type="line"/>
      <point x="654" y="580" type="line"/>
      <point x="15" y="580" type="line"/>
      <point x="38" y="502" type="line"/>
      <point x="442" y="502" type="line"/>
    </contour>
    <contour>
      <point x="134" y="0" type="move" name="nukta"/>
    </contour>
    <contour>
      <point x="507" y="0" type="move" name="bottom"/>
    </contour>
    <contour>
      <point x="507" y="580" type="move" name="top"/>
    </contour>
  </outline>
</glyph>
<glyph name="ngadeva" format="1">
  <advance width="693"/>
  <unicode hex="0919"/>
  <note>
    dNga
  </note>
  <outline>
    <contour>
      <point x="598" y="420"/>
      <point x="566" y="419"/>
      <point x="536" y="389" type="curve" smooth="yes"/>
      <point x="505" y="357"/>
      <point x="505" y="327"/>
      <point x="540" y="292" type="curve" smooth="yes"/>
      <point x="575" y="257"/>
      <point x="605" y="257"/>
      <point x="637" y="288" type="curve" smooth="yes"/>
      <point x="667" y="319"/>
      <point x="671" y="348"/>
      <point x="633" y="385" type="curve" smooth="yes"/>
    </contour>
    <contour>
      <point x="345" y="361" type="line"/>
      <point x="475" y="361" type="line"/>
      <point x="475" y="502" type="line"/>
      <point x="678" y="502" type="line"/>
      <point x="656" y="580" type="line"/>
      <point x="15" y="580" type="line"/>
      <point x="38" y="502" type="line"/>
      <point x="345" y="502" type="line"/>
    </contour>
    <contour>
      <point x="66" y="146" type="line"/>
      <point x="119" y="53"/>
      <point x="205" y="-31"/>
      <point x="335" y="-31" type="curve" smooth="yes"/>
      <point x="473.533" y="-31"/>
      <point x="530" y="59"/>
      <point x="510" y="171" type="curve" smooth="yes"/>
      <point x="497" y="245"/>
      <point x="454" y="302"/>
      <point x="383" y="302" type="curve" smooth="yes"/>
      <point x="310" y="302"/>
      <point x="267" y="266"/>
      <point x="233" y="266" type="curve" smooth="yes"/>
      <point x="216" y="266"/>
      <point x="202" y="285"/>
      <point x="202" y="309" type="curve" smooth="yes"/>
      <point x="202" y="342"/>
      <point x="224" y="361"/>
      <point x="272" y="361" type="curve" smooth="yes"/>
      <point x="403" y="361" type="line"/>
      <point x="389" y="439" type="line"/>
      <point x="230" y="439" type="line" smooth="yes"/>
      <point x="166" y="438"/>
      <point x="102" y="403"/>
      <point x="112" y="320" type="curve" smooth="yes"/>
      <point x="121" y="248"/>
      <point x="197" y="179"/>
      <point x="264" y="179" type="curve" smooth="yes"/>
      <point x="313" y="179"/>
      <point x="370" y="205"/>
      <point x="408" y="204" type="curve" smooth="yes"/>
      <point x="429" y="204"/>
      <point x="439" y="187"/>
      <point x="439" y="156" type="curve" smooth="yes"/>
      <point x="439" y="119"/>
      <point x="400" y="77"/>
      <point x="309" y="77" type="curve" smooth="yes"/>
      <point x="247" y="77"/>
      <point x="179" y="95"/>
      <point x="111" y="174" type="curve"/>
    </contour>
    <contour>
      <point x="70" y="-39" type="move" name="nukta"/>
    </contour>
    <contour>
      <point x="342" y="-15" type="move" name="bottom"/>
    </contour>
    <contour>
      <point x="410" y="580" type="move" name="top"/>
    </contour>
  </outline>
</glyph>
<glyph name="cadeva" format="1">
  <advance width="703"/>
  <unicode hex="091A"/>
  <note>
    dCa
  </note>
  <outline>
    <contour>
      <point x="447" y="0" type="line"/>
      <point x="577" y="0" type="line"/>
      <point x="577" y="502" type="line"/>
      <point x="688" y="502" type="line"/>
      <point x="666" y="580" type="line"/>
      <point x="15" y="580" type="line"/>
      <point x="38" y="502" type="line"/>
      <point x="447" y="502" type="line"/>
    </contour>
    <contour>
      <point x="368" y="124"/>
      <point x="304" y="124" type="curve" smooth="yes"/>
      <point x="246" y="124"/>
      <point x="221" y="157"/>
      <point x="221" y="197" type="curve" smooth="yes"/>
      <point x="221" y="264"/>
      <point x="290" y="350"/>
      <point x="411" y="338" type="curve"/>
      <point x="389" y="416" type="line"/>
      <point x="81" y="416" type="line"/>
      <point x="104" y="338" type="line"/>
      <point x="335" y="338" type="line"/>
      <point x="351" y="402" type="line"/>
      <point x="247" y="397"/>
      <point x="134" y="348"/>
      <point x="134" y="241" type="curve" smooth="yes"/>
      <point x="134" y="145"/>
      <point x="226" y="58"/>
      <point x="339" y="58" type="curve" smooth="yes"/>
      <point x="398" y="58"/>
      <point x="466" y="82"/>
      <point x="507" y="133" type="curve"/>
      <point x="477" y="245" type="line"/>
      <point x="430" y="165"/>
    </contour>
    <contour>
      <point x="165" y="-24" type="move" name="nukta"/>
    </contour>
    <contour>
      <point x="520" y="0" type="move" name="bottom"/>
    </contour>
    <contour>
      <point x="520" y="580" type="move" name="top"/>
    </contour>
  </outline>
</glyph>
<glyph name="chadeva" format="1">
  <advance width="750"/>
  <unicode hex="091B"/>
  <note>
    dCha
  </note>
  <outline>
    <contour>
      <point x="455" y="434"/>
      <point x="388" y="395"/>
      <point x="388" y="314" type="curve" smooth="yes"/>
      <point x="388" y="201"/>
      <point x="519" y="137"/>
      <point x="619" y="112" type="curve"/>
      <point x="631" y="153" type="line"/>
      <point x="542" y="191"/>
      <point x="498" y="259"/>
      <point x="498" y="314" type="curve" smooth="yes"/>
      <point x="498" y="348"/>
      <point x="515" y="381"/>
      <point x="553" y="381" type="curve" smooth="yes"/>
      <point x="592" y="381"/>
      <point x="609" y="346"/>
      <point x="609" y="287" type="curve" smooth="yes"/>
      <point x="609" y="106"/>
      <point x="446" y="49"/>
      <point x="346" y="49" type="curve" smooth="yes"/>
      <point x="258" y="49"/>
      <point x="215" y="89"/>
      <point x="215" y="148" type="curve" smooth="yes"/>
      <point x="215" y="196"/>
      <point x="257" y="243"/>
      <point x="340" y="239" type="curve"/>
      <point x="324" y="304" type="line"/>
      <point x="183" y="304"/>
      <point x="116" y="234"/>
      <point x="116" y="159" type="curve" smooth="yes"/>
      <point x="116" y="71"/>
      <point x="207" y="-25"/>
      <point x="383" y="-25" type="curve" smooth="yes"/>
      <point x="561" y="-25"/>
      <point x="720" y="71"/>
      <point x="720" y="228" type="curve" smooth="yes"/>
      <point x="720" y="353"/>
      <point x="622" y="434"/>
      <point x="523" y="434" type="curve" smooth="yes"/>
    </contour>
    <contour>
      <point x="244" y="454"/>
      <point x="210" y="454" type="curve" smooth="yes"/>
      <point x="129" y="454"/>
      <point x="60" y="413"/>
      <point x="60" y="328" type="curve" smooth="yes"/>
      <point x="60" y="246"/>
      <point x="124" y="206"/>
      <point x="188" y="183" type="curve"/>
      <point x="206" y="229" type="line"/>
      <point x="177" y="254"/>
      <point x="162" y="286"/>
      <point x="162" y="315" type="curve" smooth="yes"/>
      <point x="162" y="354"/>
      <point x="191" y="386"/>
      <point x="251" y="386" type="curve" smooth="yes"/>
      <point x="277" y="386"/>
      <point x="304" y="380"/>
      <point x="329" y="370" type="curve"/>
      <point x="313" y="432" type="line"/>
      <point x="280" y="447"/>
    </contour>
    <contour>
      <point x="484" y="411" type="line"/>
      <point x="614" y="400" type="line"/>
      <point x="614" y="502" type="line"/>
      <point x="735" y="502" type="line"/>
      <point x="713" y="580" type="line"/>
      <point x="15" y="580" type="line"/>
      <point x="38" y="502" type="line"/>
      <point x="484" y="502" type="line"/>
    </contour>
    <contour>
      <point x="102" y="-39" type="move" name="nukta"/>
    </contour>
    <contour>
      <point x="373" y="-24" type="move" name="bottom"/>
    </contour>
    <contour>
      <point x="547" y="580" type="move" name="top"/>
    </contour>
  </outline>
</glyph>
<glyph name="jadeva" format="1">
  <advance width="764"/>
  <unicode hex="091C"/>
  <note>
    dJa
  </note>
  <outline>
    <contour>
      <point x="727" y="580" type="line"/>
      <point x="15" y="580" type="line"/>
      <point x="38" y="502" type="line"/>
      <point x="532" y="502" type="line"/>
      <point x="532" y="416" type="line"/>
      <point x="202" y="416" type="line"/>
      <point x="225" y="358" type="line"/>
      <point x="312" y="336"/>
      <point x="360" y="275"/>
      <point x="360" y="215" type="curve" smooth="yes"/>
      <point x="360" y="168"/>
      <point x="330" y="141"/>
      <point x="284" y="141" type="curve" smooth="yes"/>
      <point x="227" y="141"/>
      <point x="172" y="182"/>
      <point x="98" y="334" type="curve"/>
      <point x="47" y="309" type="line"/>
      <point x="122" y="114"/>
      <point x="208" y="41"/>
      <point x="310" y="41" type="curve" smooth="yes"/>
      <point x="393" y="41"/>
      <point x="465" y="90"/>
      <point x="465" y="180" type="curve" smooth="yes"/>
      <point x="465" y="242"/>
      <point x="432" y="297"/>
      <point x="368.822" y="338" type="curve"/>
      <point x="532" y="338" type="line"/>
      <point x="532" y="0" type="line"/>
      <point x="662" y="0" type="line"/>
      <point x="662" y="502" type="line"/>
      <point x="749" y="502" type="line"/>
    </contour>
    <contour>
      <point x="424" y="-54" type="move" name="nukta"/>
    </contour>
    <contour>
      <point x="596" y="0" type="move" name="bottom"/>
    </contour>
    <contour>
      <point x="596" y="580" type="move" name="top"/>
    </contour>
  </outline>
</glyph>
<glyph name="jhadeva" format="1">
  <advance width="852"/>
  <unicode hex="091D"/>
  <note>
    dJha
  </note>
  <outline>
    <contour>
      <point x="815" y="580" type="line"/>
      <point x="15" y="580" type="line"/>
      <point x="38" y="502" type="line"/>
      <point x="345" y="502" type="line"/>
      <point x="345" y="354" type="line"/>
      <point x="475" y="354" type="line"/>
      <point x="475" y="502" type="line"/>
      <point x="577" y="502" type="line"/>
      <point x="577" y="0" type="line"/>
      <point x="707" y="0" type="line"/>
      <point x="707" y="502" type="line"/>
      <point x="837" y="502" type="line"/>
    </contour>
    <contour>
      <point x="446" y="240" type="line"/>
      <point x="464" y="185" type="line"/>
      <point x="659" y="155" type="line"/>
      <point x="659" y="240" type="line"/>
    </contour>
    <contour>
      <point x="225" y="104"/>
      <point x="195" y="129"/>
      <point x="159" y="129" type="curve" smooth="yes"/>
      <point x="122" y="129"/>
      <point x="94" y="104"/>
      <point x="94" y="58" type="curve" smooth="yes"/>
      <point x="94" y="-17"/>
      <point x="130" y="-106"/>
      <point x="194" y="-203" type="curve"/>
      <point x="287" y="-149" type="line"/>
      <point x="238" y="-108"/>
      <point x="199" y="-63"/>
      <point x="172" y="-6" type="curve"/>
      <point x="192" y="3"/>
      <point x="225" y="26"/>
      <point x="225" y="61" type="curve" smooth="yes"/>
    </contour>
    <contour>
      <point x="107" y="67" type="line"/>
      <point x="152" y="3"/>
      <point x="225" y="-55"/>
      <point x="335" y="-55" type="curve" smooth="yes"/>
      <point x="474" y="-55"/>
      <point x="514" y="39"/>
      <point x="513" y="121" type="curve" smooth="yes"/>
      <point x="512" y="216"/>
      <point x="454" y="282"/>
      <point x="383" y="282" type="curve" smooth="yes"/>
      <point x="310" y="282"/>
      <point x="267" y="246"/>
      <point x="233" y="246" type="curve" smooth="yes"/>
      <point x="209" y="246"/>
      <point x="195" y="265"/>
      <point x="198" y="288" type="curve" smooth="yes"/>
      <point x="202" y="318"/>
      <point x="219" y="354"/>
      <point x="262" y="354" type="curve" smooth="yes"/>
      <point x="403" y="354" type="line"/>
      <point x="389" y="432" type="line"/>
      <point x="230" y="432" type="line" smooth="yes"/>
      <point x="166" y="432"/>
      <point x="112" y="399"/>
      <point x="112" y="323" type="curve" smooth="yes"/>
      <point x="112" y="239"/>
      <point x="186" y="157"/>
      <point x="263" y="157" type="curve" smooth="yes"/>
      <point x="312" y="157"/>
      <point x="370" y="185"/>
      <point x="408" y="184" type="curve" smooth="yes"/>
      <point x="429" y="184"/>
      <point x="439" y="167"/>
      <point x="439" y="136" type="curve" smooth="yes"/>
      <point x="439" y="58"/>
      <point x="371" y="41"/>
      <point x="291" y="42" type="curve" smooth="yes"/>
      <point x="245" y="42"/>
      <point x="195" y="56"/>
      <point x="152" y="83" type="curve"/>
    </contour>
    <contour>
      <point x="59" y="-181" type="move" name="nukta"/>
    </contour>
    <contour>
      <point x="643" y="0" type="move" name="bottom"/>
    </contour>
    <contour>
      <point x="643" y="580" type="move" name="top"/>
    </contour>
  </outline>
</glyph>
<glyph name="nyadeva" format="1">
  <advance width="795"/>
  <unicode hex="091E"/>
  <note>
    dNya
  </note>
  <outline>
    <contour>
      <point x="559" y="0" type="line"/>
      <point x="689" y="0" type="line"/>
      <point x="689" y="502" type="line"/>
      <point x="780" y="502" type="line"/>
      <point x="758" y="580" type="line"/>
      <point x="15" y="580" type="line"/>
      <point x="38" y="502" type="line"/>
      <point x="559" y="502" type="line"/>
    </contour>
    <contour>
      <point x="580" y="298"/>
      <point x="533" y="278"/>
      <point x="454" y="320" type="curve"/>
      <point x="447" y="243" type="line"/>
      <point x="525" y="208"/>
      <point x="579" y="202"/>
      <point x="651" y="213" type="curve"/>
      <point x="651" y="328" type="line"/>
    </contour>
    <contour>
      <point x="486" y="389"/>
      <point x="422" y="442"/>
      <point x="343" y="442" type="curve" smooth="yes"/>
      <point x="291" y="442"/>
      <point x="233" y="419"/>
      <point x="182" y="377" type="curve"/>
      <point x="228" y="303" type="line"/>
      <point x="261" y="327"/>
      <point x="303" y="342"/>
      <point x="341" y="342" type="curve" smooth="yes"/>
      <point x="383" y="342"/>
      <point x="415" y="323"/>
      <point x="415" y="271" type="curve" smooth="yes"/>
      <point x="415" y="210"/>
      <point x="373" y="178"/>
      <point x="306" y="178" type="curve" smooth="yes"/>
      <point x="234" y="178"/>
      <point x="145" y="214"/>
      <point x="95" y="329" type="curve"/>
      <point x="39" y="297" type="line"/>
      <point x="104" y="139"/>
      <point x="225" y="66"/>
      <point x="325" y="66" type="curve" smooth="yes"/>
      <point x="417" y="66"/>
      <point x="489" y="129"/>
      <point x="487" y="266" type="curve" smooth="yes"/>
    </contour>
    <contour>
      <point x="97" y="-20" type="move" name="nukta"/>
    </contour>
    <contour>
      <point x="626" y="0" type="move" name="bottom"/>
    </contour>
    <contour>
      <point x="626" y="580" type="move" name="top"/>
    </contour>
  </outline>
</glyph>
<glyph name="ttadeva" format="1">
  <advance width="621"/>
  <unicode hex="091F"/>
  <note>
    dTta
  </note>
  <outline>
    <contour>
      <point x="340" y="69"/>
      <point x="284" y="69" type="curve" smooth="yes"/>
      <point x="218" y="69"/>
      <point x="177" y="121"/>
      <point x="177" y="190" type="curve" smooth="yes"/>
      <point x="177" y="283"/>
      <point x="230" y="323"/>
      <point x="323" y="323" type="curve" smooth="yes"/>
      <point x="483" y="323" type="line"/>
      <point x="483" y="502" type="line"/>
      <point x="606" y="502" type="line"/>
      <point x="584" y="580" type="line"/>
      <point x="15" y="580" type="line"/>
      <point x="38" y="502" type="line"/>
      <point x="353" y="502" type="line"/>
      <point x="353" y="401" type="line"/>
      <point x="284" y="401" type="line" smooth="yes"/>
      <point x="162" y="401"/>
      <point x="61" y="354"/>
      <point x="61" y="231" type="curve" smooth="yes"/>
      <point x="61" y="86"/>
      <point x="202" y="-14"/>
      <point x="336" y="-14" type="curve" smooth="yes"/>
      <point x="424" y="-14"/>
      <point x="506" y="29"/>
      <point x="550" y="92" type="curve"/>
      <point x="465" y="173" type="line"/>
      <point x="399" y="93"/>
    </contour>
    <contour>
      <point x="51" y="-20" type="move" name="nukta"/>
    </contour>
    <contour>
      <point x="335" y="3" type="move" name="bottom"/>
    </contour>
    <contour>
      <point x="419" y="580" type="move" name="top"/>
    </contour>
  </outline>
</glyph>
<glyph name="tthadeva" format="1">
  <advance width="651"/>
  <unicode hex="0920"/>
  <note>
    dTtha
  </note>
  <outline>
    <contour>
      <point x="375" y="355" type="line"/>
      <point x="455" y="330"/>
      <point x="492" y="271"/>
      <point x="492" y="211" type="curve" smooth="yes"/>
      <point x="492" y="132"/>
      <point x="428" y="52"/>
      <point x="312" y="52" type="curve" smooth="yes"/>
      <point x="223" y="52"/>
      <point x="178" y="120"/>
      <point x="178" y="190" type="curve" smooth="yes"/>
      <point x="178" y="265"/>
      <point x="229" y="342"/>
      <point x="333" y="342" type="curve" smooth="yes"/>
      <point x="421" y="342" type="line"/>
      <point x="390" y="420" type="line"/>
      <point x="269" y="420" type="line" smooth="yes"/>
      <point x="161" y="420"/>
      <point x="66" y="348"/>
      <point x="66" y="240" type="curve" smooth="yes"/>
      <point x="66" y="79"/>
      <point x="216" y="-14"/>
      <point x="367" y="-14" type="curve" smooth="yes"/>
      <point x="496" y="-14"/>
      <point x="600" y="54"/>
      <point x="600" y="173" type="curve" smooth="yes"/>
      <point x="600" y="277"/>
      <point x="546" y="368"/>
      <point x="375" y="402" type="curve"/>
    </contour>
    <contour>
      <point x="353" y="342" type="line"/>
      <point x="483" y="342" type="line"/>
      <point x="483" y="502" type="line"/>
      <point x="636" y="502" type="line"/>
      <point x="614" y="580" type="line"/>
      <point x="15" y="580" type="line"/>
      <point x="38" y="502" type="line"/>
      <point x="353" y="502" type="line"/>
    </contour>
    <contour>
      <point x="51" y="-20" type="move" name="nukta"/>
    </contour>
    <contour>
      <point x="369" y="6" type="move" name="bottom"/>
    </contour>
    <contour>
      <point x="423" y="580" type="move" name="top"/>
    </contour>
  </outline>
</glyph>
<glyph name="ddadeva" format="1">
  <advance width="621"/>
  <unicode hex="0921"/>
  <note>
    dDda
  </note>
  <outline>
    <contour>
      <point x="345" y="361" type="line"/>
      <point x="475" y="361" type="line"/>
      <point x="475" y="502" type="line"/>
      <point x="606" y="502" type="line"/>
      <point x="584" y="580" type="line"/>
      <point x="15" y="580" type="line"/>
      <point x="38" y="502" type="line"/>
      <point x="345" y="502" type="line"/>
    </contour>
    <contour>
      <point x="66" y="146" type="line"/>
      <point x="119" y="53"/>
      <point x="205" y="-31"/>
      <point x="335" y="-31" type="curve" smooth="yes"/>
      <point x="473.533" y="-31"/>
      <point x="530" y="59"/>
      <point x="510" y="171" type="curve" smooth="yes"/>
      <point x="497" y="245"/>
      <point x="454" y="302"/>
      <point x="383" y="302" type="curve" smooth="yes"/>
      <point x="310" y="302"/>
      <point x="267" y="266"/>
      <point x="233" y="266" type="curve" smooth="yes"/>
      <point x="216" y="266"/>
      <point x="202" y="285"/>
      <point x="202" y="309" type="curve" smooth="yes"/>
      <point x="202" y="342"/>
      <point x="224" y="361"/>
      <point x="272" y="361" type="curve" smooth="yes"/>
      <point x="403" y="361" type="line"/>
      <point x="389" y="439" type="line"/>
      <point x="230" y="439" type="line" smooth="yes"/>
      <point x="166" y="438"/>
      <point x="102" y="403"/>
      <point x="112" y="320" type="curve" smooth="yes"/>
      <point x="121" y="248"/>
      <point x="197" y="179"/>
      <point x="264" y="179" type="curve" smooth="yes"/>
      <point x="313" y="179"/>
      <point x="370" y="205"/>
      <point x="408" y="204" type="curve" smooth="yes"/>
      <point x="429" y="204"/>
      <point x="439" y="187"/>
      <point x="439" y="156" type="curve" smooth="yes"/>
      <point x="439" y="119"/>
      <point x="400" y="77"/>
      <point x="309" y="77" type="curve" smooth="yes"/>
      <point x="247" y="77"/>
      <point x="179" y="95"/>
      <point x="111" y="174" type="curve"/>
    </contour>
    <contour>
      <point x="65" y="-29" type="move" name="nukta"/>
    </contour>
    <contour>
      <point x="336" y="-9" type="move" name="bottom"/>
    </contour>
    <contour>
      <point x="411" y="580" type="move" name="top"/>
    </contour>
  </outline>
</glyph>
<glyph name="ddhadeva" format="1">
  <advance width="631"/>
  <unicode hex="0922"/>
  <note>
    dDdha
  </note>
  <outline>
    <contour>
      <point x="421" y="29" type="line"/>
      <point x="375" y="50"/>
      <point x="348" y="89"/>
      <point x="348" y="145" type="curve" smooth="yes"/>
      <point x="348" y="193"/>
      <point x="379" y="216"/>
      <point x="411" y="216" type="curve" smooth="yes"/>
      <point x="442" y="216"/>
      <point x="473" y="193"/>
      <point x="473" y="147" type="curve" smooth="yes"/>
      <point x="473" y="90"/>
      <point x="422" y="55"/>
      <point x="328" y="55" type="curve" smooth="yes"/>
      <point x="227" y="55"/>
      <point x="164" y="119"/>
      <point x="164" y="210" type="curve" smooth="yes"/>
      <point x="164" y="295"/>
      <point x="211" y="337"/>
      <point x="293" y="337" type="curve" smooth="yes"/>
      <point x="421" y="337" type="line"/>
      <point x="393" y="415" type="line"/>
      <point x="264" y="415" type="line" smooth="yes"/>
      <point x="136" y="415"/>
      <point x="46" y="358"/>
      <point x="46" y="245" type="curve" smooth="yes"/>
      <point x="46" y="81"/>
      <point x="207" y="-19"/>
      <point x="374" y="-17" type="curve" smooth="yes"/>
      <point x="495" y="-16"/>
      <point x="563" y="41"/>
      <point x="563" y="117" type="curve" smooth="yes"/>
      <point x="563" y="208"/>
      <point x="478" y="280"/>
      <point x="382" y="280" type="curve" smooth="yes"/>
      <point x="312" y="280"/>
      <point x="249" y="245"/>
      <point x="249" y="170" type="curve" smooth="yes"/>
      <point x="249" y="114"/>
      <point x="294" y="51"/>
      <point x="359" y="17" type="curve"/>
    </contour>
    <contour>
      <point x="353" y="337" type="line"/>
      <point x="483" y="337" type="line"/>
      <point x="483" y="502" type="line"/>
      <point x="616" y="502" type="line"/>
      <point x="594" y="580" type="line"/>
      <point x="15" y="580" type="line"/>
      <point x="38" y="502" type="line"/>
      <point x="353" y="502" type="line"/>
    </contour>
    <contour>
      <point x="369" y="-127" type="move" name="nukta"/>
    </contour>
    <contour>
      <point x="373" y="-7" type="move" name="bottom"/>
    </contour>
    <contour>
      <point x="418" y="580" type="move" name="top"/>
    </contour>
  </outline>
</glyph>
<glyph name="nnadeva" format="1">
  <advance width="783"/>
  <unicode hex="0923"/>
  <note>
    dNna
  </note>
  <outline>
    <contour>
      <point x="333" y="544" type="line"/>
      <point x="333" y="295" type="line" smooth="yes"/>
      <point x="333" y="233"/>
      <point x="318" y="201"/>
      <point x="274" y="200" type="curve" smooth="yes"/>
      <point x="232" y="199"/>
      <point x="218" y="221"/>
      <point x="218" y="276" type="curve" smooth="yes"/>
      <point x="218" y="544" type="line"/>
      <point x="90" y="544" type="line"/>
      <point x="90" y="438" type="line" smooth="yes"/>
      <point x="90" y="195"/>
      <point x="199" y="111"/>
      <point x="315" y="111" type="curve" smooth="yes"/>
      <point x="406" y="111"/>
      <point x="461" y="177"/>
      <point x="461" y="286" type="curve" smooth="yes"/>
      <point x="461" y="544" type="line"/>
    </contour>
    <contour>
      <point x="537" y="0" type="line"/>
      <point x="667" y="0" type="line"/>
      <point x="667" y="502" type="line"/>
      <point x="768" y="502" type="line"/>
      <point x="746" y="580" type="line"/>
      <point x="15" y="580" type="line"/>
      <point x="38" y="502" type="line"/>
      <point x="537" y="502" type="line"/>
    </contour>
    <contour>
      <point x="247" y="0" type="move" name="nukta"/>
    </contour>
    <contour>
      <point x="603" y="0" type="move" name="bottom"/>
    </contour>
    <contour>
      <point x="603" y="580" type="move" name="top"/>
    </contour>
  </outline>
</glyph>
<glyph name="tadeva" format="1">
  <advance width="653"/>
  <unicode hex="0924"/>
  <note>
    dTa
  </note>
  <outline>
    <contour>
      <point x="503" y="337" type="line"/>
      <point x="461" y="415" type="line"/>
      <point x="272" y="415" type="line" smooth="yes"/>
      <point x="171" y="415"/>
      <point x="96" y="370"/>
      <point x="96" y="268" type="curve" smooth="yes"/>
      <point x="96" y="176"/>
      <point x="156" y="83"/>
      <point x="273" y="-13" type="curve"/>
      <point x="320" y="31" type="line"/>
      <point x="182" y="169"/>
      <point x="156" y="337"/>
      <point x="313" y="337" type="curve" smooth="yes"/>
    </contour>
    <contour>
      <point x="399" y="0" type="line"/>
      <point x="529" y="0" type="line"/>
      <point x="529" y="502" type="line"/>
      <point x="638" y="502" type="line"/>
      <point x="616" y="580" type="line"/>
      <point x="15" y="580" type="line"/>
      <point x="38" y="502" type="line"/>
      <point x="399" y="502" type="line"/>
    </contour>
    <contour>
      <point x="39" y="-34" type="move" name="nukta"/>
    </contour>
    <contour>
      <point x="467" y="0" type="move" name="bottom"/>
    </contour>
    <contour>
      <point x="467" y="580" type="move" name="top"/>
    </contour>
  </outline>
</glyph>
<glyph name="thadeva" format="1">
  <advance width="671"/>
  <unicode hex="0925"/>
  <note>
    dTha
  </note>
  <outline>
    <contour>
      <point x="202" y="346" type="line"/>
      <point x="148" y="392"/>
      <point x="126" y="437"/>
      <point x="126" y="473" type="curve" smooth="yes"/>
      <point x="126" y="509"/>
      <point x="149" y="534"/>
      <point x="176" y="534" type="curve" smooth="yes"/>
      <point x="204" y="534"/>
      <point x="231" y="508"/>
      <point x="231" y="451" type="curve" smooth="yes"/>
      <point x="231" y="366"/>
      <point x="169" y="327"/>
      <point x="72" y="297" type="curve"/>
      <point x="76" y="249" type="line"/>
      <point x="130" y="147"/>
      <point x="218" y="90"/>
      <point x="327" y="90" type="curve" smooth="yes"/>
      <point x="377" y="90"/>
      <point x="429" y="102"/>
      <point x="477" y="127" type="curve"/>
      <point x="477" y="299" type="line"/>
      <point x="444" y="235"/>
      <point x="366" y="196"/>
      <point x="289" y="196" type="curve" smooth="yes"/>
      <point x="239" y="196"/>
      <point x="183" y="212"/>
      <point x="159" y="248" type="curve"/>
      <point x="242" y="261"/>
      <point x="331" y="320"/>
      <point x="331" y="426" type="curve" smooth="yes"/>
      <point x="331" y="519"/>
      <point x="263" y="596"/>
      <point x="159" y="596" type="curve" smooth="yes"/>
      <point x="75" y="596"/>
      <point x="30" y="548"/>
      <point x="30" y="489" type="curve" smooth="yes"/>
      <point x="30" y="421"/>
      <point x="77" y="358"/>
      <point x="179" y="318" type="curve"/>
    </contour>
    <contour>
      <point x="442" y="0" type="line"/>
      <point x="572" y="0" type="line"/>
      <point x="572" y="502" type="line"/>
      <point x="656" y="502" type="line"/>
      <point x="634" y="580" type="line"/>
      <point x="335" y="580" type="line"/>
      <point x="358" y="502" type="line"/>
      <point x="442" y="502" type="line"/>
    </contour>
    <contour>
      <point x="177" y="0" type="move" name="nukta"/>
    </contour>
    <contour>
      <point x="501" y="0" type="move" name="bottom"/>
    </contour>
    <contour>
      <point x="501" y="580" type="move" name="top"/>
    </contour>
  </outline>
</glyph>
<glyph name="dadeva" format="1">
  <advance width="606"/>
  <unicode hex="0926"/>
  <note>
    dDa
  </note>
  <outline>
    <contour>
      <point x="425" y="128" type="line"/>
      <point x="389" y="99"/>
      <point x="346" y="84"/>
      <point x="307" y="84" type="curve" smooth="yes"/>
      <point x="238" y="84"/>
      <point x="178" y="127"/>
      <point x="178" y="207" type="curve" smooth="yes"/>
      <point x="178" y="281"/>
      <point x="230" y="323"/>
      <point x="323" y="323" type="curve" smooth="yes"/>
      <point x="483" y="323" type="line"/>
      <point x="483" y="502" type="line"/>
      <point x="606" y="502" type="line"/>
      <point x="584" y="580" type="line"/>
      <point x="15" y="580" type="line"/>
      <point x="38" y="502" type="line"/>
      <point x="353" y="502" type="line"/>
      <point x="353" y="401" type="line"/>
      <point x="274" y="401" type="line" smooth="yes"/>
      <point x="152" y="401"/>
      <point x="59" y="362"/>
      <point x="59" y="251" type="curve" smooth="yes"/>
      <point x="59" y="112"/>
      <point x="202" y="6"/>
      <point x="336" y="6" type="curve" smooth="yes"/>
      <point x="374" y="6"/>
      <point x="411" y="14"/>
      <point x="445" y="29" type="curve"/>
    </contour>
    <contour>
      <point x="582" y="-89" type="line"/>
      <point x="472" y="41" type="line"/>
      <point x="492" y="50"/>
      <point x="525" y="73"/>
      <point x="525" y="118" type="curve" smooth="yes"/>
      <point x="525" y="161"/>
      <point x="495" y="186"/>
      <point x="459" y="186" type="curve" smooth="yes"/>
      <point x="422" y="186"/>
      <point x="384" y="161"/>
      <point x="384" y="98" type="curve" smooth="yes"/>
      <point x="384" y="42"/>
      <point x="405" y="-16"/>
      <point x="502" y="-153" type="curve"/>
    </contour>
    <contour>
      <point x="118" y="-49" type="move" name="nukta"/>
    </contour>
    <contour>
      <point x="409" y="-34" type="move" name="bottom"/>
    </contour>
    <contour>
      <point x="435" y="580" type="move" name="top"/>
    </contour>
  </outline>
</glyph>
<glyph name="dhadeva" format="1">
  <advance width="713"/>
  <unicode hex="0927"/>
  <note>
    dDha
  </note>
  <outline>
    <contour>
      <point x="464" y="0" type="line"/>
      <point x="594" y="0" type="line"/>
      <point x="594" y="502" type="line"/>
      <point x="698" y="502" type="line"/>
      <point x="676" y="580" type="line"/>
      <point x="347" y="580" type="line"/>
      <point x="370" y="502" type="line"/>
      <point x="464" y="502" type="line"/>
    </contour>
    <contour>
      <point x="82" y="603"/>
      <point x="30" y="539"/>
      <point x="30" y="469" type="curve" smooth="yes"/>
      <point x="30" y="400"/>
      <point x="81" y="326"/>
      <point x="201" y="287" type="curve"/>
      <point x="230" y="318" type="line"/>
      <point x="157" y="331"/>
      <point x="123" y="393"/>
      <point x="123" y="449" type="curve" smooth="yes"/>
      <point x="123" y="500"/>
      <point x="152" y="547"/>
      <point x="205" y="547" type="curve" smooth="yes"/>
      <point x="254" y="547"/>
      <point x="253" y="486"/>
      <point x="212" y="456" type="curve"/>
      <point x="278" y="411" type="line"/>
      <point x="300" y="430"/>
      <point x="312" y="457"/>
      <point x="312" y="485" type="curve" smooth="yes"/>
      <point x="312" y="542"/>
      <point x="266" y="603"/>
      <point x="175" y="603" type="curve" smooth="yes"/>
    </contour>
    <contour>
      <point x="460" y="262" type="line"/>
      <point x="435" y="164"/>
      <point x="328" y="111"/>
      <point x="255" y="111" type="curve" smooth="yes"/>
      <point x="198" y="111"/>
      <point x="167" y="143"/>
      <point x="167" y="185" type="curve" smooth="yes"/>
      <point x="167" y="241"/>
      <point x="221" y="292"/>
      <point x="338" y="295" type="curve"/>
      <point x="316" y="383" type="line"/>
      <point x="165" y="366"/>
      <point x="86" y="306"/>
      <point x="86" y="214" type="curve" smooth="yes"/>
      <point x="86" y="103"/>
      <point x="205" y="31"/>
      <point x="319" y="33" type="curve" smooth="yes"/>
      <point x="414" y="34"/>
      <point x="501" y="85"/>
      <point x="552" y="176" type="curve"/>
    </contour>
    <contour>
      <point x="128" y="0" type="move" name="nukta"/>
    </contour>
    <contour>
      <point x="528" y="0" type="move" name="bottom"/>
    </contour>
    <contour>
      <point x="528" y="580" type="move" name="top"/>
    </contour>
  </outline>
</glyph>
<glyph name="nadeva" format="1">
  <advance width="632"/>
  <unicode hex="0928"/>
  <note>
    dNa
  </note>
  <outline>
    <contour>
      <point x="367" y="0" type="line"/>
      <point x="497" y="0" type="line"/>
      <point x="497" y="502" type="line"/>
      <point x="617" y="502" type="line"/>
      <point x="595" y="580" type="line"/>
      <point x="15" y="580" type="line"/>
      <point x="38" y="502" type="line"/>
      <point x="367" y="502" type="line"/>
    </contour>
    <contour>
      <point x="473" y="272" type="line"/>
      <point x="455" y="350" type="line"/>
      <point x="165" y="350" type="line"/>
      <point x="188" y="272" type="line"/>
    </contour>
    <component base="deva_knot" xOffset="38" yOffset="23"/>
    <contour>
      <point x="157" y="-15" type="move" name="nukta"/>
    </contour>
    <contour>
      <point x="428" y="0" type="move" name="bottom"/>
    </contour>
    <contour>
      <point x="428" y="580" type="move" name="top"/>
    </contour>
  </outline>
</glyph>
<glyph name="padeva" format="1">
  <advance width="642"/>
  <unicode hex="092A"/>
  <note>
    dPa
  </note>
  <outline>
    <contour>
      <point x="387" y="0" type="line"/>
      <point x="517" y="0" type="line"/>
      <point x="517" y="502" type="line"/>
      <point x="627" y="502" type="line"/>
      <point x="605" y="580" type="line"/>
      <point x="15" y="580" type="line"/>
      <point x="38" y="502" type="line"/>
      <point x="387" y="502" type="line"/>
    </contour>
    <contour>
      <point x="440" y="354" type="line"/>
      <point x="401" y="257"/>
      <point x="335" y="208"/>
      <point x="288" y="208" type="curve" smooth="yes"/>
      <point x="257" y="208"/>
      <point x="235" y="230"/>
      <point x="235" y="275" type="curve" smooth="yes"/>
      <point x="235" y="552" type="line"/>
      <point x="105" y="552" type="line"/>
      <point x="105" y="395" type="line" smooth="yes"/>
      <point x="105" y="244"/>
      <point x="176" y="141"/>
      <point x="302" y="141" type="curve" smooth="yes"/>
      <point x="373" y="141"/>
      <point x="446" y="178"/>
      <point x="489" y="243" type="curve"/>
    </contour>
    <contour>
      <point x="102" y="64" type="move" name="nukta"/>
    </contour>
    <contour>
      <point x="452" y="0" type="move" name="bottom"/>
    </contour>
    <contour>
      <point x="452" y="580" type="move" name="top"/>
    </contour>
  </outline>
</glyph>
<glyph name="uni092B" format="1">
  <advance width="879"/>
  <unicode hex="092B"/>
  <note>
    dPha
  </note>
  <outline>
    <contour>
      <point x="394" y="0" type="line"/>
      <point x="524" y="0" type="line"/>
      <point x="524" y="502" type="line"/>
      <point x="864" y="502" type="line"/>
      <point x="842" y="580" type="line"/>
      <point x="15" y="580" type="line"/>
      <point x="38" y="502" type="line"/>
      <point x="394" y="502" type="line"/>
    </contour>
    <contour>
      <point x="623" y="438"/>
      <point x="558" y="405"/>
      <point x="483" y="327" type="curve"/>
      <point x="497" y="208" type="line"/>
      <point x="561" y="284"/>
      <point x="635" y="350"/>
      <point x="695" y="350" type="curve" smooth="yes"/>
      <point x="733" y="350"/>
      <point x="747" y="322"/>
      <point x="747" y="290" type="curve" smooth="yes"/>
      <point x="747" y="234"/>
      <point x="701" y="145"/>
      <point x="602" y="118" type="curve"/>
      <point x="671" y="14" type="line"/>
      <point x="777" y="66"/>
      <point x="824" y="161"/>
      <point x="824" y="251" type="curve" smooth="yes"/>
      <point x="824" y="346"/>
      <point x="771" y="438"/>
      <point x="679" y="438" type="curve" smooth="yes"/>
    </contour>
    <contour>
      <point x="426" y="297" type="line"/>
      <point x="404" y="249"/>
      <point x="360" y="224"/>
      <point x="322" y="224" type="curve" smooth="yes"/>
      <point x="279" y="224"/>
      <point x="242" y="253"/>
      <point x="242" y="315" type="curve" smooth="yes"/>
      <point x="242" y="544" type="line"/>
      <point x="112" y="544" type="line"/>
      <point x="112" y="387" type="line" smooth="yes"/>
      <point x="112" y="244"/>
      <point x="180" y="150"/>
      <point x="303" y="150" type="curve" smooth="yes"/>
      <point x="400" y="150"/>
      <point x="444" y="191"/>
      <point x="482" y="272" type="curve"/>
    </contour>
    <contour>
      <point x="102" y="90" type="move" name="nukta"/>
    </contour>
    <contour>
      <point x="458" y="0" type="move" name="bottom"/>
    </contour>
    <contour>
      <point x="458" y="580" type="move" name="top"/>
    </contour>
  </outline>
</glyph>
<glyph name="madeva" format="1">
  <advance width="639"/>
  <unicode hex="092E"/>
  <note>
    dMa
  </note>
  <outline>
    <contour>
      <point x="602" y="580" type="line"/>
      <point x="15" y="580" type="line"/>
      <point x="38" y="502" type="line"/>
      <point x="113" y="502" type="line"/>
      <point x="113" y="200" type="line"/>
      <point x="401" y="200" type="line"/>
      <point x="401" y="0" type="line"/>
      <point x="531" y="0" type="line"/>
      <point x="531" y="502" type="line"/>
      <point x="624" y="502" type="line"/>
    </contour>
    <contour>
      <point x="243" y="278" type="line"/>
      <point x="243" y="502" type="line"/>
      <point x="401" y="502" type="line"/>
      <point x="401" y="278" type="line"/>
    </contour>
    <component base="deva_knot" xOffset="24" yOffset="-49"/>
    <contour>
      <point x="144" y="-54" type="move" name="nukta"/>
    </contour>
    <contour>
      <point x="467" y="0" type="move" name="bottom"/>
    </contour>
    <contour>
      <point x="467" y="580" type="move" name="top"/>
    </contour>
  </outline>
</glyph>
<glyph name="uni092F" format="1">
  <advance width="639"/>
  <unicode hex="092F"/>
  <note>
    dYa
  </note>
  <outline>
    <contour>
      <point x="401" y="0" type="line"/>
      <point x="531" y="0" type="line"/>
      <point x="531" y="502" type="line"/>
      <point x="624" y="502" type="line"/>
      <point x="602" y="580" type="line"/>
      <point x="15" y="580" type="line"/>
      <point x="38" y="502" type="line"/>
      <point x="401" y="502" type="line"/>
    </contour>
    <contour>
      <point x="130.47" y="538" type="line"/>
      <point x="250" y="433"/>
      <point x="195" y="336"/>
      <point x="26" y="295" type="curve"/>
      <point x="112" y="80"/>
      <point x="308" y="41"/>
      <point x="441" y="111" type="curve"/>
      <point x="402" y="233" type="line"/>
      <point x="317" y="178"/>
      <point x="208" y="187"/>
      <point x="140" y="246" type="curve"/>
      <point x="259" y="280"/>
      <point x="367" y="396"/>
      <point x="223" y="538" type="curve"/>
    </contour>
    <contour>
      <point x="74" y="0" type="move" name="nukta"/>
    </contour>
    <contour>
      <point x="469" y="0" type="move" name="bottom"/>
    </contour>
    <contour>
      <point x="469" y="580" type="move" name="top"/>
    </contour>
  </outline>
</glyph>
<glyph name="radeva" format="1">
  <advance width="493"/>
  <unicode hex="0930"/>
  <note>
    dRa
  </note>
  <outline>
    <contour>
      <point x="429" y="77" type="line"/>
      <point x="327" y="46"/>
      <point x="223" y="94"/>
      <point x="181" y="182" type="curve"/>
      <point x="295" y="194"/>
      <point x="375" y="348"/>
      <point x="291" y="529" type="curve"/>
      <point x="188" y="529" type="line"/>
      <point x="240" y="435"/>
      <point x="240" y="362"/>
      <point x="206" y="305" type="curve"/>
      <point x="184" y="328"/>
      <point x="154" y="342"/>
      <point x="126" y="342" type="curve" smooth="yes"/>
      <point x="82" y="342"/>
      <point x="57" y="316"/>
      <point x="57" y="266" type="curve" smooth="yes"/>
      <point x="57" y="170"/>
      <point x="175" y="-48"/>
      <point x="399" y="-43" type="curve"/>
    </contour>
    <contour>
      <point x="478" y="502" type="line"/>
      <point x="456" y="580" type="line"/>
      <point x="15" y="580" type="line"/>
      <point x="38" y="502" type="line"/>
    </contour>
    <contour>
      <point x="80" y="-20" type="move" name="nukta"/>
    </contour>
    <contour>
      <point x="364" y="-10" type="move" name="bottom"/>
    </contour>
    <contour>
      <point x="267" y="580" type="move" name="top"/>
    </contour>
  </outline>
</glyph>
<glyph name="uni0932" format="1">
  <advance width="782"/>
  <unicode hex="0932"/>
  <note>
    dLa
  </note>
  <outline>
    <contour>
      <point x="527" y="0" type="line"/>
      <point x="657" y="0" type="line"/>
      <point x="657" y="502" type="line"/>
      <point x="767" y="502" type="line"/>
      <point x="745" y="580" type="line"/>
      <point x="15" y="580" type="line"/>
      <point x="38" y="502" type="line"/>
      <point x="527" y="502" type="line"/>
    </contour>
    <contour>
      <point x="391" y="283"/>
      <point x="438" y="338"/>
      <point x="491" y="338" type="curve" smooth="yes"/>
      <point x="528" y="338"/>
      <point x="548" y="323"/>
      <point x="577" y="293" type="curve"/>
      <point x="602" y="340" type="line"/>
      <point x="562" y="388"/>
      <point x="509" y="425"/>
      <point x="449" y="425" type="curve" smooth="yes"/>
      <point x="358" y="425"/>
      <point x="306" y="342"/>
      <point x="272" y="211" type="curve"/>
      <point x="359" y="177" type="line"/>
    </contour>
    <contour>
      <point x="340" y="381"/>
      <point x="287" y="433"/>
      <point x="200" y="433" type="curve" smooth="yes"/>
      <point x="89" y="433"/>
      <point x="50" y="346"/>
      <point x="50" y="279" type="curve" smooth="yes"/>
      <point x="50" y="157"/>
      <point x="179" y="42"/>
      <point x="313" y="-27" type="curve"/>
      <point x="344" y="22" type="line"/>
      <point x="233" y="101"/>
      <point x="165" y="170"/>
      <point x="165" y="254" type="curve" smooth="yes"/>
      <point x="165" y="318"/>
      <point x="199" y="345"/>
      <point x="241" y="345" type="curve" smooth="yes"/>
      <point x="278" y="345"/>
      <point x="321" y="324"/>
      <point x="353" y="286" type="curve"/>
      <point x="389" y="320" type="line"/>
    </contour>
    <contour>
      <point x="58" y="-54" type="move" name="nukta"/>
    </contour>
    <contour>
      <point x="593" y="0" type="move" name="bottom"/>
    </contour>
    <contour>
      <point x="593" y="580" type="move" name="top"/>
    </contour>
  </outline>
</glyph>
<glyph name="lladeva" format="1">
  <advance width="820"/>
  <unicode hex="0933"/>
  <note>
    dLla
  </note>
  <outline>
    <contour>
      <point x="545" y="390" type="line" smooth="yes"/>
      <point x="675" y="350" type="line" smooth="yes"/>
      <point x="675" y="502" type="line"/>
      <point x="805" y="502" type="line"/>
      <point x="783" y="580" type="line"/>
      <point x="15" y="580" type="line"/>
      <point x="38" y="502" type="line"/>
      <point x="545" y="502" type="line"/>
    </contour>
    <contour>
      <point x="434" y="274" type="line"/>
      <point x="366" y="359"/>
      <point x="292" y="405"/>
      <point x="215" y="405" type="curve" smooth="yes"/>
      <point x="138" y="405"/>
      <point x="57" y="360"/>
      <point x="57" y="243" type="curve" smooth="yes"/>
      <point x="57" y="142"/>
      <point x="147" y="25"/>
      <point x="258" y="25" type="curve" smooth="yes"/>
      <point x="332" y="25"/>
      <point x="384" y="65"/>
      <point x="469" y="197" type="curve" smooth="yes"/>
      <point x="532" y="295"/>
      <point x="560" y="323"/>
      <point x="604" y="323" type="curve" smooth="yes"/>
      <point x="634" y="323"/>
      <point x="663" y="297"/>
      <point x="663" y="252" type="curve" smooth="yes"/>
      <point x="663" y="161"/>
      <point x="616" y="120"/>
      <point x="556" y="120" type="curve" smooth="yes"/>
      <point x="502" y="120"/>
      <point x="438" y="154"/>
      <point x="389" y="215" type="curve"/>
      <point x="365" y="172" type="line"/>
      <point x="411" y="91"/>
      <point x="509" y="37"/>
      <point x="594" y="37" type="curve" smooth="yes"/>
      <point x="673" y="37"/>
      <point x="741" y="85"/>
      <point x="741" y="203" type="curve" smooth="yes"/>
      <point x="741" y="333"/>
      <point x="651" y="417"/>
      <point x="557" y="417" type="curve" smooth="yes"/>
      <point x="499" y="417"/>
      <point x="428" y="364"/>
      <point x="377" y="269" type="curve" smooth="yes"/>
      <point x="310" y="145"/>
      <point x="276" y="115"/>
      <point x="215" y="115" type="curve" smooth="yes"/>
      <point x="175" y="115"/>
      <point x="145" y="147"/>
      <point x="145" y="196" type="curve" smooth="yes"/>
      <point x="145" y="266"/>
      <point x="181" y="304"/>
      <point x="242" y="304" type="curve" smooth="yes"/>
      <point x="287" y="304"/>
      <point x="344" y="284"/>
      <point x="411" y="231" type="curve"/>
    </contour>
    <contour>
      <point x="417" y="-32" type="move" name="nukta"/>
    </contour>
    <contour>
      <point x="645" y="10" type="move" name="bottom"/>
    </contour>
    <contour>
      <point x="611" y="580" type="move" name="top"/>
    </contour>
  </outline>
</glyph>
<glyph name="vadeva" format="1">
  <advance width="681"/>
  <unicode hex="0935"/>
  <note>
    dVa
  </note>
  <outline>
    <contour>
      <point x="415" y="0" type="line"/>
      <point x="545" y="0" type="line"/>
      <point x="545" y="502" type="line"/>
      <point x="666" y="502" type="line"/>
      <point x="644" y="580" type="line"/>
      <point x="15" y="580" type="line"/>
      <point x="38" y="502" type="line"/>
      <point x="415" y="502" type="line"/>
    </contour>
    <contour>
      <point x="128" y="436"/>
      <point x="55" y="368"/>
      <point x="55" y="259" type="curve" smooth="yes"/>
      <point x="55" y="138"/>
      <point x="145" y="65"/>
      <point x="253" y="65" type="curve" smooth="yes"/>
      <point x="314" y="65"/>
      <point x="390" y="88"/>
      <point x="463" y="153" type="curve"/>
      <point x="463" y="249" type="line"/>
      <point x="399" y="190"/>
      <point x="312" y="144"/>
      <point x="247" y="144" type="curve" smooth="yes"/>
      <point x="194" y="144"/>
      <point x="156" y="168"/>
      <point x="157" y="223" type="curve" smooth="yes"/>
      <point x="158" y="297"/>
      <point x="202" y="338"/>
      <point x="261" y="338" type="curve" smooth="yes"/>
      <point x="315" y="338"/>
      <point x="381" y="313"/>
      <point x="440" y="272" type="curve"/>
      <point x="443" y="340" type="line"/>
      <point x="393" y="397"/>
      <point x="308" y="436"/>
      <point x="228" y="436" type="curve" smooth="yes"/>
    </contour>
    <contour>
      <point x="83" y="-20" type="move" name="nukta"/>
    </contour>
    <contour>
      <point x="481" y="0" type="move" name="bottom"/>
    </contour>
    <contour>
      <point x="481" y="580" type="move" name="top"/>
    </contour>
  </outline>
</glyph>
<glyph name="shadeva" format="1">
  <advance width="781"/>
  <unicode hex="0936"/>
  <note>
    dSha
  </note>
  <outline>
    <contour>
      <point x="192" y="42"/>
      <point x="261" y="-14"/>
      <point x="352" y="-80" type="curve"/>
      <point x="436" y="2" type="line"/>
      <point x="340" y="51"/>
      <point x="257" y="84"/>
      <point x="182" y="202" type="curve"/>
      <point x="123" y="187" type="line"/>
    </contour>
    <contour>
      <point x="365" y="309" type="line"/>
      <point x="284" y="338"/>
      <point x="244" y="399"/>
      <point x="244" y="439" type="curve" smooth="yes"/>
      <point x="244" y="472"/>
      <point x="257" y="490"/>
      <point x="281" y="490" type="curve" smooth="yes"/>
      <point x="312" y="490"/>
      <point x="332" y="458"/>
      <point x="332" y="396" type="curve"/>
      <point x="332" y="284"/>
      <point x="265" y="203"/>
      <point x="214" y="202" type="curve"/>
      <point x="222" y="243"/>
      <point x="207" y="295"/>
      <point x="144" y="295" type="curve" smooth="yes"/>
      <point x="100" y="295"/>
      <point x="71" y="262"/>
      <point x="71" y="221" type="curve" smooth="yes"/>
      <point x="71" y="172"/>
      <point x="124" y="128"/>
      <point x="196" y="128" type="curve" smooth="yes"/>
      <point x="295" y="128"/>
      <point x="450" y="235"/>
      <point x="450" y="390" type="curve" smooth="yes"/>
      <point x="450" y="512"/>
      <point x="355" y="559"/>
      <point x="270" y="559" type="curve" smooth="yes"/>
      <point x="177" y="559"/>
      <point x="129" y="510"/>
      <point x="129" y="445" type="curve" smooth="yes"/>
      <point x="129" y="380"/>
      <point x="194" y="299"/>
      <point x="329" y="250" type="curve"/>
    </contour>
    <contour>
      <point x="525" y="0" type="line"/>
      <point x="655" y="0" type="line"/>
      <point x="655" y="502" type="line"/>
      <point x="766" y="502" type="line"/>
      <point x="744" y="580" type="line"/>
      <point x="15" y="580" type="line"/>
      <point x="38" y="502" type="line"/>
      <point x="525" y="502" type="line"/>
    </contour>
    <contour>
      <point x="138" y="-73" type="move" name="nukta"/>
    </contour>
    <contour>
      <point x="592" y="0" type="move" name="bottom"/>
    </contour>
    <contour>
      <point x="592" y="580" type="move" name="top"/>
    </contour>
  </outline>
</glyph>
<glyph name="ssadeva" format="1">
  <advance width="642"/>
  <unicode hex="0937"/>
  <note>
    dSsa
  </note>
  <outline>
    <contour>
      <point x="165.608" y="512.37" type="line"/>
      <point x="428.103" y="159.966" type="line"/>
      <point x="471.452" y="195.433" type="line"/>
      <point x="210.861" y="551.159" type="line"/>
    </contour>
    <component base="padeva"/>
    <contour>
      <point x="103" y="34" type="move" name="nukta"/>
    </contour>
    <contour>
      <point x="453" y="0" type="move" name="bottom"/>
    </contour>
    <contour>
      <point x="453" y="580" type="move" name="top"/>
    </contour>
  </outline>
</glyph>
<glyph name="sadeva" format="1">
  <advance width="689"/>
  <unicode hex="0938"/>
  <note>
    dSa
  </note>
  <outline>
    <contour>
      <point x="392" y="77" type="line"/>
      <point x="290" y="46"/>
      <point x="186" y="94"/>
      <point x="144" y="182" type="curve"/>
      <point x="258" y="194"/>
      <point x="348" y="348"/>
      <point x="264" y="529" type="curve"/>
      <point x="151" y="529" type="line"/>
      <point x="203" y="435"/>
      <point x="203" y="362"/>
      <point x="169" y="305" type="curve"/>
      <point x="147" y="328"/>
      <point x="117" y="342"/>
      <point x="89" y="342" type="curve" smooth="yes"/>
      <point x="45" y="342"/>
      <point x="20" y="316"/>
      <point x="20" y="266" type="curve" smooth="yes"/>
      <point x="20" y="170"/>
      <point x="138" y="-48"/>
      <point x="362" y="-43" type="curve"/>
    </contour>
    <contour>
      <point x="451" y="0" type="line"/>
      <point x="581" y="0" type="line"/>
      <point x="581" y="502" type="line"/>
      <point x="674" y="502" type="line"/>
      <point x="652" y="580" type="line"/>
      <point x="15" y="580" type="line"/>
      <point x="38" y="502" type="line"/>
      <point x="451" y="502" type="line"/>
    </contour>
    <contour>
      <point x="514" y="289" type="line"/>
      <point x="430" y="235"/>
      <point x="278" y="213"/>
      <point x="203" y="287" type="curve"/>
      <point x="161" y="244" type="line"/>
      <point x="238" y="143"/>
      <point x="385" y="131"/>
      <point x="514" y="181" type="curve"/>
    </contour>
    <contour>
      <point x="69" y="-39" type="move" name="nukta"/>
    </contour>
    <contour>
      <point x="518" y="0" type="move" name="bottom"/>
    </contour>
    <contour>
      <point x="518" y="580" type="move" name="top"/>
    </contour>
  </outline>
</glyph>
<glyph name="uni093A" format="1">
  <advance width="300"/>
  <unicode hex="093A"/>
  <outline>
    <contour>
      <point x="85" y="519" type="line"/>
      <point x="215" y="519" type="line"/>
      <point x="215" y="721" type="line"/>
      <point x="85" y="721" type="line"/>
    </contour>
  </outline>
</glyph>
<glyph name="uni093E" format="1">
  <advance width="381"/>
  <unicode hex="093E"/>
  <outline>
    <contour>
      <point x="125" y="0" type="line"/>
      <point x="255" y="0" type="line"/>
      <point x="255" y="502" type="line"/>
      <point x="366" y="502" type="line"/>
      <point x="344" y="580" type="line"/>
      <point x="15" y="580" type="line"/>
      <point x="38" y="502" type="line"/>
      <point x="125" y="502" type="line"/>
    </contour>
    <contour>
      <point x="191" y="580" type="move" name="top"/>
    </contour>
    <contour>
      <point x="191" y="0" type="move" name="bottom"/>
    </contour>
  </outline>
</glyph>
<glyph name="uni093F" format="1">
  <advance width="354"/>
  <unicode hex="093F"/>
  <note>
    dMatraI
  </note>
  <outline>
    <contour>
      <point x="125" y="0" type="line"/>
      <point x="255" y="0" type="line"/>
      <point x="255" y="502" type="line"/>
      <point x="366" y="502" type="line"/>
      <point x="344" y="580" type="line"/>
      <point x="15" y="580" type="line"/>
      <point x="38" y="502" type="line"/>
      <point x="125" y="502" type="line"/>
    </contour>
    <contour>
      <point x="244" y="535" type="line"/>
      <point x="215" y="591"/>
      <point x="201" y="639"/>
      <point x="201" y="675" type="curve" smooth="yes"/>
      <point x="201" y="734"/>
      <point x="238" y="766"/>
      <point x="313" y="764" type="curve" smooth="yes"/>
      <point x="392" y="762"/>
      <point x="520" y="697"/>
      <point x="584" y="606" type="curve"/>
      <point x="645" y="626" type="line"/>
      <point x="570" y="773"/>
      <point x="393" y="861"/>
      <point x="258" y="861" type="curve" smooth="yes"/>
      <point x="146" y="861"/>
      <point x="97" y="801"/>
      <point x="97" y="721" type="curve" smooth="yes"/>
      <point x="97" y="660"/>
      <point x="126" y="587"/>
      <point x="179" y="521" type="curve"/>
    </contour>
    <contour>
      <point x="645" y="626" type="move" name="imatra"/>
    </contour>
    <contour>
      <point x="608" y="614" type="move" name="top"/>
    </contour>
  </outline>
</glyph>
<glyph name="uni094E" format="1">
  <advance width="331"/>
  <unicode hex="094E"/>
  <outline>
    <contour>
      <point x="105" y="0" type="line"/>
      <point x="235" y="0" type="line"/>
      <point x="235" y="502" type="line"/>
      <point x="346" y="502" type="line"/>
      <point x="324" y="580" type="line"/>
      <point x="105" y="580" type="line"/>
    </contour>
  </outline>
</glyph>
<glyph name="awVowel-deva" format="1">
  <advance width="381"/>
  <unicode hex="094F"/>
  <outline>
    <contour>
      <point x="187" y="513" type="line"/>
      <point x="200" y="685"/>
      <point x="89" y="713"/>
      <point x="2" y="689" type="curve" smooth="yes"/>
      <point x="-55" y="674"/>
      <point x="-100" y="664"/>
      <point x="-151" y="746" type="curve"/>
      <point x="-184" y="724" type="line"/>
      <point x="-128" y="612"/>
      <point x="-60" y="589"/>
      <point x="32" y="609" type="curve" smooth="yes"/>
      <point x="101" y="623"/>
      <point x="147" y="612"/>
      <point x="169" y="514" type="curve"/>
    </contour>
    <contour>
      <point x="202" y="518" type="line"/>
      <point x="288" y="739"/>
      <point x="190" y="852"/>
      <point x="57" y="818" type="curve" smooth="yes"/>
      <point x="-23" y="797"/>
      <point x="-79" y="790"/>
      <point x="-111" y="858" type="curve"/>
      <point x="-145" y="840" type="line"/>
      <point x="-99" y="726"/>
      <point x="-14" y="719"/>
      <point x="59" y="736" type="curve" smooth="yes"/>
      <point x="160" y="759"/>
      <point x="200" y="661"/>
      <point x="168" y="532" type="curve"/>
    </contour>
    <component base="uni093E"/>
  </outline>
</glyph>
<glyph name="rrvocalicdeva" format="1">
  <advance width="923"/>
  <unicode hex="0960"/>
  <note>
    dVocalicRr
  </note>
  <outline>
    <contour>
      <point x="651" y="450"/>
      <point x="608" y="417"/>
      <point x="607" y="356" type="curve"/>
      <point x="576" y="338"/>
      <point x="533" y="321"/>
      <point x="488" y="319" type="curve"/>
      <point x="489" y="248" type="line"/>
      <point x="562" y="252"/>
      <point x="600" y="285"/>
      <point x="655" y="307" type="curve"/>
      <point x="717" y="283"/>
      <point x="769" y="326"/>
      <point x="769" y="372" type="curve" smooth="yes"/>
      <point x="769" y="422"/>
      <point x="736" y="450"/>
      <point x="695" y="450" type="curve" smooth="yes"/>
    </contour>
    <contour>
      <point x="862" y="136" type="line"/>
      <point x="793" y="63"/>
      <point x="715" y="28"/>
      <point x="687" y="68" type="curve" smooth="yes"/>
      <point x="664" y="100"/>
      <point x="708" y="163"/>
      <point x="826" y="200" type="curve"/>
      <point x="784" y="276" type="line"/>
      <point x="720" y="232"/>
      <point x="679" y="232"/>
      <point x="664" y="252" type="curve" smooth="yes"/>
      <point x="654" y="268"/>
      <point x="657" y="294"/>
      <point x="685" y="324" type="curve"/>
      <point x="608" y="337" type="line"/>
      <point x="565" y="288"/>
      <point x="563" y="243"/>
      <point x="589" y="209" type="curve" smooth="yes"/>
      <point x="613" y="179"/>
      <point x="659" y="158"/>
      <point x="718" y="153" type="curve"/>
      <point x="706" y="220" type="line"/>
      <point x="593" y="181"/>
      <point x="582" y="86"/>
      <point x="626" y="27" type="curve" smooth="yes"/>
      <point x="681" y="-47"/>
      <point x="824" y="-48"/>
      <point x="908" y="50" type="curve"/>
    </contour>
    <contour>
      <point x="385" y="0" type="line"/>
      <point x="515" y="0" type="line"/>
      <point x="515" y="502" type="line"/>
      <point x="889" y="502" type="line"/>
      <point x="867" y="580" type="line"/>
      <point x="15" y="580" type="line"/>
      <point x="38" y="502" type="line"/>
      <point x="385" y="502" type="line"/>
    </contour>
    <contour>
      <point x="101" y="53" type="line"/>
      <point x="162" y="-39" type="line"/>
      <point x="440.428" y="167.55" type="line"/>
      <point x="434.719" y="286.013" type="line"/>
    </contour>
    <contour>
      <point x="350" y="395"/>
      <point x="267" y="446"/>
      <point x="177" y="446" type="curve" smooth="yes"/>
      <point x="131" y="446"/>
      <point x="86" y="430"/>
      <point x="44" y="402" type="curve"/>
      <point x="100" y="304" type="line"/>
      <point x="128" y="321"/>
      <point x="161" y="332"/>
      <point x="202" y="332" type="curve" smooth="yes"/>
      <point x="264" y="332"/>
      <point x="339" y="305"/>
      <point x="428" y="236" type="curve"/>
      <point x="470" y="294" type="line"/>
    </contour>
    <contour>
      <point x="447" y="580" type="move" name="top"/>
    </contour>
    <contour>
      <point x="448" y="0" type="move" name="bottom"/>
    </contour>
  </outline>
</glyph>
<glyph name="danda-deva" format="1">
  <advance width="330"/>
  <unicode hex="0964"/>
  <outline>
    <contour>
      <point x="230" y="0" type="line"/>
      <point x="230" y="596" type="line"/>
      <point x="100" y="596" type="line"/>
      <point x="100" y="0" type="line"/>
    </contour>
  </outline>
</glyph>
<glyph name="uni097B" format="1">
  <advance width="651"/>
  <unicode hex="097B"/>
  <note>
    dGga
  </note>
  <outline>
    <contour>
      <point x="512" y="-78" type="line"/>
      <point x="512" y="0" type="line"/>
      <point x="15" y="0" type="line"/>
      <point x="38" y="-78" type="line"/>
    </contour>
    <component base="gadeva"/>
  </outline>
</glyph>
<glyph name="uni097C" format="1">
  <advance width="764"/>
  <unicode hex="097C"/>
  <note>
    dJja
  </note>
  <outline>
    <contour>
      <point x="662" y="-78" type="line"/>
      <point x="662" y="0" type="line"/>
      <point x="15" y="0" type="line"/>
      <point x="38" y="-78" type="line"/>
    </contour>
    <component base="jadeva"/>
  </outline>
</glyph>
<glyph name="uni097F" format="1">
  <advance width="681"/>
  <unicode hex="097F"/>
  <note>
    dBba
  </note>
  <outline>
    <contour>
      <point x="168" y="374" type="line"/>
      <point x="133" y="326" type="line"/>
      <point x="404" y="115" type="line"/>
      <point x="439" y="163" type="line"/>
    </contour>
    <contour>
      <point x="545" y="-78" type="line"/>
      <point x="545" y="0" type="line"/>
      <point x="15" y="0" type="line"/>
      <point x="38" y="-78" type="line"/>
    </contour>
    <component base="vadeva"/>
  </outline>
</glyph>
<glyph name="guilsinglright" format="1">
  <advance width="378"/>
  <unicode hex="203A"/>
  <outline>
    <contour>
      <point x="33" y="498" type="line"/>
      <point x="215" y="275" type="line"/>
      <point x="215" y="274" type="line"/>
      <point x="33" y="39" type="line"/>
      <point x="88" y="-16" type="line"/>
      <point x="359" y="262" type="line"/>
      <point x="359" y="284" type="line"/>
      <point x="90" y="553" type="line"/>
    </contour>
  </outline>
</glyph>
<glyph name="uni2113" format="1">
  <advance width="443"/>
  <unicode hex="2113"/>
  <outline>
    <contour>
      <point x="171" y="760"/>
      <point x="102" y="691"/>
      <point x="102" y="542" type="curve" smooth="yes"/>
      <point x="102" y="198" type="line" smooth="yes"/>
      <point x="102" y="143"/>
      <point x="106" y="105"/>
      <point x="115" y="83" type="curve" smooth="yes"/>
      <point x="138" y="22"/>
      <point x="194" y="-16"/>
      <point x="258" y="-16" type="curve" smooth="yes"/>
      <point x="348" y="-16"/>
      <point x="408" y="58"/>
      <point x="433" y="154" type="curve"/>
      <point x="405" y="160" type="line"/>
      <point x="373" y="59"/>
      <point x="328" y="22"/>
      <point x="282" y="22" type="curve" smooth="yes"/>
      <point x="227" y="22"/>
      <point x="188" y="57"/>
      <point x="188" y="164" type="curve" smooth="yes"/>
      <point x="188" y="581" type="line" smooth="yes"/>
      <point x="188" y="693"/>
      <point x="223" y="724"/>
      <point x="264" y="724" type="curve" smooth="yes"/>
      <point x="300" y="724"/>
      <point x="330" y="700"/>
      <point x="330" y="633" type="curve" smooth="yes"/>
      <point x="330" y="572"/>
      <point x="280" y="487"/>
      <point x="181" y="378" type="curve"/>
      <point x="181" y="333" type="line"/>
      <point x="258" y="419"/>
      <point x="310" y="486"/>
      <point x="333" y="531" type="curve" smooth="yes"/>
      <point x="357" y="575"/>
      <point x="369" y="616"/>
      <point x="369" y="653" type="curve" smooth="yes"/>
      <point x="369" y="717"/>
      <point x="328" y="760"/>
      <point x="260" y="760" type="curve" smooth="yes"/>
    </contour>
    <contour>
      <point x="-10" y="179" type="line"/>
      <point x="11" y="159" type="line"/>
      <point x="107" y="254" type="line"/>
      <point x="105" y="294" type="line"/>
    </contour>
  </outline>
</glyph>
<glyph name="partialdiff" format="1">
  <advance width="532"/>
  <unicode hex="2202"/>
  <outline>
    <contour>
      <point x="129" y="685" type="line"/>
      <point x="286" y="698"/>
      <point x="339" y="573"/>
      <point x="353" y="475" type="curve"/>
      <point x="352" y="475" type="line"/>
      <point x="335" y="492"/>
      <point x="293" y="503"/>
      <point x="271" y="503" type="curve" smooth="yes"/>
      <point x="141" y="503"/>
      <point x="44" y="389"/>
      <point x="44" y="208" type="curve" smooth="yes"/>
      <point x="44" y="62"/>
      <point x="133" y="-16"/>
      <point x="227" y="-16" type="curve" smooth="yes"/>
      <point x="357" y="-16"/>
      <point x="479" y="77"/>
      <point x="479" y="339" type="curve" smooth="yes"/>
      <point x="479" y="578"/>
      <point x="385" y="797"/>
      <point x="127" y="757" type="curve"/>
    </contour>
    <contour>
      <point x="326" y="434"/>
      <point x="348" y="408"/>
      <point x="354" y="398" type="curve"/>
      <point x="367" y="271"/>
      <point x="346" y="60"/>
      <point x="250" y="56" type="curve"/>
      <point x="208" y="56"/>
      <point x="175" y="95"/>
      <point x="175" y="213" type="curve" smooth="yes"/>
      <point x="175" y="342"/>
      <point x="227" y="431"/>
      <point x="285" y="433" type="curve" smooth="yes"/>
    </contour>
  </outline>
</glyph>
<glyph name="summation" format="1">
  <advance width="679"/>
  <unicode hex="2211"/>
  <outline>
    <contour>
      <point x="34" y="700" type="line"/>
      <point x="34" y="623" type="line"/>
      <point x="48" y="624"/>
      <point x="63" y="624"/>
      <point x="84" y="625" type="curve"/>
      <point x="89" y="615"/>
      <point x="99" y="589"/>
      <point x="107" y="573" type="curve" smooth="yes"/>
      <point x="307" y="209" type="line"/>
      <point x="307" y="208" type="line"/>
      <point x="160" y="-88" type="line" smooth="yes"/>
      <point x="122" y="-159"/>
      <point x="103" y="-186"/>
      <point x="58" y="-188" type="curve"/>
      <point x="58" y="-254" type="line"/>
      <point x="620" y="-254" type="line"/>
      <point x="625" y="-34" type="line"/>
      <point x="560" y="-34" type="line"/>
      <point x="560" y="-143"/>
      <point x="497" y="-178"/>
      <point x="438" y="-178" type="curve" smooth="yes"/>
      <point x="194" y="-179" type="line"/>
      <point x="210" y="-156"/>
      <point x="226" y="-128"/>
      <point x="233" y="-114" type="curve" smooth="yes"/>
      <point x="426" y="271" type="line"/>
      <point x="426" y="287" type="line"/>
      <point x="238" y="634" type="line"/>
      <point x="416" y="635" type="line" smooth="yes"/>
      <point x="470" y="636"/>
      <point x="537" y="615"/>
      <point x="537" y="506" type="curve"/>
      <point x="603" y="506" type="line"/>
      <point x="597" y="700" type="line"/>
    </contour>
  </outline>
</glyph>
<glyph name="notequal" format="1">
  <advance width="544"/>
  <unicode hex="2260"/>
  <outline>
    <contour>
      <point x="318" y="439" type="line"/>
      <point x="46" y="440" type="line"/>
      <point x="46" y="345" type="line"/>
      <point x="257" y="345" type="line"/>
      <point x="198" y="254" type="line"/>
      <point x="46" y="255" type="line"/>
      <point x="46" y="159" type="line"/>
      <point x="136" y="159" type="line"/>
      <point x="84" y="79" type="line"/>
      <point x="159" y="26" type="line"/>
      <point x="246" y="160" type="line"/>
      <point x="497" y="161" type="line"/>
      <point x="497" y="253" type="line"/>
      <point x="307" y="253" type="line"/>
      <point x="367" y="346" type="line"/>
      <point x="497" y="346" type="line"/>
      <point x="497" y="439" type="line"/>
      <point x="428" y="439" type="line"/>
      <point x="471" y="506" type="line"/>
      <point x="395" y="557" type="line"/>
    </contour>
  </outline>
</glyph>
<glyph name="Grave" format="1">
  <advance width="293"/>
  <outline>
    <contour>
      <point x="20" y="885"/>
      <point x="42" y="845"/>
      <point x="73" y="825" type="curve" smooth="yes"/>
      <point x="215" y="750" type="line"/>
      <point x="251" y="799" type="line"/>
      <point x="140" y="917" type="line" smooth="yes"/>
      <point x="112" y="945"/>
      <point x="68" y="952"/>
      <point x="43" y="919" type="curve" smooth="yes"/>
    </contour>
    <contour>
      <point x="152" y="700" type="move" name="_top"/>
    </contour>
  </outline>
</glyph>
<glyph name="Ring" format="1">
  <advance width="355"/>
  <outline>
    <contour>
      <point x="111" y="1006"/>
      <point x="41" y="952"/>
      <point x="44" y="872" type="curve" smooth="yes"/>
      <point x="47" y="788"/>
      <point x="114" y="751"/>
      <point x="178" y="751" type="curve" smooth="yes"/>
      <point x="242" y="751"/>
      <point x="313" y="801"/>
      <point x="311" y="885" type="curve" smooth="yes"/>
      <point x="307" y="968"/>
      <point x="238" y="1006"/>
      <point x="177" y="1006" type="curve" smooth="yes"/>
    </contour>
    <contour>
      <point x="202" y="956"/>
      <point x="222" y="925"/>
      <point x="222" y="867" type="curve" smooth="yes"/>
      <point x="222" y="826"/>
      <point x="206" y="806"/>
      <point x="184" y="805" type="curve" smooth="yes"/>
      <point x="154" y="803"/>
      <point x="133" y="832"/>
      <point x="133" y="885" type="curve" smooth="yes"/>
      <point x="133" y="926"/>
      <point x="149" y="951"/>
      <point x="173" y="953" type="curve" smooth="yes"/>
    </contour>
  </outline>
</glyph>
<glyph name=".notdef" format="1">
  <advance width="500"/>
  <outline>
    <contour>
      <point x="27" y="-24" type="line"/>
      <point x="474" y="-24" type="line"/>
      <point x="474" y="700" type="line"/>
      <point x="27" y="700" type="line"/>
    </contour>
    <contour>
      <point x="142" y="586" type="line"/>
      <point x="358" y="586" type="line"/>
      <point x="358" y="90" type="line"/>
      <point x="142" y="90" type="line"/>
    </contour>
    <contour>
      <point x="389" y="145" type="line"/>
      <point x="447" y="205" type="line"/>
      <point x="114" y="529" type="line"/>
      <point x="56" y="469" type="line"/>
    </contour>
    <contour>
      <point x="389" y="529" type="line"/>
      <point x="56" y="205" type="line"/>
      <point x="114" y="145" type="line"/>
      <point x="447" y="469" type="line"/>
    </contour>
  </outline>
</glyph>
<glyph name="uni092C094D_radeva" format="1">
  <advance width="681"/>
  <note>
    dBRa
  </note>
  <outline>
    <contour>
      <point x="429" y="204" type="line"/>
      <point x="98" y="2" type="line"/>
      <point x="171" y="-86" type="line"/>
      <point x="429" y="130" type="line"/>
    </contour>
    <component base="uni092C"/>
    <contour>
      <point x="483" y="580" type="move" name="top"/>
    </contour>
    <contour>
      <point x="481" y="0" type="move" name="bottom"/>
    </contour>
  </outline>
</glyph>
<glyph name="uni092D094D" format="1">
  <advance width="571"/>
  <outline>
    <contour>
      <point x="235" y="181" type="line"/>
      <point x="541" y="181" type="line"/>
      <point x="541" y="259" type="line"/>
      <point x="258" y="259" type="line"/>
    </contour>
    <contour>
      <point x="291" y="374" type="line"/>
      <point x="210" y="386"/>
      <point x="163" y="430"/>
      <point x="163" y="497" type="curve" smooth="yes"/>
      <point x="163" y="523"/>
      <point x="175" y="536"/>
      <point x="194" y="536" type="curve" smooth="yes"/>
      <point x="243" y="536"/>
      <point x="255" y="443"/>
      <point x="235" y="181" type="curve"/>
      <point x="361" y="198" type="line"/>
      <point x="362" y="460"/>
      <point x="308" y="595"/>
      <point x="171" y="595" type="curve" smooth="yes"/>
      <point x="102" y="595"/>
      <point x="50" y="557"/>
      <point x="50" y="494" type="curve" smooth="yes"/>
      <point x="50" y="395"/>
      <point x="177" y="324"/>
      <point x="285" y="318" type="curve"/>
    </contour>
    <contour>
      <point x="500" y="502" type="line"/>
      <point x="478" y="580" type="line"/>
      <point x="389" y="580" type="line"/>
      <point x="412" y="502" type="line"/>
    </contour>
    <component base="deva_knot" xOffset="143" yOffset="-59"/>
    <contour>
      <point x="205" y="-54" type="move" name="nukta"/>
    </contour>
    <contour>
      <point x="571" y="0" type="move" name="bottom"/>
    </contour>
    <contour>
      <point x="571" y="580" type="move" name="top"/>
    </contour>
  </outline>
</glyph>
<glyph name="uni092D094D0932.loclMAR" format="1">
  <advance width="721"/>
  <note>
    dBhLa.MAR
  </note>
  <outline>
    <contour>
      <point x="189" y="414"/>
      <point x="155" y="438"/>
      <point x="155" y="488" type="curve" smooth="yes"/>
      <point x="155" y="510"/>
      <point x="170" y="527"/>
      <point x="194" y="527" type="curve" smooth="yes"/>
      <point x="214" y="527"/>
      <point x="226" y="516"/>
      <point x="234" y="482" type="curve" smooth="yes"/>
      <point x="238" y="467"/>
      <point x="240" y="450"/>
      <point x="240" y="431" type="curve" smooth="yes"/>
      <point x="240" y="400"/>
      <point x="233" y="366"/>
      <point x="219" y="329" type="curve"/>
      <point x="176" y="329"/>
      <point x="103" y="325"/>
      <point x="103" y="292" type="curve" smooth="yes"/>
      <point x="103" y="248"/>
      <point x="213" y="125"/>
      <point x="275" y="125" type="curve" smooth="yes"/>
      <point x="305" y="125"/>
      <point x="333" y="184"/>
      <point x="346" y="213" type="curve"/>
      <point x="487" y="213" type="line"/>
      <point x="487" y="93" type="line"/>
      <point x="630" y="56" type="line"/>
      <point x="630" y="487" type="line"/>
      <point x="744" y="487" type="line"/>
      <point x="723" y="580" type="line"/>
      <point x="385" y="580" type="line"/>
      <point x="411" y="487" type="line"/>
      <point x="487" y="487" type="line"/>
      <point x="487" y="329" type="line"/>
      <point x="368" y="329" type="line"/>
      <point x="372" y="362"/>
      <point x="373" y="377"/>
      <point x="373" y="401" type="curve" smooth="yes"/>
      <point x="373" y="433"/>
      <point x="362" y="486"/>
      <point x="322" y="526" type="curve" smooth="yes"/>
      <point x="286" y="562"/>
      <point x="247" y="592"/>
      <point x="169" y="592" type="curve" smooth="yes"/>
      <point x="104" y="592"/>
      <point x="21" y="566"/>
      <point x="21" y="482" type="curve" smooth="yes"/>
      <point x="21" y="415"/>
      <point x="94" y="362"/>
      <point x="239" y="360" type="curve"/>
      <point x="243" y="396" type="line"/>
    </contour>
    <contour>
      <point x="394" y="39" type="line"/>
      <point x="346" y="78"/>
      <point x="300" y="101"/>
      <point x="258" y="101" type="curve" smooth="yes"/>
      <point x="185" y="101"/>
      <point x="114" y="61"/>
      <point x="114" y="-29" type="curve" smooth="yes"/>
      <point x="114" y="-123"/>
      <point x="186" y="-201"/>
      <point x="343" y="-280" type="curve"/>
      <point x="373" y="-232" type="line"/>
      <point x="278" y="-159"/>
      <point x="251" y="-108"/>
      <point x="251" y="-51" type="curve" smooth="yes"/>
      <point x="251" y="-3"/>
      <point x="279" y="23"/>
      <point x="316" y="23" type="curve" smooth="yes"/>
      <point x="332" y="23"/>
      <point x="357" y="16"/>
      <point x="378" y="5" type="curve"/>
    </contour>
    <contour>
      <point x="364" y="17"/>
      <point x="352" y="-26"/>
      <point x="344" y="-81" type="curve"/>
      <point x="465" y="-107" type="line"/>
      <point x="483" y="7"/>
      <point x="518" y="33"/>
      <point x="555" y="33" type="curve" smooth="yes"/>
      <point x="575" y="33"/>
      <point x="591" y="26"/>
      <point x="596" y="20" type="curve" smooth="yes"/>
      <point x="602" y="12"/>
      <point x="604" y="-12"/>
      <point x="604" y="-23" type="curve" smooth="yes"/>
      <point x="604" y="-104"/>
      <point x="533" y="-155"/>
      <point x="460" y="-213" type="curve"/>
      <point x="579" y="-285" type="line"/>
      <point x="676" y="-208"/>
      <point x="700" y="-141"/>
      <point x="700" y="-82" type="curve" smooth="yes"/>
      <point x="700" y="5"/>
      <point x="612" y="104"/>
      <point x="522" y="104" type="curve" smooth="yes"/>
      <point x="474" y="104"/>
      <point x="424" y="84"/>
      <point x="393" y="47" type="curve" smooth="yes"/>
    </contour>
    <contour>
      <point x="559" y="580" type="move" name="top"/>
    </contour>
    <contour>
      <point x="534" y="-220" type="move" name="bottom"/>
    </contour>
  </outline>
</glyph>
<glyph name="uni091A094D" format="1">
  <advance width="512"/>
  <outline>
    <contour>
      <point x="458" y="502" type="line"/>
      <point x="436" y="580" type="line"/>
      <point x="15" y="580" type="line"/>
      <point x="38" y="502" type="line"/>
    </contour>
    <contour>
      <point x="201" y="362"/>
      <point x="129" y="288"/>
      <point x="129" y="202" type="curve" smooth="yes"/>
      <point x="129" y="126"/>
      <point x="200" y="56"/>
      <point x="330" y="56" type="curve" smooth="yes"/>
      <point x="405" y="56"/>
      <point x="469" y="84"/>
      <point x="555.653" y="179.213" type="curve"/>
      <point x="474.074" y="280.149" type="line"/>
      <point x="431.551" y="183.592"/>
      <point x="375" y="133"/>
      <point x="293" y="133" type="curve" smooth="yes"/>
      <point x="257" y="133"/>
      <point x="233" y="155"/>
      <point x="233" y="202" type="curve" smooth="yes"/>
      <point x="233" y="257"/>
      <point x="285" y="338"/>
      <point x="379" y="338" type="curve"/>
      <point x="358" y="388" type="line"/>
    </contour>
    <contour>
      <point x="379" y="416" type="line"/>
      <point x="21" y="416" type="line"/>
      <point x="44" y="338" type="line"/>
      <point x="401" y="338" type="line"/>
    </contour>
  </outline>
</glyph>
<glyph name="uni091A094D091B094D_vadeva" format="1">
  <advance width="1032"/>
  <note>
    dCChVa
  </note>
  <outline>
    <contour>
      <point x="458" y="502" type="line"/>
      <point x="436" y="580" type="line"/>
      <point x="15" y="580" type="line"/>
      <point x="38" y="502" type="line"/>
    </contour>
    <contour>
      <point x="206" y="368"/>
      <point x="132" y="312"/>
      <point x="131" y="226" type="curve" smooth="yes"/>
      <point x="129" y="59"/>
      <point x="372" y="-11"/>
      <point x="566" y="129" type="curve"/>
      <point x="504" y="212" type="line"/>
      <point x="439" y="138"/>
      <point x="375" y="105"/>
      <point x="310" y="105" type="curve" smooth="yes"/>
      <point x="196" y="105"/>
      <point x="210" y="308"/>
      <point x="339" y="308" type="curve"/>
      <point x="304" y="368" type="line"/>
    </contour>
    <contour>
      <point x="329" y="386" type="line"/>
      <point x="42" y="386" type="line"/>
      <point x="65" y="308" type="line"/>
      <point x="351" y="308" type="line"/>
    </contour>
    <component base="uni091B094D_vadeva" xOffset="282"/>
  </outline>
</glyph>
<glyph name="uni091A094D_radeva" format="1">
  <advance width="703"/>
  <note>
    dCRa
  </note>
  <outline>
    <contour>
      <point x="491" y="243" type="line"/>
      <point x="181" y="-17" type="line"/>
      <point x="253" y="-93" type="line"/>
      <point x="491" y="128" type="line"/>
    </contour>
    <component base="cadeva"/>
  </outline>
</glyph>
<glyph name="uni091B094D" format="1">
  <advance width="750"/>
  <outline>
    <contour>
      <point x="455" y="434"/>
      <point x="378" y="395"/>
      <point x="378" y="314" type="curve" smooth="yes"/>
      <point x="378" y="201"/>
      <point x="519" y="137"/>
      <point x="619" y="112" type="curve"/>
      <point x="631" y="153" type="line"/>
      <point x="542" y="191"/>
      <point x="498" y="259"/>
      <point x="498" y="314" type="curve" smooth="yes"/>
      <point x="498" y="348"/>
      <point x="515" y="381"/>
      <point x="553" y="381" type="curve" smooth="yes"/>
      <point x="592" y="381"/>
      <point x="609" y="346"/>
      <point x="609" y="282" type="curve" smooth="yes"/>
      <point x="609" y="106"/>
      <point x="470" y="29"/>
      <point x="356" y="29" type="curve" smooth="yes"/>
      <point x="283" y="29"/>
      <point x="220" y="61"/>
      <point x="220" y="134" type="curve" smooth="yes"/>
      <point x="220" y="187"/>
      <point x="253" y="231"/>
      <point x="340" y="239" type="curve"/>
      <point x="324" y="304" type="line"/>
      <point x="236" y="304"/>
      <point x="121" y="261"/>
      <point x="121" y="156" type="curve" smooth="yes"/>
      <point x="121" y="48"/>
      <point x="237" y="-25"/>
      <point x="383" y="-25" type="curve" smooth="yes"/>
      <point x="561" y="-25"/>
      <point x="720" y="71"/>
      <point x="720" y="228" type="curve" smooth="yes"/>
      <point x="720" y="353"/>
      <point x="622" y="434"/>
      <point x="523" y="434" type="curve" smooth="yes"/>
    </contour>
    <contour>
      <point x="280" y="447"/>
      <point x="244" y="454"/>
      <point x="210" y="454" type="curve" smooth="yes"/>
      <point x="129" y="454"/>
      <point x="60" y="413"/>
      <point x="60" y="328" type="curve" smooth="yes"/>
      <point x="60" y="246"/>
      <point x="124" y="206"/>
      <point x="188" y="183" type="curve"/>
      <point x="206" y="229" type="line"/>
      <point x="177" y="254"/>
      <point x="162" y="286"/>
      <point x="162" y="315" type="curve" smooth="yes"/>
      <point x="162" y="354"/>
      <point x="191" y="386"/>
      <point x="252" y="386" type="curve" smooth="yes"/>
      <point x="277" y="386"/>
      <point x="304" y="380"/>
      <point x="329" y="370" type="curve"/>
      <point x="313" y="432" type="line"/>
    </contour>
    <contour>
      <point x="735" y="502" type="line"/>
      <point x="713" y="580" type="line"/>
      <point x="15" y="580" type="line"/>
      <point x="38" y="502" type="line"/>
    </contour>
  </outline>
</glyph>
<glyph name="uni091B094D0932.loclMAR" format="1">
  <advance width="690"/>
  <note>
    dChLa.MAR
  </note>
  <outline>
    <contour>
      <point x="712" y="487" type="line"/>
      <point x="691" y="580" type="line"/>
      <point x="-24" y="580" type="line"/>
      <point x="0" y="487" type="line"/>
    </contour>
    <contour>
      <point x="559" y="411" type="line"/>
      <point x="562" y="421"/>
      <point x="563" y="432"/>
      <point x="563" y="443" type="curve" smooth="yes"/>
      <point x="563" y="473"/>
      <point x="541" y="505"/>
      <point x="526" y="528" type="curve"/>
      <point x="451" y="528" type="line"/>
      <point x="454" y="512"/>
      <point x="456" y="497"/>
      <point x="455" y="481" type="curve" smooth="yes"/>
      <point x="455" y="461"/>
      <point x="450" y="440"/>
      <point x="436" y="416" type="curve"/>
    </contour>
    <contour>
      <point x="224" y="364" type="line"/>
      <point x="197" y="388"/>
      <point x="187" y="412"/>
      <point x="187" y="436" type="curve" smooth="yes"/>
      <point x="187" y="470"/>
      <point x="211" y="487"/>
      <point x="257" y="487" type="curve" smooth="yes"/>
      <point x="306" y="487" type="line"/>
      <point x="281" y="567" type="line"/>
      <point x="187" y="567" type="line" smooth="yes"/>
      <point x="98" y="567"/>
      <point x="43" y="535"/>
      <point x="43" y="471" type="curve" smooth="yes"/>
      <point x="43" y="416"/>
      <point x="94" y="361"/>
      <point x="208" y="342" type="curve"/>
    </contour>
    <contour>
      <point x="45" y="169"/>
      <point x="206" y="70"/>
      <point x="358" y="70" type="curve" smooth="yes"/>
      <point x="530" y="70"/>
      <point x="648" y="144"/>
      <point x="648" y="255" type="curve" smooth="yes"/>
      <point x="648" y="361"/>
      <point x="565" y="443"/>
      <point x="459" y="443" type="curve" smooth="yes"/>
      <point x="397" y="443"/>
      <point x="343" y="415"/>
      <point x="343" y="352" type="curve" smooth="yes"/>
      <point x="343" y="297"/>
      <point x="396" y="246"/>
      <point x="559" y="211" type="curve"/>
      <point x="568" y="244" type="line"/>
      <point x="488" y="273"/>
      <point x="463" y="300"/>
      <point x="463" y="333" type="curve" smooth="yes"/>
      <point x="463" y="363"/>
      <point x="482" y="379"/>
      <point x="505" y="379" type="curve" smooth="yes"/>
      <point x="509" y="379"/>
      <point x="515" y="379"/>
      <point x="516" y="378" type="curve" smooth="yes"/>
      <point x="520" y="373"/>
      <point x="527" y="350"/>
      <point x="527" y="319" type="curve" smooth="yes"/>
      <point x="527" y="242"/>
      <point x="409" y="155"/>
      <point x="260" y="155" type="curve" smooth="yes"/>
      <point x="239" y="155"/>
      <point x="202" y="159"/>
      <point x="190" y="165" type="curve" smooth="yes"/>
      <point x="185" y="168"/>
      <point x="176" y="194"/>
      <point x="176" y="221" type="curve" smooth="yes"/>
      <point x="176" y="275"/>
      <point x="249" y="286"/>
      <point x="320" y="303" type="curve"/>
      <point x="271" y="426" type="line"/>
      <point x="167" y="405"/>
      <point x="45" y="376"/>
      <point x="45" y="279" type="curve" smooth="yes"/>
    </contour>
    <contour>
      <point x="544" y="16" type="line"/>
      <point x="547" y="26"/>
      <point x="548" y="36"/>
      <point x="548" y="47" type="curve" smooth="yes"/>
      <point x="548" y="78"/>
      <point x="526" y="110"/>
      <point x="512" y="133" type="curve"/>
      <point x="446" y="133" type="line"/>
      <point x="449" y="116"/>
      <point x="451" y="101"/>
      <point x="450" y="86" type="curve" smooth="yes"/>
      <point x="450" y="65"/>
      <point x="445" y="45"/>
      <point x="431" y="21" type="curve"/>
    </contour>
    <contour>
      <point x="342" y="-15" type="line"/>
      <point x="294" y="24"/>
      <point x="249" y="47"/>
      <point x="207" y="47" type="curve" smooth="yes"/>
      <point x="133" y="47"/>
      <point x="62" y="7"/>
      <point x="62" y="-83" type="curve" smooth="yes"/>
      <point x="62" y="-177"/>
      <point x="134" y="-254"/>
      <point x="291" y="-334" type="curve"/>
      <point x="321" y="-286" type="line"/>
      <point x="227" y="-213"/>
      <point x="199" y="-162"/>
      <point x="199" y="-104" type="curve" smooth="yes"/>
      <point x="199" y="-57"/>
      <point x="227" y="-31"/>
      <point x="264" y="-31" type="curve" smooth="yes"/>
      <point x="280" y="-31"/>
      <point x="306" y="-38"/>
      <point x="327" y="-48" type="curve"/>
    </contour>
    <contour>
      <point x="313" y="-37"/>
      <point x="300" y="-80"/>
      <point x="292" y="-134" type="curve"/>
      <point x="414" y="-161" type="line"/>
      <point x="431" y="-47"/>
      <point x="466" y="-21"/>
      <point x="503" y="-21" type="curve" smooth="yes"/>
      <point x="523" y="-21"/>
      <point x="540" y="-27"/>
      <point x="544" y="-34" type="curve" smooth="yes"/>
      <point x="550" y="-42"/>
      <point x="553" y="-65"/>
      <point x="553" y="-77" type="curve" smooth="yes"/>
      <point x="553" y="-157"/>
      <point x="481" y="-209"/>
      <point x="408" y="-267" type="curve"/>
      <point x="527" y="-338" type="line"/>
      <point x="625" y="-262"/>
      <point x="648" y="-195"/>
      <point x="648" y="-135" type="curve" smooth="yes"/>
      <point x="648" y="-49"/>
      <point x="561" y="50"/>
      <point x="471" y="50" type="curve" smooth="yes"/>
      <point x="422" y="50"/>
      <point x="372" y="30"/>
      <point x="341" y="-7" type="curve" smooth="yes"/>
    </contour>
    <contour>
      <point x="489" y="580" type="move" name="top"/>
    </contour>
    <contour>
      <point x="487" y="-264" type="move" name="bottom"/>
    </contour>
  </outline>
</glyph>
<glyph name="uni0926094D_bhadeva" format="1">
  <advance width="828"/>
  <note>
    dDBha
  </note>
  <outline>
    <contour>
      <point x="621" y="128" type="line"/>
      <point x="585" y="99"/>
      <point x="542" y="84"/>
      <point x="503" y="84" type="curve" smooth="yes"/>
      <point x="434" y="84"/>
      <point x="374" y="127"/>
      <point x="374" y="207" type="curve" smooth="yes"/>
      <point x="374" y="281"/>
      <point x="426" y="323"/>
      <point x="519" y="323" type="curve" smooth="yes"/>
      <point x="679" y="323" type="line"/>
      <point x="679" y="502" type="line"/>
      <point x="802" y="502" type="line"/>
      <point x="780" y="580" type="line"/>
      <point x="15" y="580" type="line"/>
      <point x="38" y="502" type="line"/>
      <point x="549" y="502" type="line"/>
      <point x="549" y="401" type="line"/>
      <point x="470" y="401" type="line" smooth="yes"/>
      <point x="348" y="401"/>
      <point x="255" y="362"/>
      <point x="255" y="251" type="curve" smooth="yes"/>
      <point x="255" y="112"/>
      <point x="398" y="6"/>
      <point x="532" y="6" type="curve" smooth="yes"/>
      <point x="570" y="6"/>
      <point x="607" y="14"/>
      <point x="641" y="29" type="curve"/>
    </contour>
    <contour>
      <point x="282" y="-8" type="line"/>
      <point x="235" y="-29"/>
      <point x="203" y="-26"/>
      <point x="179" y="-9" type="curve" smooth="yes"/>
      <point x="162" y="3"/>
      <point x="147" y="25"/>
      <point x="162" y="44" type="curve" smooth="yes"/>
      <point x="199" y="91"/>
      <point x="299" y="-14"/>
      <point x="304" y="-177" type="curve"/>
      <point x="656" y="-10" type="line"/>
      <point x="608" y="63" type="line"/>
      <point x="374" y="-50" type="line"/>
      <point x="306" y="89"/>
      <point x="154" y="158"/>
      <point x="81" y="97" type="curve" smooth="yes"/>
      <point x="14" y="41"/>
      <point x="102" y="-131"/>
      <point x="307" y="-67" type="curve"/>
    </contour>
    <contour>
      <point x="451" y="-233"/>
      <point x="448" y="-200"/>
      <point x="430" y="-164" type="curve"/>
      <point x="392" y="-87" type="line"/>
      <point x="326" y="-72" type="line"/>
      <point x="259" y="-107" type="line"/>
      <point x="224" y="-124"/>
      <point x="215" y="-154"/>
      <point x="226" y="-177" type="curve"/>
      <point x="256" y="-234"/>
      <point x="380" y="-272"/>
      <point x="421" y="-250" type="curve"/>
    </contour>
    <contour>
      <point x="762" y="-79" type="line"/>
      <point x="668" y="41" type="line"/>
      <point x="688" y="50"/>
      <point x="721" y="73"/>
      <point x="721" y="118" type="curve" smooth="yes"/>
      <point x="721" y="161"/>
      <point x="691" y="186"/>
      <point x="655" y="186" type="curve" smooth="yes"/>
      <point x="618" y="186"/>
      <point x="580" y="161"/>
      <point x="580" y="98" type="curve" smooth="yes"/>
      <point x="580" y="52"/>
      <point x="619" y="-34"/>
      <point x="687" y="-140" type="curve"/>
    </contour>
    <contour>
      <point x="619" y="580" type="move" name="top"/>
    </contour>
    <contour>
      <point x="683" y="-117" type="move" name="bottom"/>
    </contour>
  </outline>
</glyph>
<glyph name="uni0926094D_bhadeva_uvowelsignd" format="1">
  <advance width="828"/>
  <outline>
    <contour>
      <point x="686" y="-128"/>
      <point x="759" y="-126"/>
      <point x="782" y="-175" type="curve" smooth="yes"/>
      <point x="808" y="-229"/>
      <point x="758" y="-277"/>
      <point x="691" y="-277" type="curve" smooth="yes"/>
      <point x="617" y="-277"/>
      <point x="566" y="-241"/>
      <point x="516" y="-183" type="curve"/>
      <point x="473" y="-218" type="line"/>
      <point x="533" y="-313"/>
      <point x="605" y="-367"/>
      <point x="685" y="-367" type="curve" smooth="yes"/>
      <point x="815" y="-367"/>
      <point x="889" y="-248"/>
      <point x="836" y="-147" type="curve" smooth="yes"/>
      <point x="807" y="-91"/>
      <point x="753" y="-56"/>
      <point x="686" y="-56" type="curve" smooth="yes"/>
      <point x="643" y="-56"/>
      <point x="600" y="-70"/>
      <point x="564" y="-97" type="curve"/>
      <point x="609" y="-177" type="line"/>
    </contour>
    <component base="uni0926094D_bhadeva"/>
    <contour>
      <point x="613" y="580" type="move" name="top"/>
    </contour>
    <contour>
      <point x="693" y="-79" type="move" name="bottom"/>
    </contour>
  </outline>
</glyph>
<glyph name="uni0926094D0927094D0930094D092F" format="1">
  <advance width="1267"/>
  <outline>
    <contour>
      <point x="461" y="-242" type="line"/>
      <point x="565" y="-272" type="line"/>
      <point x="582" y="-80" type="line"/>
      <point x="542" y="-63" type="line"/>
    </contour>
    <component base="uni0926094D0927094D092F"/>
  </outline>
</glyph>
<glyph name="uni0926094D_dhadeva" format="1">
  <advance width="701"/>
  <note>
    dDDha
  </note>
  <outline>
    <contour>
      <point x="493" y="6"/>
      <point x="523" y="-86"/>
      <point x="626" y="-176" type="curve"/>
      <point x="712" y="-66" type="line"/>
      <point x="634" y="-34"/>
      <point x="558" y="8"/>
      <point x="520" y="96" type="curve"/>
      <point x="482" y="83" type="line"/>
    </contour>
    <contour>
      <point x="485" y="65" type="line"/>
      <point x="444" y="-33"/>
      <point x="377" y="-126"/>
      <point x="301" y="-147" type="curve" smooth="yes"/>
      <point x="291" y="-150"/>
      <point x="274" y="-152"/>
      <point x="270" y="-149" type="curve" smooth="yes"/>
      <point x="260" y="-143"/>
      <point x="253" y="-133"/>
      <point x="253" y="-119" type="curve" smooth="yes"/>
      <point x="253" y="-91"/>
      <point x="275" y="-75"/>
      <point x="336" y="-54" type="curve"/>
      <point x="271" y="41" type="line"/>
      <point x="230" y="31"/>
      <point x="201" y="18"/>
      <point x="172" y="-6" type="curve" smooth="yes"/>
      <point x="149" y="-25"/>
      <point x="134" y="-49"/>
      <point x="134" y="-84" type="curve" smooth="yes"/>
      <point x="134" y="-168"/>
      <point x="256" y="-227"/>
      <point x="373" y="-204" type="curve" smooth="yes"/>
      <point x="401" y="-198"/>
      <point x="488" y="-169"/>
      <point x="535" y="-41" type="curve"/>
    </contour>
    <contour>
      <point x="199" y="-42" type="line"/>
      <point x="137" y="-28"/>
      <point x="120" y="-1"/>
      <point x="120" y="28" type="curve" smooth="yes"/>
      <point x="120" y="43"/>
      <point x="126" y="60"/>
      <point x="146" y="68" type="curve" smooth="yes"/>
      <point x="161" y="74"/>
      <point x="176" y="76"/>
      <point x="201" y="75" type="curve"/>
      <point x="140" y="135" type="line"/>
      <point x="123" y="142"/>
      <point x="110" y="145"/>
      <point x="88" y="145" type="curve" smooth="yes"/>
      <point x="58" y="145"/>
      <point x="-2" y="129"/>
      <point x="-2" y="62" type="curve" smooth="yes"/>
      <point x="-2" y="0"/>
      <point x="69" y="-51"/>
      <point x="199" y="-56" type="curve"/>
    </contour>
    <contour>
      <point x="295" y="138"/>
      <point x="284" y="178"/>
      <point x="284" y="229" type="curve" smooth="yes"/>
      <point x="284" y="277"/>
      <point x="294" y="316"/>
      <point x="394" y="316" type="curve" smooth="yes"/>
      <point x="589" y="316" type="line"/>
      <point x="591" y="337"/>
      <point x="593" y="357"/>
      <point x="594" y="379" type="curve" smooth="yes"/>
      <point x="594" y="409"/>
      <point x="590" y="443"/>
      <point x="581" y="487" type="curve"/>
      <point x="726" y="487" type="line"/>
      <point x="705" y="580" type="line"/>
      <point x="-26" y="580" type="line"/>
      <point x="-2" y="487" type="line"/>
      <point x="446" y="487" type="line"/>
      <point x="447" y="477"/>
      <point x="448" y="464"/>
      <point x="448" y="451" type="curve" smooth="yes"/>
      <point x="448" y="431"/>
      <point x="445" y="424"/>
      <point x="442" y="409" type="curve"/>
      <point x="336" y="409" type="line" smooth="yes"/>
      <point x="162" y="409"/>
      <point x="133" y="326"/>
      <point x="133" y="255" type="curve" smooth="yes"/>
      <point x="133" y="124"/>
      <point x="298" y="42"/>
      <point x="408" y="42" type="curve" smooth="yes"/>
      <point x="450" y="42"/>
      <point x="497" y="51"/>
      <point x="538" y="67" type="curve" smooth="yes"/>
      <point x="587" y="86"/>
      <point x="632" y="125"/>
      <point x="653" y="153" type="curve" smooth="yes"/>
      <point x="660" y="163"/>
      <point x="661" y="180"/>
      <point x="654" y="189" type="curve" smooth="yes"/>
      <point x="612" y="236"/>
      <point x="543" y="258"/>
      <point x="491" y="258" type="curve" smooth="yes"/>
      <point x="450" y="258"/>
      <point x="433" y="244"/>
      <point x="433" y="204" type="curve" smooth="yes"/>
      <point x="433" y="187"/>
      <point x="438" y="167"/>
      <point x="446" y="148" type="curve"/>
      <point x="413" y="128"/>
      <point x="368" y="121"/>
      <point x="343" y="121" type="curve" smooth="yes"/>
      <point x="327" y="121"/>
      <point x="311" y="122"/>
      <point x="307" y="126" type="curve" smooth="yes"/>
    </contour>
    <contour>
      <point x="514" y="580" type="move" name="top"/>
    </contour>
    <contour>
      <point x="549" y="-53" type="move" name="bottom"/>
    </contour>
  </outline>
</glyph>
<glyph name="uni0926094D_dhadeva_uuvowelsign" format="1">
  <advance width="791"/>
  <outline>
    <contour>
      <point x="524" y="-80"/>
      <point x="469" y="-143"/>
      <point x="469" y="-208" type="curve" smooth="yes"/>
      <point x="469" y="-299"/>
      <point x="562" y="-369"/>
      <point x="639" y="-369" type="curve" smooth="yes"/>
      <point x="671" y="-369"/>
      <point x="698" y="-364"/>
      <point x="731" y="-340" type="curve"/>
      <point x="691" y="-244" type="line"/>
      <point x="658" y="-266"/>
      <point x="633" y="-274"/>
      <point x="606" y="-274" type="curve" smooth="yes"/>
      <point x="584" y="-274"/>
      <point x="567" y="-271"/>
      <point x="563" y="-268" type="curve" smooth="yes"/>
      <point x="558" y="-265"/>
      <point x="556" y="-247"/>
      <point x="556" y="-237" type="curve" smooth="yes"/>
      <point x="556" y="-202"/>
      <point x="589" y="-186"/>
      <point x="638" y="-186" type="curve" smooth="yes"/>
      <point x="703" y="-186"/>
      <point x="771" y="-240"/>
      <point x="844" y="-337" type="curve"/>
      <point x="885" y="-306" type="line"/>
      <point x="878" y="-291"/>
      <point x="853" y="-244"/>
      <point x="834" y="-217" type="curve" smooth="yes"/>
      <point x="786" y="-147"/>
      <point x="716" y="-80"/>
      <point x="625" y="-80" type="curve" smooth="yes"/>
    </contour>
    <contour>
      <point x="483" y="6"/>
      <point x="519" y="-96"/>
      <point x="602" y="-142" type="curve"/>
      <point x="682" y="-85" type="line"/>
      <point x="621" y="-46"/>
      <point x="548" y="8"/>
      <point x="510" y="96" type="curve"/>
      <point x="473" y="83" type="line"/>
    </contour>
    <contour>
      <point x="476" y="100" type="line"/>
      <point x="434" y="1"/>
      <point x="343" y="-107"/>
      <point x="267" y="-128" type="curve" smooth="yes"/>
      <point x="256" y="-131"/>
      <point x="240" y="-132"/>
      <point x="235" y="-129" type="curve" smooth="yes"/>
      <point x="226" y="-123"/>
      <point x="219" y="-113"/>
      <point x="219" y="-100" type="curve" smooth="yes"/>
      <point x="219" y="-71"/>
      <point x="246" y="-53"/>
      <point x="325" y="-30" type="curve"/>
      <point x="259" y="65" type="line"/>
      <point x="209" y="55"/>
      <point x="167" y="37"/>
      <point x="138" y="13" type="curve" smooth="yes"/>
      <point x="115" y="-6"/>
      <point x="100" y="-29"/>
      <point x="100" y="-64" type="curve" smooth="yes"/>
      <point x="100" y="-149"/>
      <point x="222" y="-207"/>
      <point x="338" y="-184" type="curve" smooth="yes"/>
      <point x="367" y="-179"/>
      <point x="478" y="-135"/>
      <point x="540" y="-11" type="curve"/>
    </contour>
    <contour>
      <point x="169" y="-18" type="line"/>
      <point x="107" y="-4"/>
      <point x="91" y="23"/>
      <point x="91" y="53" type="curve" smooth="yes"/>
      <point x="91" y="67"/>
      <point x="97" y="84"/>
      <point x="116" y="92" type="curve" smooth="yes"/>
      <point x="130" y="98"/>
      <point x="143" y="99"/>
      <point x="171" y="98" type="curve"/>
      <point x="115" y="158" type="line"/>
      <point x="99" y="165"/>
      <point x="81" y="169"/>
      <point x="59" y="169" type="curve" smooth="yes"/>
      <point x="29" y="169"/>
      <point x="-31" y="154"/>
      <point x="-31" y="86" type="curve" smooth="yes"/>
      <point x="-31" y="24"/>
      <point x="40" y="-27"/>
      <point x="170" y="-31" type="curve"/>
    </contour>
    <contour>
      <point x="295" y="138"/>
      <point x="284" y="178"/>
      <point x="284" y="229" type="curve" smooth="yes"/>
      <point x="284" y="277"/>
      <point x="294" y="316"/>
      <point x="394" y="316" type="curve" smooth="yes"/>
      <point x="589" y="316" type="line"/>
      <point x="591" y="337"/>
      <point x="593" y="357"/>
      <point x="594" y="379" type="curve" smooth="yes"/>
      <point x="594" y="409"/>
      <point x="590" y="443"/>
      <point x="581" y="487" type="curve"/>
      <point x="809" y="487" type="line"/>
      <point x="788" y="580" type="line"/>
      <point x="-26" y="580" type="line"/>
      <point x="-2" y="487" type="line"/>
      <point x="446" y="487" type="line"/>
      <point x="447" y="477"/>
      <point x="448" y="464"/>
      <point x="448" y="451" type="curve" smooth="yes"/>
      <point x="448" y="431"/>
      <point x="445" y="424"/>
      <point x="442" y="409" type="curve"/>
      <point x="336" y="409" type="line" smooth="yes"/>
      <point x="162" y="409"/>
      <point x="133" y="326"/>
      <point x="133" y="255" type="curve" smooth="yes"/>
      <point x="133" y="124"/>
      <point x="298" y="42"/>
      <point x="408" y="42" type="curve" smooth="yes"/>
      <point x="450" y="42"/>
      <point x="497" y="51"/>
      <point x="538" y="67" type="curve" smooth="yes"/>
      <point x="587" y="86"/>
      <point x="632" y="125"/>
      <point x="653" y="153" type="curve" smooth="yes"/>
      <point x="660" y="163"/>
      <point x="661" y="180"/>
      <point x="654" y="189" type="curve" smooth="yes"/>
      <point x="612" y="236"/>
      <point x="543" y="258"/>
      <point x="491" y="258" type="curve" smooth="yes"/>
      <point x="450" y="258"/>
      <point x="433" y="244"/>
      <point x="433" y="204" type="curve" smooth="yes"/>
      <point x="433" y="187"/>
      <point x="438" y="167"/>
      <point x="446" y="148" type="curve"/>
      <point x="413" y="128"/>
      <point x="368" y="121"/>
      <point x="343" y="121" type="curve" smooth="yes"/>
      <point x="327" y="121"/>
      <point x="311" y="122"/>
      <point x="307" y="126" type="curve" smooth="yes"/>
    </contour>
    <contour>
      <point x="514" y="580" type="move" name="top"/>
    </contour>
  </outline>
</glyph>
<glyph name="uni0926094D_gadeva" format="1">
  <advance width="621"/>
  <note>
    dDGa
  </note>
  <outline>
    <contour>
      <point x="418" y="-15"/>
      <point x="550" y="35"/>
      <point x="550" y="119" type="curve" smooth="yes"/>
      <point x="550" y="170"/>
      <point x="519" y="208"/>
      <point x="463" y="208" type="curve" smooth="yes"/>
      <point x="413" y="208"/>
      <point x="368" y="166"/>
      <point x="382" y="90" type="curve"/>
      <point x="358" y="78"/>
      <point x="334" y="72"/>
      <point x="306" y="72" type="curve" smooth="yes"/>
      <point x="249" y="72"/>
      <point x="215" y="94"/>
      <point x="193" y="126" type="curve" smooth="yes"/>
      <point x="142" y="200"/>
      <point x="180" y="323"/>
      <point x="321" y="323" type="curve" smooth="yes"/>
      <point x="463" y="323" type="line"/>
      <point x="464" y="502" type="line"/>
      <point x="606" y="502" type="line"/>
      <point x="584" y="580" type="line"/>
      <point x="15" y="580" type="line"/>
      <point x="38" y="502" type="line"/>
      <point x="353" y="502" type="line"/>
      <point x="353" y="401" type="line"/>
      <point x="291" y="401" type="line" smooth="yes"/>
      <point x="102" y="401"/>
      <point x="36" y="224"/>
      <point x="135" y="90" type="curve" smooth="yes"/>
      <point x="185" y="22"/>
      <point x="264" y="-15"/>
      <point x="344" y="-15" type="curve" smooth="yes"/>
    </contour>
    <contour>
      <point x="241" y="50" type="line"/>
      <point x="280" y="-77" type="line"/>
      <point x="218" y="-88"/>
      <point x="191" y="-115"/>
      <point x="199" y="-156" type="curve"/>
      <point x="210" y="-210"/>
      <point x="282" y="-238"/>
      <point x="332" y="-233" type="curve"/>
      <point x="423" y="-223"/>
      <point x="364" y="-54"/>
      <point x="323" y="47" type="curve"/>
    </contour>
    <contour>
      <point x="381" y="106" type="line"/>
      <point x="385" y="38"/>
      <point x="467" y="-100"/>
      <point x="518" y="-179" type="curve"/>
      <point x="602" y="-111" type="line"/>
      <point x="463" y="62" type="line"/>
    </contour>
    <contour>
      <point x="410" y="580" type="move" name="top"/>
    </contour>
    <contour>
      <point x="507" y="-129" type="move" name="bottom"/>
    </contour>
  </outline>
</glyph>
<glyph name="uni0926094D0918094D092F" format="1">
  <advance width="1231"/>
  <outline>
    <component base="uni0926094D_ghadeva"/>
    <component base="uni092F.post" xOffset="567"/>
    <contour>
      <point x="1059" y="580" type="move" name="top"/>
    </contour>
    <contour>
      <point x="1059" y="0" type="move" name="bottom"/>
    </contour>
  </outline>
</glyph>
<glyph name="uni0926094D_ghadeva" format="1">
  <advance width="737"/>
  <note>
    dDGha
  </note>
  <outline>
    <contour>
      <point x="563" y="148" type="line"/>
      <point x="496" y="123" type="line"/>
      <point x="664" y="-100" type="line"/>
      <point x="760" y="-56" type="line"/>
    </contour>
    <contour>
      <point x="497" y="65"/>
      <point x="619" y="105"/>
      <point x="619" y="192" type="curve" smooth="yes"/>
      <point x="619" y="239"/>
      <point x="590" y="272"/>
      <point x="538" y="272" type="curve" smooth="yes"/>
      <point x="492" y="272"/>
      <point x="450" y="232"/>
      <point x="469" y="165" type="curve"/>
      <point x="447" y="151"/>
      <point x="414" y="142"/>
      <point x="379" y="142" type="curve" smooth="yes"/>
      <point x="313" y="142"/>
      <point x="282" y="177"/>
      <point x="275" y="231" type="curve" smooth="yes"/>
      <point x="265" y="309"/>
      <point x="317" y="363"/>
      <point x="400" y="363" type="curve" smooth="yes"/>
      <point x="543" y="363" type="line"/>
      <point x="544" y="502" type="line"/>
      <point x="716" y="502" type="line"/>
      <point x="694" y="580" type="line"/>
      <point x="15" y="580" type="line"/>
      <point x="38" y="502" type="line"/>
      <point x="433" y="502" type="line"/>
      <point x="433" y="441" type="line"/>
      <point x="371" y="441" type="line" smooth="yes"/>
      <point x="266" y="441"/>
      <point x="174" y="400"/>
      <point x="174" y="293" type="curve" smooth="yes"/>
      <point x="174" y="182"/>
      <point x="272" y="65"/>
      <point x="414" y="65" type="curve" smooth="yes"/>
    </contour>
    <contour>
      <point x="258" y="161" type="line"/>
      <point x="218" y="123"/>
      <point x="188" y="88"/>
      <point x="188" y="26" type="curve" smooth="yes"/>
      <point x="188" y="-58"/>
      <point x="257" y="-143"/>
      <point x="369" y="-143" type="curve" smooth="yes"/>
      <point x="472" y="-143"/>
      <point x="542" y="-73"/>
      <point x="592" y="66" type="curve"/>
      <point x="494" y="136" type="line"/>
      <point x="477" y="-6"/>
      <point x="418" y="-74"/>
      <point x="346" y="-74" type="curve" smooth="yes"/>
      <point x="301" y="-74"/>
      <point x="278" y="-46"/>
      <point x="278" y="-11" type="curve" smooth="yes"/>
      <point x="278" y="33"/>
      <point x="310" y="84"/>
      <point x="375" y="111" type="curve"/>
    </contour>
    <contour>
      <point x="78" y="294"/>
      <point x="26" y="198"/>
      <point x="48" y="115" type="curve" smooth="yes"/>
      <point x="67" y="39"/>
      <point x="145" y="-18"/>
      <point x="250" y="1" type="curve"/>
      <point x="235" y="85" type="line"/>
      <point x="194" y="59"/>
      <point x="152" y="74"/>
      <point x="142" y="108" type="curve" smooth="yes"/>
      <point x="124" y="167"/>
      <point x="170" y="215"/>
      <point x="243" y="216" type="curve"/>
      <point x="229" y="302" type="line"/>
    </contour>
    <contour>
      <point x="492" y="580" type="move" name="top"/>
    </contour>
    <contour>
      <point x="607" y="-128" type="move" name="bottom"/>
    </contour>
  </outline>
</glyph>
<glyph name="uni0926094D_madeva" format="1">
  <advance width="722"/>
  <note>
    dDMa
  </note>
  <outline>
    <contour>
      <point x="524" y="520" type="line"/>
      <point x="524" y="-21" type="line"/>
      <point x="664" y="-49" type="line"/>
      <point x="664" y="520" type="line"/>
    </contour>
    <contour>
      <point x="392" y="229"/>
      <point x="358" y="269"/>
      <point x="318" y="285" type="curve" smooth="yes"/>
      <point x="307" y="290"/>
      <point x="290" y="293"/>
      <point x="274" y="293" type="curve"/>
      <point x="199" y="293" type="line"/>
      <point x="188" y="293"/>
      <point x="181" y="298"/>
      <point x="179" y="301" type="curve" smooth="yes"/>
      <point x="176" y="305"/>
      <point x="171" y="313"/>
      <point x="171" y="323" type="curve" smooth="yes"/>
      <point x="171" y="342"/>
      <point x="182" y="343"/>
      <point x="207" y="343" type="curve" smooth="yes"/>
      <point x="362" y="343" type="line" smooth="yes"/>
      <point x="370" y="343"/>
      <point x="376" y="346"/>
      <point x="376" y="354" type="curve" smooth="yes"/>
      <point x="377" y="363"/>
      <point x="377" y="373"/>
      <point x="377" y="383" type="curve" smooth="yes"/>
      <point x="376" y="414"/>
      <point x="372" y="448"/>
      <point x="364" y="490" type="curve"/>
      <point x="232" y="490" type="line"/>
      <point x="233" y="480"/>
      <point x="233" y="468"/>
      <point x="233" y="458" type="curve" smooth="yes"/>
      <point x="233" y="448"/>
      <point x="232" y="441"/>
      <point x="229" y="431" type="curve"/>
      <point x="150" y="431" type="line" smooth="yes"/>
      <point x="99" y="431"/>
      <point x="25" y="417"/>
      <point x="25" y="333" type="curve" smooth="yes"/>
      <point x="25" y="283"/>
      <point x="73" y="197"/>
      <point x="186" y="197" type="curve"/>
      <point x="246" y="198" type="line"/>
      <point x="261" y="198"/>
      <point x="271" y="196"/>
      <point x="274" y="192" type="curve" smooth="yes"/>
      <point x="277" y="186"/>
      <point x="278" y="181"/>
      <point x="278" y="168" type="curve"/>
      <point x="278" y="152" type="line"/>
      <point x="242" y="152"/>
      <point x="216" y="152"/>
      <point x="199" y="148" type="curve" smooth="yes"/>
      <point x="182" y="144"/>
      <point x="169" y="136"/>
      <point x="169" y="123" type="curve" smooth="yes"/>
      <point x="169" y="65"/>
      <point x="270" y="-39"/>
      <point x="342" y="-39" type="curve" smooth="yes"/>
      <point x="375" y="-39"/>
      <point x="391" y="16"/>
      <point x="395" y="58" type="curve"/>
      <point x="531" y="58" type="line"/>
      <point x="531" y="152" type="line"/>
      <point x="392" y="152" type="line"/>
      <point x="392" y="185" type="line"/>
    </contour>
    <contour>
      <point x="748" y="487" type="line"/>
      <point x="727" y="580" type="line"/>
      <point x="-24" y="580" type="line"/>
      <point x="0" y="487" type="line"/>
    </contour>
    <contour>
      <point x="594" y="580" type="move" name="top"/>
    </contour>
    <contour>
      <point x="594" y="0" type="move" name="bottom"/>
    </contour>
  </outline>
</glyph>
<glyph name="uni0926094D_nadeva_uvowelsignde" format="1">
  <advance width="616"/>
  <outline>
    <contour>
      <point x="518" y="-98"/>
      <point x="593" y="-93"/>
      <point x="609" y="-145" type="curve" smooth="yes"/>
      <point x="624" y="-192"/>
      <point x="590" y="-247"/>
      <point x="513" y="-247" type="curve" smooth="yes"/>
      <point x="459" y="-247"/>
      <point x="398" y="-211"/>
      <point x="348" y="-153" type="curve"/>
      <point x="305" y="-188" type="line"/>
      <point x="365" y="-283"/>
      <point x="437" y="-337"/>
      <point x="517" y="-337" type="curve" smooth="yes"/>
      <point x="647" y="-337"/>
      <point x="721" y="-218"/>
      <point x="668" y="-117" type="curve" smooth="yes"/>
      <point x="639" y="-61"/>
      <point x="585" y="-26"/>
      <point x="518" y="-26" type="curve" smooth="yes"/>
      <point x="475" y="-26"/>
      <point x="432" y="-40"/>
      <point x="396" y="-67" type="curve"/>
      <point x="441" y="-147" type="line"/>
    </contour>
    <contour>
      <point x="425" y="128" type="line"/>
      <point x="389" y="99"/>
      <point x="346" y="84"/>
      <point x="307" y="84" type="curve" smooth="yes"/>
      <point x="238" y="84"/>
      <point x="178" y="127"/>
      <point x="178" y="207" type="curve" smooth="yes"/>
      <point x="178" y="281"/>
      <point x="230" y="323"/>
      <point x="323" y="323" type="curve" smooth="yes"/>
      <point x="483" y="323" type="line"/>
      <point x="483" y="502" type="line"/>
      <point x="606" y="502" type="line"/>
      <point x="584" y="580" type="line"/>
      <point x="15" y="580" type="line"/>
      <point x="38" y="502" type="line"/>
      <point x="353" y="502" type="line"/>
      <point x="353" y="401" type="line"/>
      <point x="274" y="401" type="line" smooth="yes"/>
      <point x="152" y="401"/>
      <point x="59" y="362"/>
      <point x="59" y="251" type="curve" smooth="yes"/>
      <point x="59" y="112"/>
      <point x="202" y="6"/>
      <point x="336" y="6" type="curve" smooth="yes"/>
      <point x="374" y="6"/>
      <point x="411" y="14"/>
      <point x="445" y="29" type="curve"/>
    </contour>
    <contour>
      <point x="565" y="-83" type="line"/>
      <point x="526" y="-47"/>
      <point x="495" y="-7"/>
      <point x="472" y="41" type="curve"/>
      <point x="492" y="50"/>
      <point x="525" y="73"/>
      <point x="525" y="118" type="curve" smooth="yes"/>
      <point x="525" y="161"/>
      <point x="495" y="186"/>
      <point x="459" y="186" type="curve" smooth="yes"/>
      <point x="422" y="186"/>
      <point x="384" y="161"/>
      <point x="384" y="98" type="curve" smooth="yes"/>
      <point x="384" y="42"/>
      <point x="415" y="-28"/>
      <point x="462" y="-105" type="curve"/>
    </contour>
    <component base="nadeva.post2" xOffset="593" yOffset="-162" xScale="0.98" yScale="0.98" xyScale="-0.17" yxScale="0.17"/>
    <contour>
      <point x="118" y="-49" type="move" name="nukta"/>
    </contour>
    <contour>
      <point x="409" y="-34" type="move" name="bottom"/>
    </contour>
    <contour>
      <point x="435" y="580" type="move" name="top"/>
    </contour>
  </outline>
</glyph>
<glyph name="uni0926094D_nadeva_uuvowelsignd" format="1">
  <advance width="667"/>
  <outline>
    <contour>
      <point x="502" y="-265"/>
      <point x="427" y="-270"/>
      <point x="411" y="-218" type="curve" smooth="yes"/>
      <point x="396" y="-171"/>
      <point x="430" y="-116"/>
      <point x="507" y="-116" type="curve" smooth="yes"/>
      <point x="571" y="-116"/>
      <point x="643" y="-171"/>
      <point x="702" y="-260" type="curve"/>
      <point x="745" y="-225" type="line"/>
      <point x="677" y="-98"/>
      <point x="594" y="-26"/>
      <point x="503" y="-26" type="curve" smooth="yes"/>
      <point x="373" y="-26"/>
      <point x="299" y="-145"/>
      <point x="352" y="-246" type="curve" smooth="yes"/>
      <point x="381" y="-302"/>
      <point x="435" y="-337"/>
      <point x="502" y="-337" type="curve" smooth="yes"/>
      <point x="545" y="-337"/>
      <point x="588" y="-323"/>
      <point x="624" y="-296" type="curve"/>
      <point x="579" y="-216" type="line"/>
    </contour>
    <contour>
      <point x="425" y="128" type="line"/>
      <point x="389" y="99"/>
      <point x="346" y="84"/>
      <point x="307" y="84" type="curve" smooth="yes"/>
      <point x="238" y="84"/>
      <point x="178" y="127"/>
      <point x="178" y="207" type="curve" smooth="yes"/>
      <point x="178" y="281"/>
      <point x="230" y="323"/>
      <point x="323" y="323" type="curve" smooth="yes"/>
      <point x="483" y="323" type="line"/>
      <point x="483" y="502" type="line"/>
      <point x="636" y="502" type="line"/>
      <point x="614" y="580" type="line"/>
      <point x="15" y="580" type="line"/>
      <point x="38" y="502" type="line"/>
      <point x="353" y="502" type="line"/>
      <point x="353" y="401" type="line"/>
      <point x="274" y="401" type="line" smooth="yes"/>
      <point x="152" y="401"/>
      <point x="59" y="362"/>
      <point x="59" y="251" type="curve" smooth="yes"/>
      <point x="59" y="112"/>
      <point x="202" y="6"/>
      <point x="336" y="6" type="curve" smooth="yes"/>
      <point x="374" y="6"/>
      <point x="411" y="14"/>
      <point x="445" y="29" type="curve"/>
    </contour>
    <contour>
      <point x="565" y="-83" type="line"/>
      <point x="526" y="-47"/>
      <point x="495" y="-7"/>
      <point x="472" y="41" type="curve"/>
      <point x="492" y="50"/>
      <point x="525" y="73"/>
      <point x="525" y="118" type="curve" smooth="yes"/>
      <point x="525" y="161"/>
      <point x="495" y="186"/>
      <point x="459" y="186" type="curve" smooth="yes"/>
      <point x="422" y="186"/>
      <point x="384" y="161"/>
      <point x="384" y="98" type="curve" smooth="yes"/>
      <point x="384" y="42"/>
      <point x="415" y="-28"/>
      <point x="462" y="-105" type="curve"/>
    </contour>
    <component base="nadeva.post2" xOffset="593" yOffset="-162" xScale="0.98" yScale="0.98" xyScale="-0.17" yxScale="0.17"/>
    <contour>
      <point x="428" y="580" type="move" name="top"/>
    </contour>
  </outline>
</glyph>
<glyph name="uni0921094D0921094D092F" format="1">
  <advance width="1046"/>
  <note>
    dDdDdYa
  </note>
  <outline>
    <contour>
      <point x="312" y="471" type="line"/>
      <point x="347" y="391" type="line"/>
      <point x="589" y="391" type="line" smooth="yes"/>
      <point x="640" y="391"/>
      <point x="652" y="383"/>
      <point x="658" y="360" type="curve" smooth="yes"/>
      <point x="666" y="330"/>
      <point x="656" y="281"/>
      <point x="514" y="238" type="curve"/>
      <point x="549" y="62"/>
      <point x="704" y="9"/>
      <point x="816" y="75" type="curve"/>
      <point x="816" y="0" type="line"/>
      <point x="923" y="0" type="line"/>
      <point x="923" y="502" type="line"/>
      <point x="1041" y="502" type="line"/>
      <point x="1004" y="580" type="line"/>
      <point x="464" y="580" type="line"/>
      <point x="501" y="502" type="line"/>
      <point x="816" y="502" type="line"/>
      <point x="816" y="195" type="line"/>
      <point x="741" y="127"/>
      <point x="640" y="104"/>
      <point x="595" y="180" type="curve"/>
      <point x="731" y="235"/>
      <point x="759" y="311"/>
      <point x="725" y="389" type="curve" smooth="yes"/>
      <point x="704" y="436"/>
      <point x="654" y="471"/>
      <point x="577" y="471" type="curve" smooth="yes"/>
    </contour>
    <component base="uni0921094D_ddadeva" xOffset="-42"/>
    <contour>
      <point x="875" y="580" type="move" name="top"/>
    </contour>
    <contour>
      <point x="875" y="0" type="move" name="bottom"/>
    </contour>
  </outline>
</glyph>
<glyph name="uni0921094D_ddhadeva" format="1">
  <advance width="600"/>
  <note>
    dDdDdha
  </note>
  <outline>
    <contour>
      <point x="345" y="381" type="line"/>
      <point x="475" y="381" type="line"/>
      <point x="475" y="502" type="line"/>
      <point x="606" y="502" type="line"/>
      <point x="584" y="580" type="line"/>
      <point x="15" y="580" type="line"/>
      <point x="38" y="502" type="line"/>
      <point x="345" y="502" type="line"/>
    </contour>
    <contour>
      <point x="66" y="221" type="line"/>
      <point x="119" y="146"/>
      <point x="205" y="69"/>
      <point x="335" y="70" type="curve" smooth="yes"/>
      <point x="464" y="71"/>
      <point x="528" y="137"/>
      <point x="510" y="224" type="curve" smooth="yes"/>
      <point x="499" y="280"/>
      <point x="454" y="335"/>
      <point x="383" y="335" type="curve" smooth="yes"/>
      <point x="310" y="335"/>
      <point x="267" y="302"/>
      <point x="233" y="302" type="curve" smooth="yes"/>
      <point x="216" y="302"/>
      <point x="202" y="312"/>
      <point x="202" y="333" type="curve" smooth="yes"/>
      <point x="202" y="363"/>
      <point x="224" y="381"/>
      <point x="272" y="381" type="curve" smooth="yes"/>
      <point x="403" y="381" type="line"/>
      <point x="389" y="462" type="line"/>
      <point x="230" y="462" type="line" smooth="yes"/>
      <point x="166" y="462"/>
      <point x="102" y="419"/>
      <point x="112" y="343" type="curve" smooth="yes"/>
      <point x="121" y="278"/>
      <point x="197" y="223"/>
      <point x="264" y="223" type="curve" smooth="yes"/>
      <point x="313" y="223"/>
      <point x="370" y="247"/>
      <point x="408" y="246" type="curve" smooth="yes"/>
      <point x="429" y="246"/>
      <point x="439" y="230"/>
      <point x="439" y="210" type="curve" smooth="yes"/>
      <point x="439" y="177"/>
      <point x="400" y="158"/>
      <point x="309" y="159" type="curve" smooth="yes"/>
      <point x="247" y="158"/>
      <point x="179" y="181"/>
      <point x="111" y="247" type="curve"/>
    </contour>
    <contour>
      <point x="428" y="-34" type="line"/>
      <point x="428" y="129" type="line"/>
      <point x="318" y="129" type="line"/>
      <point x="318" y="37" type="line"/>
    </contour>
    <contour>
      <point x="376" y="-267" type="line"/>
      <point x="337" y="-252"/>
      <point x="314" y="-222"/>
      <point x="314" y="-181" type="curve" smooth="yes"/>
      <point x="314" y="-141"/>
      <point x="340" y="-122"/>
      <point x="368" y="-122" type="curve" smooth="yes"/>
      <point x="394" y="-122"/>
      <point x="421" y="-141"/>
      <point x="421" y="-179" type="curve" smooth="yes"/>
      <point x="421" y="-221"/>
      <point x="377" y="-245"/>
      <point x="297" y="-245" type="curve" smooth="yes"/>
      <point x="205" y="-245"/>
      <point x="153" y="-179"/>
      <point x="153" y="-121" type="curve" smooth="yes"/>
      <point x="153" y="-74"/>
      <point x="186" y="-34"/>
      <point x="258" y="-34" type="curve" smooth="yes"/>
      <point x="428" y="-34" type="line"/>
      <point x="352" y="36" type="line"/>
      <point x="242" y="36" type="line" smooth="yes"/>
      <point x="108" y="36"/>
      <point x="46" y="-22"/>
      <point x="46" y="-94" type="curve" smooth="yes"/>
      <point x="46" y="-190"/>
      <point x="154" y="-307"/>
      <point x="336" y="-305" type="curve" smooth="yes"/>
      <point x="430" y="-304"/>
      <point x="488" y="-260"/>
      <point x="488" y="-202" type="curve" smooth="yes"/>
      <point x="488" y="-127"/>
      <point x="415" y="-70"/>
      <point x="333" y="-70" type="curve" smooth="yes"/>
      <point x="269" y="-70"/>
      <point x="229" y="-108"/>
      <point x="229" y="-160" type="curve" smooth="yes"/>
      <point x="229" y="-203"/>
      <point x="267" y="-251"/>
      <point x="323" y="-277" type="curve"/>
    </contour>
    <contour>
      <point x="411" y="580" type="move" name="top"/>
    </contour>
    <contour>
      <point x="392" y="-291" type="move" name="bottom"/>
    </contour>
  </outline>
</glyph>
<glyph name="uni0921094D_ghadeva" format="1">
  <advance width="621"/>
  <note>
    dDdGha
  </note>
  <outline>
    <contour>
      <point x="345" y="381" type="line"/>
      <point x="475" y="381" type="line"/>
      <point x="475" y="502" type="line"/>
      <point x="606" y="502" type="line"/>
      <point x="584" y="580" type="line"/>
      <point x="15" y="580" type="line"/>
      <point x="38" y="502" type="line"/>
      <point x="345" y="502" type="line"/>
    </contour>
    <contour>
      <point x="45" y="247" type="line"/>
      <point x="103" y="159"/>
      <point x="195" y="69"/>
      <point x="335" y="70" type="curve" smooth="yes"/>
      <point x="464" y="71"/>
      <point x="528" y="137"/>
      <point x="510" y="224" type="curve" smooth="yes"/>
      <point x="499" y="280"/>
      <point x="454" y="335"/>
      <point x="383" y="335" type="curve" smooth="yes"/>
      <point x="310" y="335"/>
      <point x="267" y="302"/>
      <point x="233" y="302" type="curve" smooth="yes"/>
      <point x="216" y="302"/>
      <point x="202" y="312"/>
      <point x="202" y="333" type="curve" smooth="yes"/>
      <point x="202" y="363"/>
      <point x="224" y="381"/>
      <point x="272" y="381" type="curve" smooth="yes"/>
      <point x="403" y="381" type="line"/>
      <point x="389" y="462" type="line"/>
      <point x="230" y="462" type="line" smooth="yes"/>
      <point x="166" y="462"/>
      <point x="102" y="419"/>
      <point x="112" y="343" type="curve" smooth="yes"/>
      <point x="121" y="278"/>
      <point x="197" y="223"/>
      <point x="264" y="223" type="curve" smooth="yes"/>
      <point x="313" y="223"/>
      <point x="370" y="247"/>
      <point x="408" y="246" type="curve" smooth="yes"/>
      <point x="429" y="246"/>
      <point x="439" y="230"/>
      <point x="439" y="210" type="curve" smooth="yes"/>
      <point x="439" y="177"/>
      <point x="400" y="158"/>
      <point x="309" y="159" type="curve" smooth="yes"/>
      <point x="241" y="158"/>
      <point x="166" y="188"/>
      <point x="90" y="273" type="curve"/>
    </contour>
    <contour>
      <point x="97" y="57"/>
      <point x="35" y="-13"/>
      <point x="35" y="-82" type="curve" smooth="yes"/>
      <point x="35" y="-155"/>
      <point x="114" y="-233"/>
      <point x="243" y="-233" type="curve" smooth="yes"/>
      <point x="324" y="-233"/>
      <point x="399" y="-200"/>
      <point x="441" y="-138" type="curve"/>
      <point x="391" y="-57" type="line"/>
      <point x="353" y="-129"/>
      <point x="261" y="-172"/>
      <point x="194" y="-172" type="curve" smooth="yes"/>
      <point x="151" y="-172"/>
      <point x="119" y="-154"/>
      <point x="119" y="-114" type="curve" smooth="yes"/>
      <point x="119" y="-51"/>
      <point x="180" y="-19"/>
      <point x="275" y="-16" type="curve"/>
      <point x="251" y="52" type="line"/>
    </contour>
    <contour>
      <point x="122" y="210" type="line"/>
      <point x="60" y="191"/>
      <point x="31" y="148"/>
      <point x="31" y="100" type="curve" smooth="yes"/>
      <point x="31" y="56"/>
      <point x="65" y="8"/>
      <point x="132" y="-23" type="curve"/>
      <point x="164" y="-3" type="line"/>
      <point x="139" y="17"/>
      <point x="119" y="31"/>
      <point x="119" y="66" type="curve" smooth="yes"/>
      <point x="119" y="102"/>
      <point x="139" y="140"/>
      <point x="194" y="154" type="curve"/>
    </contour>
    <contour>
      <point x="390" y="-275" type="line"/>
      <point x="500" y="-275" type="line"/>
      <point x="500" y="182" type="line"/>
      <point x="390" y="122" type="line"/>
    </contour>
    <contour>
      <point x="402" y="580" type="move" name="top"/>
    </contour>
    <contour>
      <point x="422" y="-255" type="move" name="bottom"/>
    </contour>
  </outline>
</glyph>
<glyph name="uni0922094D092F" format="1">
  <advance width="1151"/>
  <note>
    dDdhYa
  </note>
  <outline>
    <contour>
      <point x="932" y="237" type="line"/>
      <point x="870" y="148"/>
      <point x="729" y="87"/>
      <point x="672" y="163" type="curve"/>
      <point x="814" y="191"/>
      <point x="836" y="277"/>
      <point x="805" y="342" type="curve" smooth="yes"/>
      <point x="771" y="414"/>
      <point x="667" y="415"/>
      <point x="554" y="415" type="curve" smooth="yes"/>
      <point x="327" y="415" type="line"/>
      <point x="356" y="337" type="line"/>
      <point x="584" y="337" type="line" smooth="yes"/>
      <point x="672" y="337"/>
      <point x="709" y="335"/>
      <point x="724" y="303" type="curve" smooth="yes"/>
      <point x="734" y="281"/>
      <point x="734" y="225"/>
      <point x="579" y="202" type="curve"/>
      <point x="646" y="27"/>
      <point x="786" y="17"/>
      <point x="935" y="98" type="curve"/>
    </contour>
    <contour>
      <point x="916" y="0" type="line"/>
      <point x="1046" y="0" type="line"/>
      <point x="1046" y="502" type="line"/>
      <point x="1136" y="502" type="line"/>
      <point x="1114" y="580" type="line"/>
      <point x="457" y="580" type="line"/>
      <point x="480" y="502" type="line"/>
      <point x="916" y="502" type="line"/>
    </contour>
    <component base="ddhadeva"/>
    <contour>
      <point x="1070" y="580" type="move" name="top"/>
    </contour>
    <contour>
      <point x="1070" y="0" type="move" name="bottom"/>
    </contour>
  </outline>
</glyph>
<glyph name="evowelsigndeva_anusvaradeva" format="1">
  <advance width="590"/>
  <note>
    dMatraEAnusvara
  </note>
  <outline>
    <component base="anusvaradeva" xOffset="368" yOffset="141" xScale="0.93" yScale="0.93"/>
    <component base="evowelsigndeva"/>
    <contour>
      <point x="467" y="555" type="move" name="_top"/>
    </contour>
  </outline>
</glyph>
